<svg width="169" height="140" viewBox="0 0 169 140" fill="none" xmlns="http://www.w3.org/2000/svg">
<g opacity="0.4" filter="url(#filter0_f_55_21)">
<path d="M29.5662 77.2372C29.2505 92.0987 46.0046 102.425 87.4025 109.162C125.683 115.392 146.358 99.7593 132.844 59.6049C123.754 32.5962 104.936 28.5317 67.4143 29.6408C29.8923 30.7499 30.1276 50.8073 29.5662 77.2372Z" fill="url(#paint0_radial_55_21)"/>
</g>
<g opacity="0.4" filter="url(#filter1_f_55_21)">
<path d="M60.7934 84.9705C60.362 105.279 80.2741 98.8024 105.821 98.0472C131.368 97.292 141.522 83.9963 138.622 67.5734C132.963 47.1007 118.611 40.0592 93.0643 40.8144C67.5172 41.5695 61.2248 64.6618 60.7934 84.9705Z" fill="url(#paint1_radial_55_21)"/>
</g>
<g filter="url(#filter2_f_55_21)">
<path d="M26.577 82.5413C6.72319 109.64 79.2936 102.72 100.215 103.789C121.136 104.858 120.878 96.6646 120.948 87.3621C121.017 78.0595 104.114 69.652 83.1926 68.5832C62.2713 67.5145 31.255 65.2215 26.577 82.5413Z" fill="url(#paint2_radial_55_21)" fill-opacity="0.2"/>
</g>
<defs>
<filter id="filter0_f_55_21" x="0.315594" y="0.233807" width="165.919" height="139.498" filterUnits="userSpaceOnUse" color-interpolation-filters="sRGB">
<feFlood flood-opacity="0" result="BackgroundImageFix"/>
<feBlend mode="normal" in="SourceGraphic" in2="BackgroundImageFix" result="shape"/>
<feGaussianBlur stdDeviation="14.6231" result="effect1_foregroundBlur_55_21"/>
</filter>
<filter id="filter1_f_55_21" x="31.5402" y="11.5141" width="136.808" height="117.353" filterUnits="userSpaceOnUse" color-interpolation-filters="sRGB">
<feFlood flood-opacity="0" result="BackgroundImageFix"/>
<feBlend mode="normal" in="SourceGraphic" in2="BackgroundImageFix" result="shape"/>
<feGaussianBlur stdDeviation="14.6231" result="effect1_foregroundBlur_55_21"/>
</filter>
<filter id="filter2_f_55_21" x="14.399" y="59.0787" width="115.323" height="53.5782" filterUnits="userSpaceOnUse" color-interpolation-filters="sRGB">
<feFlood flood-opacity="0" result="BackgroundImageFix"/>
<feBlend mode="normal" in="SourceGraphic" in2="BackgroundImageFix" result="shape"/>
<feGaussianBlur stdDeviation="4.38693" result="effect1_foregroundBlur_55_21"/>
</filter>
<radialGradient id="paint0_radial_55_21" cx="0" cy="0" r="1" gradientUnits="userSpaceOnUse" gradientTransform="translate(63.5924 78.5722) rotate(90.9224) scale(42.3087 59.4841)">
<stop stop-color="#8F92A7"/>
<stop offset="1" stop-color="#D9D9D9" stop-opacity="0"/>
</radialGradient>
<radialGradient id="paint1_radial_55_21" cx="0" cy="0" r="1" gradientUnits="userSpaceOnUse" gradientTransform="translate(91.4397 81.9697) rotate(90.956) scale(32.5108 40.4991)">
<stop stop-color="#8F92A7"/>
<stop offset="1" stop-color="#D9D9D9" stop-opacity="0"/>
</radialGradient>
<radialGradient id="paint2_radial_55_21" cx="0" cy="0" r="1" gradientUnits="userSpaceOnUse" gradientTransform="translate(82.6818 89.5018) rotate(82.57) scale(12.95 28.3539)">
<stop stop-color="#4457FF"/>
<stop offset="1" stop-color="#D9D9D9" stop-opacity="0"/>
</radialGradient>
</defs>
</svg>
