<svg width="167" height="81" viewBox="0 0 167 81" fill="none" xmlns="http://www.w3.org/2000/svg">
<g filter="url(#filter0_di_55_22)">
<path d="M1.46288 33.6517C2.17738 15.137 17.7657 0.707144 36.2803 1.42164L132.578 5.13785C151.093 5.85235 165.522 21.4407 164.808 39.9553C164.093 58.47 148.505 72.8999 129.99 72.1854L33.6929 68.4691C15.1782 67.7546 0.748382 52.1663 1.46288 33.6517Z" fill="#272727"/>
</g>
<g filter="url(#filter1_dii_55_22)">
<path d="M5.73516 33.8941C6.412 16.3551 21.1789 2.68566 38.7179 3.3625L130.57 6.90716C148.109 7.584 161.778 22.3509 161.102 39.8899C160.425 57.4289 145.658 71.0983 128.119 70.4215L36.2668 66.8768C18.7278 66.2 5.05831 51.4331 5.73516 33.8941Z" fill="url(#paint0_linear_55_22)"/>
</g>
<path d="M13.0819 35.0604C13.74 18.0087 28.0966 4.71899 45.1483 5.37703L131.384 8.70495C153.419 10.1878 161.725 23.7196 161.067 40.7713C160.409 57.823 146.416 69.5938 129.365 68.9358L42.7653 67.1267C25.7136 66.4686 12.2924 55.5209 13.0819 35.0604Z" fill="#F4F2F1"/>
<mask id="mask0_55_22" style="mask-type:alpha" maskUnits="userSpaceOnUse" x="13" y="5" width="149" height="64">
<path d="M13.0819 35.0604C13.74 18.0087 28.0966 4.71899 45.1483 5.37703L131.384 8.70495C153.419 10.1878 161.725 23.7196 161.067 40.7713C160.409 57.823 146.416 69.5938 129.365 68.9358L42.7653 67.1267C25.7136 66.4686 12.2924 55.5209 13.0819 35.0604Z" fill="#F4F2F1"/>
</mask>
<g mask="url(#mask0_55_22)">
<rect opacity="0.2" width="69.3966" height="185.464" transform="matrix(-0.0660098 0.997819 -0.999429 -0.033774 178.995 10.6111)" fill="url(#paint1_linear_55_22)"/>
</g>
<path d="M18.0969 35.6293C18.7022 19.9441 32.2864 7.73405 48.438 8.35736L130.122 11.5096C150.994 12.8969 158.876 25.3536 158.271 41.0387C157.666 56.7239 144.424 67.5372 128.273 66.9139L46.246 65.1584C30.0944 64.5351 17.3706 54.4501 18.0969 35.6293Z" fill="#FDFDFE"/>
<mask id="mask1_55_22" style="mask-type:alpha" maskUnits="userSpaceOnUse" x="18" y="8" width="141" height="59">
<path d="M18.0969 35.6293C18.7022 19.9441 32.2864 7.73405 48.438 8.35736L130.122 11.5096C150.994 12.8969 158.876 25.3536 158.271 41.0387C157.666 56.7239 144.424 67.5372 128.273 66.9139L46.246 65.1584C30.0944 64.5351 17.3706 54.4501 18.0969 35.6293Z" fill="#F0F1F1"/>
</mask>
<g mask="url(#mask1_55_22)">
<rect opacity="0.2" width="62.1019" height="185.464" transform="matrix(0.0821246 -0.996622 0.998753 0.0499191 12.1968 36.1152)" fill="url(#paint2_linear_55_22)"/>
</g>
<path d="M54.5017 43.1045L53.4897 39.7465L48.7728 39.5648L47.5229 42.8356L45.1382 42.7437L50.2167 30.3483L52.7767 30.447L56.8865 43.1963L54.5017 43.1045ZM52.0225 34.5271C51.982 34.3617 51.9205 34.1369 51.8377 33.8527C51.755 33.5685 51.6725 33.2785 51.5903 32.9827C51.5202 32.6756 51.4656 32.4218 51.4265 32.2213C51.359 32.4528 51.2727 32.7187 51.1674 33.0191C51.0739 33.3199 50.981 33.6031 50.8888 33.8688C50.8083 34.135 50.742 34.3373 50.6898 34.4758L49.4609 37.6596L52.9853 37.7954L52.0225 34.5271ZM63.4298 33.7549C64.4936 33.7959 65.313 34.1026 65.888 34.675C66.4747 35.2478 66.7444 36.148 66.6971 37.3754L66.4586 43.5651L64.2493 43.48L64.4708 37.7286C64.4983 37.0156 64.3785 36.4783 64.1115 36.1168C63.8449 35.7436 63.4077 35.5453 62.7998 35.5218C61.9114 35.4876 61.2927 35.7448 60.9437 36.2933C60.5953 36.8301 60.4008 37.6245 60.3602 38.6766L60.1812 43.3233L57.9718 43.2382L58.338 33.7344L60.0389 33.7999L60.3065 35.057L60.4293 35.0617C60.6523 34.7425 60.9198 34.4836 61.2319 34.2849C61.5439 34.0862 61.8888 33.9473 62.2664 33.8681C62.6446 33.7774 63.0323 33.7396 63.4298 33.7549ZM71.447 34.2394L71.0808 43.7432L68.8714 43.6581L69.2376 34.1543L71.447 34.2394ZM70.4835 30.5321C70.8108 30.5447 71.0938 30.6434 71.3325 30.8282C71.5717 31.0013 71.683 31.3042 71.6663 31.7367C71.6501 32.1575 71.5156 32.4567 71.2629 32.6343C71.0107 32.8002 70.7209 32.8768 70.3936 32.8642C70.0546 32.8512 69.7657 32.7522 69.527 32.5674C69.3004 32.3714 69.1952 32.0629 69.2114 31.6421C69.2281 31.2096 69.3565 30.916 69.5966 30.7613C69.8488 30.5955 70.1445 30.519 70.4835 30.5321ZM84.8171 34.5789C85.8925 34.6204 86.6885 34.9261 87.2051 35.4963C87.7334 36.0669 87.9738 36.9659 87.9265 38.1933L87.6881 44.383L85.4787 44.2979L85.701 38.529C85.728 37.8276 85.6197 37.2966 85.376 36.936C85.1328 36.5637 84.7306 36.3668 84.1695 36.3452C83.398 36.3154 82.8389 36.5456 82.4922 37.0357C82.1455 37.5257 81.9537 38.25 81.9168 39.2086L81.7263 44.1534L79.5169 44.0682L79.7392 38.2993C79.7572 37.8317 79.7138 37.4379 79.6091 37.1177C79.5043 36.7976 79.3322 36.5568 79.0925 36.3954C78.865 36.2227 78.5643 36.1292 78.1902 36.1148C77.6641 36.0945 77.2384 36.2069 76.9128 36.4519C76.5877 36.6852 76.3517 37.0391 76.2046 37.5134C76.0576 37.9877 75.9705 38.5756 75.9435 39.277L75.7645 43.9237L73.5551 43.8385L73.9213 34.3347L75.6221 34.4003L75.8898 35.6574L76.0125 35.6621C76.2239 35.3425 76.4739 35.0828 76.7625 34.8832C77.0629 34.6841 77.3902 34.5445 77.7445 34.4645C78.1109 34.3732 78.4753 34.3346 78.8377 34.3485C79.5508 34.376 80.1481 34.522 80.6296 34.7864C81.1116 35.0391 81.4656 35.4215 81.6917 35.9336L81.8671 35.9404C82.1792 35.4373 82.6027 35.079 83.1378 34.8654C83.6845 34.6524 84.2443 34.5568 84.8171 34.5789ZM94.2659 34.943C95.4934 34.9902 96.4123 35.2949 97.0229 35.857C97.6455 36.4078 97.935 37.2501 97.8914 38.384L97.6454 44.7667L96.0849 44.7066L95.6972 43.3746L95.627 43.3719C95.3451 43.7005 95.0535 43.9761 94.7523 44.1986C94.4631 44.4099 94.1297 44.5551 93.7521 44.6342C93.3856 44.7255 92.9394 44.761 92.4134 44.7407C91.8522 44.7191 91.3478 44.5943 90.9 44.3663C90.4639 44.1388 90.1256 43.8038 89.8851 43.3614C89.645 42.9072 89.5378 42.347 89.5635 41.6807C89.6013 40.6988 89.9862 39.976 90.7182 39.5125C91.4624 39.0378 92.5659 38.8052 94.029 38.8147L95.6792 38.8256L95.6975 38.3522C95.7209 37.7443 95.5914 37.3062 95.3091 37.0378C95.0268 36.7693 94.6226 36.625 94.0965 36.6047C93.6173 36.5862 93.1528 36.6386 92.7032 36.7617C92.2536 36.8849 91.8148 37.0319 91.3867 37.2027L90.7448 35.6326C91.2218 35.4052 91.7614 35.2269 92.3634 35.0979C92.9771 34.9694 93.6113 34.9177 94.2659 34.943ZM94.4679 40.1838C93.4963 40.1815 92.8176 40.3251 92.4318 40.6146C92.0465 40.8925 91.8441 41.2827 91.8248 41.7854C91.8077 42.2296 91.9297 42.5563 92.1909 42.7653C92.4521 42.9744 92.7932 43.0871 93.214 43.1033C93.8569 43.1281 94.4075 42.9678 94.8657 42.6225C95.3243 42.2656 95.5676 41.7247 95.5955 40.9999L95.6266 40.1934L94.4679 40.1838ZM103.807 43.406C104.088 43.4169 104.357 43.4038 104.616 43.367C104.876 43.3184 105.118 43.2634 105.343 43.2018L105.279 44.8501C105.041 44.9463 104.734 45.0222 104.357 45.0779C103.98 45.1454 103.587 45.1712 103.178 45.1554C102.64 45.1347 102.152 45.0281 101.715 44.8357C101.29 44.632 100.951 44.3028 100.699 43.8483C100.459 43.3941 100.355 42.7696 100.385 41.9747L100.576 37.0299L99.2957 36.9806L99.3328 36.0162L100.765 35.2987L101.544 33.3093L102.93 33.3626L102.849 35.4493L105.55 35.5533L105.485 37.2191L102.785 37.115L102.595 42.0423C102.578 42.4865 102.682 42.8242 102.907 43.0553C103.133 43.2747 103.433 43.3916 103.807 43.406ZM109.412 35.7021L109.045 45.2059L106.836 45.1208L107.202 35.617L109.412 35.7021ZM108.448 31.9948C108.775 32.0074 109.058 32.1061 109.297 32.2909C109.536 32.464 109.648 32.7668 109.631 33.1994C109.615 33.6202 109.48 33.9194 109.228 34.097C108.975 34.2629 108.686 34.3395 108.358 34.3269C108.019 34.3138 107.73 34.2149 107.492 34.0301C107.265 33.834 107.16 33.5256 107.176 33.1048C107.193 32.6722 107.321 32.3787 107.561 32.224C107.814 32.0581 108.109 31.9817 108.448 31.9948ZM120.19 40.8588C120.16 41.6537 120.027 42.351 119.794 42.9508C119.56 43.5505 119.236 44.059 118.822 44.4762C118.42 44.8822 117.928 45.1852 117.347 45.3852C116.777 45.574 116.148 45.6551 115.458 45.6286C114.804 45.6033 114.206 45.4749 113.664 45.2434C113.124 45.0001 112.657 44.6601 112.264 44.2236C111.883 43.7757 111.593 43.2436 111.395 42.6272C111.196 42.0107 111.112 41.3051 111.142 40.5102C111.183 39.4581 111.398 38.5766 111.789 37.8658C112.179 37.1433 112.721 36.6081 113.413 36.2602C114.118 35.901 114.938 35.7394 115.873 35.7754C116.761 35.8096 117.531 36.0325 118.183 36.4439C118.846 36.8441 119.357 37.4199 119.714 38.1712C120.072 38.9108 120.231 39.8067 120.19 40.8588ZM113.404 40.5973C113.379 41.2636 113.433 41.8394 113.566 42.3245C113.712 42.7984 113.944 43.1644 114.261 43.4225C114.591 43.681 115.019 43.8204 115.545 43.8407C116.082 43.8614 116.52 43.7553 116.857 43.5225C117.205 43.29 117.464 42.943 117.634 42.4812C117.805 42.0078 117.903 41.4379 117.928 40.7716C117.954 40.0936 117.894 39.5235 117.748 39.0613C117.614 38.5878 117.382 38.2277 117.052 37.9808C116.735 37.7227 116.313 37.5835 115.787 37.5633C114.992 37.5327 114.403 37.7792 114.02 38.303C113.648 38.8272 113.443 39.592 113.404 40.5973ZM127.398 36.2194C128.462 36.2604 129.281 36.5671 129.856 37.1395C130.443 37.7123 130.712 38.6125 130.665 39.8399L130.427 46.0296L128.217 45.9445L128.439 40.1931C128.466 39.4801 128.347 38.9428 128.08 38.5813C127.813 38.2081 127.376 38.0098 126.768 37.9864C125.879 37.9521 125.261 38.2093 124.912 38.7578C124.563 39.2946 124.369 40.089 124.328 41.1411L124.149 45.7878L121.94 45.7027L122.306 36.1989L124.007 36.2644L124.275 37.5215L124.397 37.5263C124.62 37.207 124.888 36.9481 125.2 36.7494C125.512 36.5507 125.857 36.4118 126.235 36.3327C126.613 36.2419 127 36.2041 127.398 36.2194Z" fill="#445266"/>
<defs>
<filter id="filter0_di_55_22" x="0.462628" y="0.421368" width="164.371" height="72.7642" filterUnits="userSpaceOnUse" color-interpolation-filters="sRGB">
<feFlood flood-opacity="0" result="BackgroundImageFix"/>
<feColorMatrix in="SourceAlpha" type="matrix" values="0 0 0 0 0 0 0 0 0 0 0 0 0 0 0 0 0 0 127 0" result="hardAlpha"/>
<feOffset dy="0.974872"/>
<feComposite in2="hardAlpha" operator="out"/>
<feColorMatrix type="matrix" values="0 0 0 0 1 0 0 0 0 1 0 0 0 0 1 0 0 0 0.4 0"/>
<feBlend mode="normal" in2="BackgroundImageFix" result="effect1_dropShadow_55_22"/>
<feBlend mode="normal" in="SourceGraphic" in2="effect1_dropShadow_55_22" result="shape"/>
<feColorMatrix in="SourceAlpha" type="matrix" values="0 0 0 0 0 0 0 0 0 0 0 0 0 0 0 0 0 0 127 0" result="hardAlpha"/>
<feOffset dx="-0.974872" dy="-0.974872"/>
<feGaussianBlur stdDeviation="0.974872"/>
<feComposite in2="hardAlpha" operator="arithmetic" k2="-1" k3="1"/>
<feColorMatrix type="matrix" values="0 0 0 0 0.580392 0 0 0 0 0.580392 0 0 0 0 0.611765 0 0 0 1 0"/>
<feBlend mode="normal" in2="shape" result="effect2_innerShadow_55_22"/>
</filter>
<filter id="filter1_dii_55_22" x="0.836819" y="1.38863" width="165.163" height="78.8056" filterUnits="userSpaceOnUse" color-interpolation-filters="sRGB">
<feFlood flood-opacity="0" result="BackgroundImageFix"/>
<feColorMatrix in="SourceAlpha" type="matrix" values="0 0 0 0 0 0 0 0 0 0 0 0 0 0 0 0 0 0 127 0" result="hardAlpha"/>
<feOffset dy="4.87436"/>
<feGaussianBlur stdDeviation="2.43718"/>
<feComposite in2="hardAlpha" operator="out"/>
<feColorMatrix type="matrix" values="0 0 0 0 0 0 0 0 0 0 0 0 0 0 0 0 0 0 0.15 0"/>
<feBlend mode="normal" in2="BackgroundImageFix" result="effect1_dropShadow_55_22"/>
<feBlend mode="normal" in="SourceGraphic" in2="effect1_dropShadow_55_22" result="shape"/>
<feColorMatrix in="SourceAlpha" type="matrix" values="0 0 0 0 0 0 0 0 0 0 0 0 0 0 0 0 0 0 127 0" result="hardAlpha"/>
<feOffset dx="0.974872" dy="-2.92462"/>
<feGaussianBlur stdDeviation="0.974872"/>
<feComposite in2="hardAlpha" operator="arithmetic" k2="-1" k3="1"/>
<feColorMatrix type="matrix" values="0 0 0 0 0.00569634 0 0 0 0 0.000370416 0 0 0 0 0.266667 0 0 0 0.25 0"/>
<feBlend mode="normal" in2="shape" result="effect2_innerShadow_55_22"/>
<feColorMatrix in="SourceAlpha" type="matrix" values="0 0 0 0 0 0 0 0 0 0 0 0 0 0 0 0 0 0 127 0" result="hardAlpha"/>
<feOffset dx="0.974872" dy="1.94974"/>
<feGaussianBlur stdDeviation="0.487436"/>
<feComposite in2="hardAlpha" operator="arithmetic" k2="-1" k3="1"/>
<feColorMatrix type="matrix" values="0 0 0 0 0.325 0 0 0 0 0 0 0 0 0 0 0 0 0 0.25 0"/>
<feBlend mode="normal" in2="effect2_innerShadow_55_22" result="effect3_innerShadow_55_22"/>
</filter>
<linearGradient id="paint0_linear_55_22" x1="26.5369" y1="1.97871" x2="22.8362" y2="67.6654" gradientUnits="userSpaceOnUse">
<stop stop-color="#C25643"/>
<stop offset="1" stop-color="#754C98"/>
</linearGradient>
<linearGradient id="paint1_linear_55_22" x1="64.7313" y1="91.641" x2="8.16431" y2="91.641" gradientUnits="userSpaceOnUse">
<stop/>
<stop offset="1" stop-color="#D9D9D9" stop-opacity="0"/>
</linearGradient>
<linearGradient id="paint2_linear_55_22" x1="57.927" y1="91.641" x2="7.30611" y2="91.641" gradientUnits="userSpaceOnUse">
<stop/>
<stop offset="1" stop-color="#D9D9D9" stop-opacity="0"/>
</linearGradient>
</defs>
</svg>
