<svg width="116" height="74" viewBox="0 0 116 74" fill="none" xmlns="http://www.w3.org/2000/svg">
<g filter="url(#filter0_di_55_6)">
<path d="M2.61464 32.1245C3.73875 14.7885 18.4435 1.19756 38.7971 3.04789L83.613 5.85501C100.949 6.97912 114.091 21.944 112.967 39.2801L112.791 42.0024C111.667 59.3385 98.4702 72.4351 75.8037 70.5848L31.7924 68.2719C14.4564 67.1478 1.31401 52.1829 2.43812 34.8469L2.61464 32.1245Z" fill="#505556"/>
</g>
<path d="M3.46965 37.2161C3.56529 20.0197 17.5832 6.15688 34.7796 6.25251L80.3981 6.50623C97.5945 6.60186 111.457 20.6198 111.362 37.8161C111.266 55.0125 97.2481 68.8753 80.0518 68.7797L34.4332 68.526C17.2369 68.4303 3.37401 54.4124 3.46965 37.2161Z" fill="url(#paint0_linear_55_6)"/>
<g filter="url(#filter1_i_55_6)">
<path d="M3.46965 37.2161C3.56529 20.0197 17.5832 6.15688 34.7796 6.25251L80.3981 6.50623C97.5945 6.60186 111.457 20.6198 111.362 37.8161C111.266 55.0125 97.2481 68.8753 80.0518 68.7797L34.4332 68.526C17.2369 68.4303 3.37401 54.4124 3.46965 37.2161Z" fill="url(#paint1_linear_55_6)"/>
</g>
<path d="M5.05696 39.1165C5.14679 22.9655 18.3125 9.94538 34.4635 10.0352L82.271 10.3011C98.422 10.3909 111.442 23.5567 111.352 39.7076C111.262 55.8586 98.0966 68.8787 81.9457 68.7889L34.1382 68.523C17.9872 68.4332 4.96714 55.2674 5.05696 39.1165Z" fill="#F6F7F7"/>
<mask id="mask0_55_6" style="mask-type:alpha" maskUnits="userSpaceOnUse" x="5" y="10" width="107" height="59">
<path d="M5.05696 39.1165C5.14679 22.9655 18.3125 9.94538 34.4635 10.0352L82.271 10.3011C98.422 10.3909 111.442 23.5567 111.352 39.7076C111.262 55.8586 98.0966 68.8787 81.9457 68.7889L34.1382 68.523C17.9872 68.4332 4.96714 55.2674 5.05696 39.1165Z" fill="#F6F7F7"/>
</mask>
<g mask="url(#mask0_55_6)">
<rect opacity="0.2" width="88.464" height="151.021" transform="matrix(-0.0323901 0.999475 -0.999535 -0.0305026 131.801 1.17236)" fill="url(#paint2_linear_55_6)"/>
<rect x="5.41349" y="10.0686" width="105.907" height="58.0988" rx="29.0494" transform="rotate(0.318651 5.41349 10.0686)" stroke="url(#paint3_linear_55_6)" stroke-width="0.389949"/>
</g>
<path d="M9.16367 40.6078C9.2433 26.2888 20.9157 14.7455 35.2348 14.8251L82.611 15.0886C96.93 15.1682 108.473 26.8407 108.394 41.1597C108.314 55.4787 96.6417 67.0221 82.3226 66.9424L34.9464 66.6789C20.6274 66.5993 9.08403 54.9269 9.16367 40.6078Z" fill="#F8F8F8"/>
<mask id="mask1_55_6" style="mask-type:alpha" maskUnits="userSpaceOnUse" x="9" y="14" width="100" height="53">
<path d="M9.16367 40.6078C9.2433 26.2888 20.9157 14.7455 35.2348 14.8251L82.611 15.0886C96.93 15.1682 108.473 26.8407 108.394 41.1597C108.314 55.4787 96.6417 67.0221 82.3226 66.9424L34.9464 66.6789C20.6274 66.5993 9.08403 54.9269 9.16367 40.6078Z" fill="#F2F2F2"/>
</mask>
<g mask="url(#mask1_55_6)">
<rect opacity="0.2" width="88.4639" height="151.021" transform="matrix(-0.0096079 -0.999954 0.999934 -0.0114962 -16.9719 50.7715)" fill="url(#paint4_linear_55_6)"/>
</g>
<path d="M46.0439 45.1068L45.1204 41.7234L40.41 41.4178L39.0746 44.6547L36.6931 44.5002L42.0955 32.2425L44.6521 32.4084L48.4254 45.2613L46.0439 45.1068ZM43.7909 36.4673C43.7548 36.3008 43.6992 36.0745 43.624 35.7883C43.5487 35.502 43.4739 35.2099 43.3994 34.912C43.3374 34.6032 43.2895 34.3481 43.2557 34.1466C43.1822 34.3763 43.0889 34.6398 42.9758 34.9373C42.8744 35.2355 42.7741 35.5162 42.675 35.7794C42.5875 36.0434 42.5159 36.2439 42.4601 36.381L41.1479 39.5314L44.6676 39.7597L43.7909 36.4673ZM55.127 35.9894C56.236 36.0614 57.1022 36.5337 57.7255 37.4065C58.3496 38.2676 58.609 39.5095 58.5037 41.1322C58.434 42.2062 58.2178 43.1007 57.8548 43.8157C57.4919 44.5307 57.0182 45.0568 56.4336 45.394C55.849 45.7312 55.1832 45.8756 54.436 45.8271C53.9807 45.7976 53.5818 45.7131 53.2391 45.5736C52.8972 45.4225 52.6098 45.2456 52.3768 45.0429C52.1445 44.8285 51.948 44.6048 51.7873 44.3716L51.6472 44.3625C51.6802 44.5757 51.6997 44.8173 51.7057 45.0873C51.7123 45.3456 51.7081 45.5915 51.693 45.825L51.443 49.6774L49.2367 49.5343L50.1251 35.8408L51.9112 35.9566L52.1446 37.2379L52.2496 37.2447C52.4422 36.9875 52.6678 36.7619 52.9266 36.5676C53.1978 36.3625 53.5127 36.2071 53.8713 36.1014C54.2415 35.9964 54.6601 35.9591 55.127 35.9894ZM54.3808 37.7346C53.8671 37.7013 53.4459 37.7795 53.117 37.9692C52.789 38.1472 52.5412 38.4418 52.3739 38.8529C52.2065 39.2641 52.0966 39.7845 52.044 40.4142L52.0258 40.6943C51.9819 41.3714 52.009 41.9476 52.1071 42.4229C52.2169 42.8989 52.4214 43.2698 52.7207 43.5354C53.0317 43.8017 53.4615 43.9527 54.0102 43.9883C54.4772 44.0186 54.8649 43.9148 55.1734 43.6769C55.4936 43.4398 55.7389 43.0923 55.9093 42.6344C56.0921 42.1656 56.2047 41.6043 56.2471 40.9506C56.3107 39.97 56.1907 39.2002 55.887 38.6412C55.5949 38.083 55.0929 37.7808 54.3808 37.7346ZM65.7382 36.6779C66.8472 36.7498 67.7134 37.2222 68.3367 38.0949C68.9608 38.956 69.2202 40.1979 69.1149 41.8206C69.0452 42.8946 68.8289 43.7891 68.466 44.5041C68.1031 45.2191 67.6294 45.7452 67.0448 46.0825C66.4602 46.4197 65.7943 46.564 65.0472 46.5156C64.5919 46.486 64.193 46.4015 63.8503 46.2621C63.5084 46.1109 63.221 45.934 62.9879 45.7313C62.7557 45.517 62.5592 45.2932 62.3984 45.06L62.2584 45.051C62.2914 45.2641 62.3109 45.5057 62.3168 45.7757C62.3235 46.0341 62.3193 46.28 62.3042 46.5134L62.0542 50.3658L59.8478 50.2227L60.7362 36.5292L62.5224 36.6451L62.7558 37.9263L62.8608 37.9331C63.0534 37.676 63.279 37.4503 63.5378 37.2561C63.809 37.0509 64.1239 36.8955 64.4824 36.7898C64.8527 36.6849 65.2713 36.6476 65.7382 36.6779ZM64.9919 38.4231C64.4783 38.3897 64.057 38.4679 63.7282 38.6576C63.4001 38.8356 63.1524 39.1302 62.9851 39.5414C62.8177 39.9525 62.7078 40.4729 62.6552 41.1026L62.637 41.3828C62.5931 42.0598 62.6202 42.636 62.7183 43.1113C62.8281 43.5874 63.0326 43.9582 63.3319 44.2238C63.6429 44.4901 64.0727 44.6411 64.6214 44.6767C65.0883 44.707 65.4761 44.6032 65.7846 44.3653C66.1048 44.1282 66.3501 43.7807 66.5204 43.3228C66.7033 42.854 66.8159 42.2928 66.8583 41.639C66.9219 40.6584 66.8019 39.8886 66.4982 39.3297C66.2061 38.7715 65.7041 38.4693 64.9919 38.4231ZM77.3716 44.3785C77.3307 45.0089 77.1441 45.5361 76.8118 45.96C76.4802 46.3722 76.0096 46.6699 75.3998 46.8531C74.8017 47.037 74.0766 47.1014 73.2244 47.0461C72.559 47.0029 71.99 46.9191 71.5174 46.7947C71.0448 46.6702 70.599 46.4948 70.18 46.2683L70.3015 44.3946C70.7541 44.6467 71.2615 44.8672 71.8236 45.0561C72.3858 45.2449 72.9121 45.3553 73.4024 45.3871C74.0094 45.4265 74.4532 45.3615 74.7339 45.1921C75.0145 45.0228 75.165 44.7805 75.1855 44.4653C75.1976 44.2785 75.156 44.1058 75.0608 43.9472C74.9656 43.7887 74.7715 43.6178 74.4786 43.4347C74.1864 43.2399 73.7393 42.994 73.1373 42.697C72.5461 42.4125 72.0542 42.1344 71.6615 41.8627C71.2805 41.5918 70.9959 41.2803 70.8078 40.9281C70.632 40.565 70.5612 40.1208 70.5953 39.5955C70.6506 38.7433 71.0308 38.1232 71.7359 37.7352C72.4418 37.3355 73.3492 37.1716 74.4582 37.2436C75.0419 37.2815 75.5868 37.3754 76.0929 37.5255C76.6114 37.6646 77.1254 37.8738 77.6348 38.1531L76.8287 39.7361C76.5452 39.5888 76.2605 39.4589 75.9747 39.3466C75.7014 39.2234 75.4207 39.1231 75.1326 39.0458C74.8562 38.9692 74.5721 38.9215 74.2803 38.9026C73.8016 38.8715 73.4348 38.9239 73.1798 39.0598C72.9256 39.184 72.7901 39.3745 72.7735 39.6313C72.7606 39.8298 72.8076 40.0086 72.9145 40.168C73.0338 40.3164 73.2403 40.4763 73.534 40.6478C73.8401 40.8083 74.2716 41.0239 74.8285 41.2945C75.3861 41.5534 75.8554 41.8183 76.2364 42.0892C76.6299 42.3492 76.9261 42.6615 77.1252 43.0261C77.3243 43.3907 77.4064 43.8415 77.3716 44.3785Z" fill="#445266"/>
<defs>
<filter id="filter0_di_55_6" x="-1.5284" y="2.87891" width="114.563" height="68.8552" filterUnits="userSpaceOnUse" color-interpolation-filters="sRGB">
<feFlood flood-opacity="0" result="BackgroundImageFix"/>
<feColorMatrix in="SourceAlpha" type="matrix" values="0 0 0 0 0 0 0 0 0 0 0 0 0 0 0 0 0 0 127 0" result="hardAlpha"/>
<feOffset dy="0.974872"/>
<feComposite in2="hardAlpha" operator="out"/>
<feColorMatrix type="matrix" values="0 0 0 0 1 0 0 0 0 1 0 0 0 0 1 0 0 0 0.25 0"/>
<feBlend mode="normal" in2="BackgroundImageFix" result="effect1_dropShadow_55_6"/>
<feBlend mode="normal" in="SourceGraphic" in2="effect1_dropShadow_55_6" result="shape"/>
<feColorMatrix in="SourceAlpha" type="matrix" values="0 0 0 0 0 0 0 0 0 0 0 0 0 0 0 0 0 0 127 0" result="hardAlpha"/>
<feOffset dx="-3.89949" dy="0.974872"/>
<feGaussianBlur stdDeviation="1.94974"/>
<feComposite in2="hardAlpha" operator="arithmetic" k2="-1" k3="1"/>
<feColorMatrix type="matrix" values="0 0 0 0 0.456254 0 0 0 0 0.372078 0 0 0 0 0.695833 0 0 0 0.25 0"/>
<feBlend mode="normal" in2="shape" result="effect2_innerShadow_55_6"/>
</filter>
<filter id="filter1_i_55_6" x="3.46912" y="6.25195" width="107.893" height="63.5032" filterUnits="userSpaceOnUse" color-interpolation-filters="sRGB">
<feFlood flood-opacity="0" result="BackgroundImageFix"/>
<feBlend mode="normal" in="SourceGraphic" in2="BackgroundImageFix" result="shape"/>
<feColorMatrix in="SourceAlpha" type="matrix" values="0 0 0 0 0 0 0 0 0 0 0 0 0 0 0 0 0 0 127 0" result="hardAlpha"/>
<feOffset dy="0.974872"/>
<feGaussianBlur stdDeviation="0.487436"/>
<feComposite in2="hardAlpha" operator="arithmetic" k2="-1" k3="1"/>
<feColorMatrix type="matrix" values="0 0 0 0 0.137674 0 0 0 0 0.0789932 0 0 0 0 0.8125 0 0 0 0.2 0"/>
<feBlend mode="normal" in2="shape" result="effect1_innerShadow_55_6"/>
</filter>
<linearGradient id="paint0_linear_55_6" x1="112.358" y1="37.6523" x2="1.75154" y2="35.1195" gradientUnits="userSpaceOnUse">
<stop stop-color="#A6A3F8"/>
<stop offset="0.50868" stop-color="#A090C6"/>
<stop offset="1" stop-color="#D67564"/>
</linearGradient>
<linearGradient id="paint1_linear_55_6" x1="112.358" y1="37.6523" x2="1.75154" y2="35.1195" gradientUnits="userSpaceOnUse">
<stop stop-color="#A6A3F8"/>
<stop offset="0.50868" stop-color="#A090C6"/>
<stop offset="1" stop-color="#D67564"/>
</linearGradient>
<linearGradient id="paint2_linear_55_6" x1="82.5168" y1="74.6223" x2="10.4075" y2="74.6223" gradientUnits="userSpaceOnUse">
<stop/>
<stop offset="1" stop-color="#D9D9D9" stop-opacity="0"/>
</linearGradient>
<linearGradient id="paint3_linear_55_6" x1="58.3681" y1="9.87256" x2="58.3681" y2="68.3613" gradientUnits="userSpaceOnUse">
<stop stop-color="white"/>
<stop offset="1" stop-color="white" stop-opacity="0"/>
</linearGradient>
<linearGradient id="paint4_linear_55_6" x1="82.5168" y1="74.6223" x2="10.4075" y2="74.6223" gradientUnits="userSpaceOnUse">
<stop/>
<stop offset="1" stop-color="#D9D9D9" stop-opacity="0"/>
</linearGradient>
</defs>
</svg>
