<svg width="154" height="78" viewBox="0 0 154 78" fill="none" xmlns="http://www.w3.org/2000/svg">
<path d="M2.5897 44.9705C1.21662 26.878 14.7703 11.0981 32.8628 9.725L115.605 3.44549C133.697 2.07241 149.477 15.6261 150.85 33.7186C152.223 51.811 138.67 67.591 120.577 68.9641L37.8351 75.2436C19.7427 76.6167 3.96278 63.0629 2.5897 44.9705Z" fill="#141111"/>
<mask id="mask0_55_8" style="mask-type:alpha" maskUnits="userSpaceOnUse" x="2" y="3" width="149" height="73">
<path d="M2.5897 44.9705C1.21662 26.878 14.7703 11.0981 32.8628 9.725L115.605 3.44549C133.697 2.07241 149.477 15.6261 150.85 33.7186C152.223 51.811 138.67 67.591 120.577 68.9641L37.8351 75.2436C19.7427 76.6167 3.96278 63.0629 2.5897 44.9705Z" fill="#141111"/>
</mask>
<g mask="url(#mask0_55_8)">
<rect opacity="0.4" width="88.464" height="151.021" transform="matrix(-0.997476 -0.0710065 0.0691227 -0.997608 73.7551 124.933)" fill="url(#paint0_linear_55_8)"/>
</g>
<g filter="url(#filter0_i_55_8)">
<path d="M6.26398 44.8538C5.16045 27.8574 18.0442 13.1845 35.0406 12.081L115.189 6.87723C132.185 5.7737 146.858 18.6574 147.961 35.6538C149.065 52.6502 136.181 67.3231 119.185 68.4266L39.0368 73.6304C22.0404 74.7339 7.3675 61.8502 6.26398 44.8538Z" fill="url(#paint1_linear_55_8)"/>
</g>
<g filter="url(#filter1_i_55_8)">
<path d="M10.3187 43.453C9.19494 26.1986 22.2717 11.3058 39.5265 10.189L114.78 5.31834C132.035 4.20154 146.934 17.2836 148.057 34.538C149.181 51.7923 136.104 66.6851 118.85 67.8019L43.5961 72.6726C26.3413 73.7894 11.4425 60.7073 10.3187 43.453Z" fill="#F4F4F4"/>
</g>
<mask id="mask1_55_8" style="mask-type:alpha" maskUnits="userSpaceOnUse" x="9" y="5" width="140" height="68">
<path d="M9.5907 43.5001C8.46692 26.2457 21.5437 11.353 38.7985 10.2362L114.781 5.31828C132.036 4.20149 146.934 17.2836 148.058 34.5379C149.182 51.7923 136.105 66.685 118.85 67.8018L42.8681 72.7197C25.6133 73.8365 10.7145 60.7544 9.5907 43.5001Z" fill="#F4F4F4"/>
</mask>
<g mask="url(#mask1_55_8)">
<rect opacity="0.2" width="77.1136" height="152.682" transform="matrix(-0.0617405 0.998092 -0.998213 -0.0597502 157.024 19.9966)" fill="url(#paint2_linear_55_8)"/>
<rect opacity="0.3" width="55.8904" height="125.965" transform="matrix(0.524794 -0.851229 0.852238 0.523154 39.6543 15.4451)" fill="url(#paint3_linear_55_8)"/>
</g>
<path d="M15.083 41.6411C14.0473 26.0984 25.8104 12.7013 41.3565 11.7179L116.174 6.98497C131.72 6.00154 145.162 17.8042 146.198 33.3469C147.233 48.8896 135.47 62.2867 119.924 63.2701L45.1068 68.003C29.5607 68.9864 16.1186 57.1838 15.083 41.6411Z" fill="#F9F9F9"/>
<mask id="mask2_55_8" style="mask-type:alpha" maskUnits="userSpaceOnUse" x="15" y="6" width="132" height="63">
<path d="M15.083 41.6411C14.0473 26.0984 25.8104 12.7013 41.3565 11.7179L116.174 6.98497C131.72 6.00154 145.162 17.8042 146.198 33.3469C147.233 48.8896 135.47 62.2867 119.924 63.2701L45.1068 68.003C29.5607 68.9864 16.1186 57.1838 15.083 41.6411Z" fill="#F4F4F4"/>
</mask>
<g mask="url(#mask2_55_8)">
<rect opacity="0.2" width="65.9184" height="153.137" transform="matrix(0.448124 -0.893972 0.901854 0.43204 26.5552 -1.49414)" fill="url(#paint4_linear_55_8)"/>
</g>
<path d="M47.4429 34.6585C48.5277 34.5762 49.4455 34.6121 50.1964 34.7664C50.9463 34.9089 51.5193 35.1939 51.9154 35.6214C52.3232 36.0481 52.5563 36.6463 52.6148 37.4162C52.651 37.8945 52.6021 38.3322 52.468 38.7296C52.3339 39.1269 52.1187 39.46 51.8223 39.7289C51.5376 39.9968 51.1709 40.1889 50.7221 40.3051L50.7288 40.3926C51.2016 40.4388 51.6272 40.5591 52.0056 40.7533C52.3948 40.9349 52.7099 41.2219 52.9508 41.6142C53.2026 41.994 53.3532 42.5106 53.4028 43.1638C53.4603 43.922 53.3286 44.5831 53.0077 45.1472C52.6868 45.7112 52.1987 46.1588 51.5433 46.4901C50.8997 46.8205 50.1171 47.0207 49.1955 47.0906L44.6287 47.4371L43.6809 34.9439L47.4429 34.6585ZM48.1266 39.7277C49.0131 39.6604 49.6091 39.4744 49.9145 39.1697C50.2315 38.8641 50.3693 38.4371 50.3277 37.8889C50.2852 37.329 50.0563 36.9416 49.6412 36.7267C49.226 36.5118 48.5809 36.4376 47.7061 36.5039L46.0613 36.6287L46.3069 39.8657L48.1266 39.7277ZM46.4436 41.668L46.7264 45.3949L48.7561 45.2409C49.6659 45.1719 50.2826 44.9491 50.606 44.5726C50.941 44.1953 51.0864 43.7149 51.0422 43.1317C51.0139 42.7584 50.9137 42.4434 50.7417 42.1866C50.5697 41.9298 50.2918 41.7456 49.9079 41.6339C49.5231 41.5106 49.0099 41.4733 48.3683 41.5219L46.4436 41.668ZM59.9247 36.5624C60.0647 36.5518 60.2284 36.5453 60.416 36.5428C60.6035 36.5403 60.7627 36.5517 60.8937 36.5769L60.8565 38.6387C60.7498 38.6234 60.6085 38.6165 60.4326 38.6181C60.2675 38.6071 60.1208 38.6065 59.9925 38.6163C59.6426 38.6428 59.3087 38.7268 58.9909 38.8682C58.684 38.9971 58.4106 39.1821 58.1707 39.4232C57.9417 39.6518 57.7642 39.9409 57.6382 40.2907C57.5239 40.6396 57.4844 41.0474 57.5198 41.514L57.8929 46.4308L55.6882 46.598L54.9687 37.1144L56.666 36.9857L57.1057 38.6065L57.2107 38.5986C57.3716 38.2461 57.5819 37.9251 57.8415 37.6356C58.1003 37.3344 58.4042 37.0884 58.7535 36.8977C59.1143 36.706 59.5048 36.5943 59.9247 36.5624ZM65.7325 36.1218C66.9573 36.0289 67.905 36.2268 68.5756 36.7156C69.257 37.1919 69.6406 37.9958 69.7265 39.1273L70.2097 45.4963L68.6524 45.6145L68.1154 44.3354L68.0454 44.3407C67.8028 44.6993 67.5445 45.0063 67.2706 45.2618C67.0075 45.5046 66.6928 45.6869 66.3266 45.8085C65.9729 45.9409 65.5336 46.0271 65.0087 46.0669C64.4488 46.1094 63.9334 46.0429 63.4626 45.8674C63.0034 45.6911 62.6291 45.3968 62.3397 44.9847C62.0494 44.5609 61.8791 44.0166 61.8286 43.3517C61.7543 42.3718 62.0543 41.6099 62.7287 41.066C63.4139 40.5096 64.4838 40.1527 65.9384 39.9954L67.5791 39.8181L67.5433 39.3457C67.4973 38.7391 67.3187 38.3186 67.0076 38.0841C66.6965 37.8496 66.2785 37.7522 65.7536 37.7921C65.2753 37.8283 64.8199 37.9333 64.3872 38.1069C63.9546 38.2805 63.5354 38.4766 63.1296 38.695L62.3129 37.2084C62.7609 36.928 63.2766 36.6894 63.86 36.4927C64.4551 36.295 65.0792 36.1714 65.7325 36.1218ZM66.5305 41.3055C65.565 41.414 64.9071 41.634 64.5568 41.9656C64.2056 42.2856 64.0491 42.6963 64.0871 43.1979C64.1208 43.6412 64.2793 43.9518 64.5626 44.1297C64.8459 44.3077 65.1976 44.3807 65.6175 44.3489C66.2591 44.3002 66.7878 44.0783 67.2036 43.683C67.6186 43.2761 67.7986 42.711 67.7437 41.9878L67.6827 41.1829L66.5305 41.3055ZM76.9639 35.2697C78.0254 35.1892 78.8744 35.4005 79.5109 35.9036C80.1591 36.4059 80.5296 37.2694 80.6226 38.4942L81.0912 44.6708L78.8865 44.8381L78.4511 39.0989C78.3971 38.3873 78.2169 37.8672 77.9103 37.5385C77.603 37.1981 77.146 37.0509 76.5394 37.097C75.6529 37.1642 75.0675 37.4902 74.7834 38.0749C74.4984 38.6479 74.3957 39.4594 74.4753 40.5092L74.8271 45.146L72.6224 45.3133L71.9029 35.8297L73.6002 35.7009L74.0094 36.9193L74.1319 36.9101C74.3171 36.5675 74.5533 36.2797 74.8407 36.0468C75.128 35.8138 75.4548 35.6365 75.821 35.5148C76.1863 35.3815 76.5673 35.2998 76.9639 35.2697ZM86.6441 44.4255C85.5476 44.5087 84.6243 44.1681 83.8741 43.4038C83.1347 42.6269 82.7035 41.4277 82.5805 39.8063C82.4575 38.1849 82.7087 36.934 83.3341 36.0535C83.9586 35.1614 84.8308 34.6729 85.9506 34.588C86.4172 34.5526 86.8303 34.5857 87.19 34.6875C87.5605 34.7767 87.882 34.9166 88.1546 35.1071C88.4271 35.2976 88.6606 35.5145 88.8551 35.7579L88.9601 35.7499C88.9127 35.5892 88.8586 35.3411 88.798 35.0055C88.7373 34.6699 88.6959 34.3562 88.6738 34.0646L88.4216 30.7401L90.6263 30.5728L91.6351 43.8709L89.9204 44.001L89.4237 42.7892L89.3362 42.7958C89.1807 43.0657 88.983 43.3212 88.7432 43.5623C88.5025 43.7918 88.2121 43.9839 87.8719 44.1388C87.5316 44.2936 87.1224 44.3892 86.6441 44.4255ZM87.1736 42.5903C87.9902 42.5284 88.5499 42.2513 88.8528 41.759C89.1557 41.2667 89.2713 40.5482 89.1996 39.6033L89.1784 39.3234C89.1005 38.2968 88.8779 37.5277 88.5106 37.0159C88.1549 36.5032 87.5396 36.28 86.6648 36.3464C85.9999 36.3968 85.5078 36.7157 85.1887 37.3031C84.8687 37.8788 84.7467 38.6682 84.8228 39.6714C84.8989 40.6746 85.1377 41.4249 85.5391 41.9224C85.9406 42.4199 86.4854 42.6425 87.1736 42.5903ZM95.5871 34.0329L96.3065 43.5165L94.1019 43.6837L93.3824 34.2001L95.5871 34.0329ZM94.2073 30.4595C94.5339 30.4348 94.8263 30.5006 95.0846 30.657C95.3419 30.8017 95.487 31.0898 95.5197 31.5214C95.5516 31.9414 95.4521 32.254 95.2213 32.4592C94.9896 32.6527 94.7105 32.7619 94.3838 32.7867C94.0455 32.8124 93.7473 32.747 93.4891 32.5906C93.2416 32.4217 93.1019 32.1272 93.0701 31.7073C93.0373 31.2757 93.1314 30.9694 93.3523 30.7884C93.584 30.5948 93.869 30.4852 94.2073 30.4595ZM103.117 33.2856C104.179 33.2051 105.028 33.4164 105.664 33.9195C106.312 34.4217 106.683 35.2853 106.776 36.5101L107.244 42.6867L105.04 42.8539L104.604 37.1148C104.55 36.4032 104.37 35.8831 104.064 35.5544C103.756 35.214 103.299 35.0668 102.693 35.1128C101.806 35.1801 101.221 35.5061 100.937 36.0908C100.652 36.6638 100.549 37.4752 100.628 38.5251L100.98 43.1619L98.7756 43.3292L98.0561 33.8456L99.7534 33.7168L100.163 34.9352L100.285 34.9259C100.47 34.5834 100.707 34.2956 100.994 34.0626C101.281 33.8297 101.608 33.6523 101.974 33.5307C102.34 33.3974 102.72 33.3157 103.117 33.2856ZM112.104 32.6038C112.699 32.5587 113.244 32.6346 113.74 32.8317C114.236 33.0287 114.665 33.3481 115.027 33.7899L115.115 33.7833L115.232 32.5425L117.069 32.4031L117.794 41.9567C117.862 42.8549 117.75 43.6202 117.457 44.2524C117.166 44.8963 116.694 45.4014 116.041 45.7677C115.389 46.134 114.555 46.3556 113.54 46.4326C112.864 46.4839 112.236 46.4846 111.657 46.4346C111.079 46.3964 110.526 46.2917 109.997 46.1207L109.859 44.3009C110.232 44.4251 110.615 44.5251 111.008 44.6009C111.413 44.6875 111.828 44.744 112.253 44.7705C112.677 44.7969 113.111 44.7933 113.554 44.7597C114.277 44.7048 114.81 44.4591 115.152 44.0225C115.506 43.585 115.654 42.9872 115.597 42.229L115.578 41.984C115.565 41.809 115.555 41.6045 115.549 41.3703C115.555 41.1352 115.558 40.9472 115.559 40.8064L115.489 40.8117C115.2 41.3264 114.831 41.7181 114.382 41.9868C113.932 42.2438 113.404 42.3953 112.797 42.4414C111.643 42.529 110.706 42.166 109.987 41.3523C109.268 40.5387 108.851 39.362 108.734 37.8222C108.655 36.784 108.733 35.8864 108.969 35.1294C109.217 34.3715 109.606 33.7788 110.137 33.3514C110.667 32.9123 111.322 32.6631 112.104 32.6038ZM112.818 34.3623C112.375 34.3959 112.005 34.5471 111.708 34.816C111.423 35.0723 111.216 35.4399 111.088 35.9189C110.972 36.397 110.94 36.986 110.994 37.6859C111.071 38.7124 111.305 39.4749 111.695 39.9733C112.085 40.4716 112.63 40.6943 113.329 40.6412C113.726 40.6111 114.061 40.5388 114.334 40.4242C114.606 40.298 114.821 40.1174 114.979 39.8825C115.148 39.6351 115.266 39.3328 115.333 38.9758C115.398 38.6071 115.412 38.1719 115.374 37.6704L115.349 37.3379C115.292 36.5797 115.164 35.9793 114.966 35.5368C114.767 35.0825 114.491 34.7633 114.137 34.579C113.794 34.3938 113.355 34.3216 112.818 34.3623Z" fill="#445266"/>
<defs>
<filter id="filter0_i_55_8" x="6.198" y="6.81128" width="141.829" height="70.7845" filterUnits="userSpaceOnUse" color-interpolation-filters="sRGB">
<feFlood flood-opacity="0" result="BackgroundImageFix"/>
<feBlend mode="normal" in="SourceGraphic" in2="BackgroundImageFix" result="shape"/>
<feColorMatrix in="SourceAlpha" type="matrix" values="0 0 0 0 0 0 0 0 0 0 0 0 0 0 0 0 0 0 127 0" result="hardAlpha"/>
<feOffset dy="4.87436"/>
<feGaussianBlur stdDeviation="1.94974"/>
<feComposite in2="hardAlpha" operator="arithmetic" k2="-1" k3="1"/>
<feColorMatrix type="matrix" values="0 0 0 0 0 0 0 0 0 0.22 0 0 0 0 1 0 0 0 0.25 0"/>
<feBlend mode="normal" in2="shape" result="effect1_innerShadow_55_8"/>
</filter>
<filter id="filter1_i_55_8" x="8.30172" y="4.27708" width="139.823" height="68.4619" filterUnits="userSpaceOnUse" color-interpolation-filters="sRGB">
<feFlood flood-opacity="0" result="BackgroundImageFix"/>
<feBlend mode="normal" in="SourceGraphic" in2="BackgroundImageFix" result="shape"/>
<feColorMatrix in="SourceAlpha" type="matrix" values="0 0 0 0 0 0 0 0 0 0 0 0 0 0 0 0 0 0 127 0" result="hardAlpha"/>
<feOffset dx="-1.94974" dy="-0.974872"/>
<feGaussianBlur stdDeviation="1.94974"/>
<feComposite in2="hardAlpha" operator="arithmetic" k2="-1" k3="1"/>
<feColorMatrix type="matrix" values="0 0 0 0 0 0 0 0 0 0 0 0 0 0 0 0 0 0 0.25 0"/>
<feBlend mode="normal" in2="shape" result="effect1_innerShadow_55_8"/>
</filter>
<linearGradient id="paint0_linear_55_8" x1="82.5168" y1="74.6223" x2="10.4075" y2="74.6223" gradientUnits="userSpaceOnUse">
<stop stop-color="#818181"/>
<stop offset="1" stop-color="#D9D9D9" stop-opacity="0"/>
</linearGradient>
<linearGradient id="paint1_linear_55_8" x1="75.1146" y1="9.47911" x2="79.1108" y2="71.0285" gradientUnits="userSpaceOnUse">
<stop stop-color="#7F67DC"/>
<stop offset="1" stop-color="#9B5973"/>
</linearGradient>
<linearGradient id="paint2_linear_55_8" x1="71.9295" y1="75.4431" x2="9.07218" y2="75.4431" gradientUnits="userSpaceOnUse">
<stop/>
<stop offset="1" stop-color="#D9D9D9" stop-opacity="0"/>
</linearGradient>
<linearGradient id="paint3_linear_55_8" x1="52.1331" y1="62.2414" x2="6.57535" y2="62.2414" gradientUnits="userSpaceOnUse">
<stop/>
<stop offset="1" stop-color="#D9D9D9" stop-opacity="0"/>
</linearGradient>
<linearGradient id="paint4_linear_55_8" x1="61.4869" y1="75.6677" x2="7.75511" y2="75.6677" gradientUnits="userSpaceOnUse">
<stop/>
<stop offset="1" stop-color="#D9D9D9" stop-opacity="0"/>
</linearGradient>
</defs>
</svg>
