<svg width="303" height="75" viewBox="0 0 303 75" fill="none" xmlns="http://www.w3.org/2000/svg">
<path d="M1.1237 41.3744C0.664668 22.909 15.2582 7.42431 33.7235 6.96142L266.918 1.11567C285.383 0.652782 300.728 15.3869 301.187 33.8524C301.646 52.3178 287.052 67.8025 268.587 68.2653L35.3928 74.1111C16.9275 74.574 1.58274 59.8398 1.1237 41.3744Z" fill="#312726"/>
<g filter="url(#filter0_i_55_16)">
<path d="M4.70866 43.2272C4.04545 26.1062 17.3871 11.6863 34.508 11.0195L266.999 1.96493C284.12 1.29815 298.537 14.637 299.2 31.758C299.863 48.8791 286.522 63.299 269.401 63.9658L36.9097 73.0203C19.7888 73.6871 5.37187 60.3483 4.70866 43.2272Z" fill="url(#paint0_linear_55_16)"/>
</g>
<g filter="url(#filter1_i_55_16)">
<path d="M4.63093 41.2217C4.01065 25.2088 16.4887 11.7222 32.5015 11.0986L267.887 1.93134C283.9 1.30771 297.383 13.7831 298.004 29.796C298.624 45.8089 286.146 59.2954 270.133 59.9191L34.7477 69.0863C18.7349 69.71 5.25122 57.2345 4.63093 41.2217Z" fill="#F2F3F4"/>
</g>
<mask id="mask0_55_16" style="mask-type:alpha" maskUnits="userSpaceOnUse" x="4" y="1" width="295" height="69">
<path d="M4.63093 41.2217C4.01065 25.2088 16.4887 11.7222 32.5015 11.0986L267.887 1.93134C283.9 1.30771 297.383 13.7831 298.004 29.796C298.624 45.8089 286.146 59.2954 270.133 59.9191L34.7477 69.0863C18.7349 69.71 5.25122 57.2345 4.63093 41.2217Z" fill="#F2F3F4"/>
</mask>
<g mask="url(#mask0_55_16)">
<rect opacity="0.25" width="79.3983" height="306.766" transform="matrix(0.00225912 0.999997 -0.999404 0.0345296 304.563 12.3835)" fill="url(#paint1_linear_55_16)"/>
<rect opacity="0.25" width="55.7301" height="306.766" transform="matrix(-0.0724672 -0.997371 0.994512 -0.104616 0.758423 65.1721)" fill="url(#paint2_linear_55_16)"/>
</g>
<path d="M7.74001 39.4277C7.18711 25.1543 18.3096 13.1329 32.5829 12.577L267.641 3.42245C281.914 2.86657 293.933 13.9868 294.486 28.2601C295.039 42.5335 283.917 54.555 269.643 55.1108L34.5851 64.2654C20.3119 64.8213 8.29291 53.701 7.74001 39.4277Z" fill="#FDFDFE"/>
<mask id="mask1_55_16" style="mask-type:alpha" maskUnits="userSpaceOnUse" x="7" y="3" width="288" height="62">
<path d="M7.74001 39.4277C7.18711 25.1543 18.3096 13.1329 32.5829 12.577L267.641 3.42245C281.914 2.86657 293.933 13.9868 294.486 28.2601C295.039 42.5335 283.917 54.555 269.643 55.1108L34.5851 64.2654C20.3119 64.8213 8.29291 53.701 7.74001 39.4277Z" fill="#F1F1F2"/>
</mask>
<g mask="url(#mask1_55_16)">
<rect opacity="0.1" width="40.786" height="292.234" transform="matrix(-0.0285492 -0.999592 0.99815 -0.0607929 3.8374 43.0857)" fill="url(#paint3_linear_55_16)"/>
</g>
<path d="M57.1687 44.7558L54.959 44.8306L54.5351 32.3087L61.6378 32.0683L61.7014 33.9448L56.8084 34.1105L56.933 37.7934L61.4928 37.639L61.5563 39.5155L56.9965 39.6699L57.1687 44.7558ZM68.4875 34.6808C68.6278 34.676 68.7917 34.6763 68.9792 34.6817C69.1666 34.6871 69.3253 34.7051 69.4551 34.7358L69.3316 36.7942C69.2256 36.7744 69.0847 36.7616 68.9089 36.7559C68.7444 36.738 68.5979 36.7313 68.4693 36.7357C68.1185 36.7475 67.7815 36.8175 67.458 36.9455C67.1459 37.0614 66.865 37.2348 66.6153 37.4656C66.3769 37.6844 66.1875 37.9659 66.0469 38.3101C65.9181 38.6539 65.8616 39.0596 65.8775 39.5273L66.0443 44.4554L63.8345 44.5302L63.5128 35.0248L65.2139 34.9672L65.5854 36.605L65.6906 36.6015C65.8662 36.2561 66.0898 35.9442 66.3613 35.6658C66.6324 35.3757 66.9464 35.1426 67.3033 34.9667C67.6719 34.7903 68.0666 34.695 68.4875 34.6808ZM79.175 39.2352C79.2019 40.0302 79.1204 40.7353 78.9305 41.3504C78.7407 41.9655 78.4543 42.496 78.0714 42.9421C77.6998 43.3761 77.2314 43.7138 76.666 43.9553C76.1119 44.1848 75.49 44.3112 74.8001 44.3345C74.1454 44.3567 73.5397 44.2719 72.9831 44.08C72.426 43.8765 71.9358 43.5712 71.5123 43.1641C71.1002 42.745 70.7727 42.2352 70.53 41.6347C70.2873 41.0343 70.1525 40.3365 70.1255 39.5415C70.0899 38.4892 70.2411 37.5945 70.579 36.8574C70.9165 36.1085 71.418 35.5355 72.0834 35.1385C72.7602 34.7293 73.5662 34.5089 74.5016 34.4772C75.3901 34.4471 76.1742 34.6137 76.8537 34.977C77.5445 35.3282 78.0952 35.8655 78.506 36.589C78.9164 37.3009 79.1394 38.1829 79.175 39.2352ZM72.3879 39.4649C72.4105 40.1313 72.5059 40.7017 72.6741 41.1759C72.8536 41.638 73.1112 41.9863 73.4469 42.2208C73.7942 42.4548 74.231 42.5629 74.7571 42.5451C75.2949 42.5269 75.7234 42.3895 76.0424 42.1329C76.3732 41.8759 76.6066 41.511 76.7428 41.0382C76.8786 40.5536 76.9352 39.9782 76.9126 39.3117C76.8897 38.6336 76.7886 38.0693 76.6095 37.6189C76.4417 37.1564 76.1843 36.8139 75.8373 36.5916C75.5016 36.3571 75.0707 36.2488 74.5446 36.2666C73.7495 36.2935 73.1799 36.582 72.8357 37.1321C72.5031 37.6818 72.3539 38.4594 72.3879 39.4649ZM86.0283 34.087C87.0923 34.051 87.9317 34.2976 88.5466 34.827C89.1732 35.3559 89.5072 36.2342 89.5488 37.4618L89.7583 43.6526L87.5486 43.7274L87.3539 37.9751C87.3297 37.2619 87.1714 36.7346 86.8789 36.3934C86.5861 36.0404 86.1357 35.8743 85.5277 35.8948C84.6391 35.9249 84.0406 36.2261 83.7323 36.7984C83.4235 37.359 83.2869 38.1654 83.3225 39.2177L83.4799 43.8651L81.2701 43.9399L80.9483 34.4345L82.6495 34.3769L83.0073 35.6114L83.1301 35.6073C83.3295 35.2728 83.5776 34.9952 83.8744 34.7744C84.1713 34.5537 84.5052 34.3902 84.8762 34.284C85.2468 34.1661 85.6308 34.1005 86.0283 34.087ZM95.8004 41.8503C96.081 41.8408 96.3492 41.8083 96.6048 41.7529C96.86 41.6857 97.0975 41.6133 97.3173 41.5356L97.3731 43.1841C97.1428 43.2973 96.8418 43.3953 96.4701 43.4781C96.0987 43.5726 95.7084 43.6268 95.2992 43.6406C94.7614 43.6588 94.2673 43.5878 93.8171 43.4274C93.3782 43.255 93.0168 42.9512 92.7328 42.516C92.4605 42.0804 92.311 41.4651 92.284 40.6701L92.1166 35.7245L90.8364 35.7678L90.8037 34.8032L92.1806 33.9841L92.8139 31.9435L94.1993 31.8966L94.27 33.9836L96.9708 33.8922L97.0272 35.5582L94.3264 35.6497L94.4932 40.5777C94.5082 41.022 94.6364 41.3513 94.8778 41.5655C95.1188 41.768 95.4263 41.863 95.8004 41.8503ZM97.9936 39.5989L97.9306 37.7399L102.385 37.5891L102.448 39.4481L97.9936 39.5989ZM107.742 33.352C108.596 33.3231 109.332 33.4737 109.952 33.8039C110.583 34.122 111.079 34.5968 111.44 35.2284C111.8 35.8482 111.996 36.6142 112.027 37.5261L112.065 38.6485L105.786 38.8611C105.839 39.7255 106.102 40.3896 106.574 40.8535C107.046 41.3058 107.685 41.5182 108.492 41.4909C109.111 41.47 109.659 41.3929 110.134 41.2598C110.621 41.1145 111.118 40.9163 111.624 40.665L111.684 42.4363C111.224 42.6743 110.744 42.8544 110.245 42.9767C109.746 43.0989 109.145 43.1719 108.444 43.1957C107.52 43.2269 106.69 43.0794 105.953 42.7532C105.228 42.4149 104.648 41.8903 104.214 41.1792C103.792 40.4678 103.563 39.5742 103.527 38.4986C103.49 37.4113 103.64 36.4932 103.978 35.7443C104.327 34.9834 104.822 34.4048 105.464 34.0085C106.106 33.6005 106.865 33.3816 107.742 33.352ZM107.797 34.983C107.213 35.0027 106.74 35.2119 106.379 35.6104C106.029 35.9968 105.832 36.5653 105.787 37.316L109.873 37.1776C109.858 36.7333 109.769 36.3442 109.605 36.0103C109.454 35.676 109.228 35.4203 108.93 35.2431C108.631 35.0542 108.253 34.9675 107.797 34.983ZM118.844 32.9761C119.908 32.9401 120.748 33.1868 121.363 33.7161C121.989 34.245 122.323 35.1233 122.365 36.3509L122.574 42.5417L120.365 42.6165L120.17 36.8642C120.146 36.151 119.987 35.6238 119.695 35.2825C119.402 34.9296 118.952 34.7634 118.344 34.784C117.455 34.814 116.857 35.1152 116.548 35.6875C116.239 36.2481 116.103 37.0545 116.139 38.1068L116.296 42.7543L114.086 42.8291L113.764 33.3237L115.465 33.2661L115.823 34.5006L115.946 34.4964C116.145 34.1619 116.394 33.8843 116.69 33.6636C116.987 33.4428 117.321 33.2793 117.692 33.1731C118.063 33.0553 118.447 32.9896 118.844 32.9761ZM128.133 42.5292C127.034 42.5664 126.125 42.1874 125.408 41.3924C124.702 40.5852 124.321 39.369 124.266 37.7439C124.211 36.1187 124.514 34.8794 125.176 34.0259C125.837 33.1608 126.729 32.7092 127.852 32.6712C128.319 32.6554 128.731 32.7058 129.086 32.8226C129.452 32.9272 129.768 33.0804 130.032 33.2822C130.296 33.4839 130.521 33.7104 130.705 33.9617L130.81 33.9581C130.769 33.7956 130.726 33.5455 130.679 33.2076C130.633 32.8697 130.604 32.5546 130.594 32.2623L130.482 28.9302L132.691 28.8554L133.143 42.184L131.424 42.2422L130.978 41.0107L130.891 41.0136C130.724 41.2768 130.516 41.5238 130.266 41.7546C130.016 41.9738 129.718 42.1536 129.371 42.2941C129.025 42.4346 128.612 42.5129 128.133 42.5292ZM128.739 40.7178C129.557 40.6901 130.128 40.4366 130.451 39.9575C130.774 39.4783 130.92 38.7652 130.888 37.8182L130.878 37.5376C130.843 36.5087 130.653 35.7309 130.308 35.2042C129.974 34.677 129.368 34.4283 128.492 34.458C127.825 34.4806 127.32 34.7786 126.977 35.3521C126.633 35.9138 126.478 36.6975 126.512 37.703C126.546 38.7085 126.753 39.4681 127.133 39.982C127.514 40.4959 128.049 40.7411 128.739 40.7178ZM142.965 42.0271C141.866 42.0643 140.958 41.6853 140.24 40.8903C139.534 40.0831 139.153 38.8669 139.098 37.2418C139.043 35.6166 139.347 34.3773 140.008 33.5238C140.67 32.6587 141.562 32.2071 142.684 32.1691C143.152 32.1533 143.563 32.2037 143.918 32.3205C144.285 32.4251 144.6 32.5783 144.864 32.7801C145.129 32.9818 145.353 33.2083 145.537 33.4596L145.642 33.456C145.602 33.2935 145.558 33.0434 145.511 32.7055C145.465 32.3676 145.437 32.0525 145.427 31.7602L145.314 28.4281L147.524 28.3533L147.975 41.6819L146.256 41.7401L145.811 40.5086L145.723 40.5115C145.556 40.7747 145.348 41.0217 145.098 41.2525C144.848 41.4717 144.55 41.6515 144.204 41.792C143.857 41.9325 143.444 42.0108 142.965 42.0271ZM143.571 40.2157C144.389 40.188 144.96 39.9345 145.283 39.4554C145.607 38.9762 145.752 38.2631 145.72 37.3161L145.711 37.0355C145.676 36.0066 145.486 35.2288 145.14 34.7021C144.806 34.1749 144.201 33.9262 143.324 33.9559C142.657 33.9785 142.153 34.2765 141.809 34.85C141.465 35.4117 141.31 36.1954 141.344 37.2009C141.378 38.2064 141.586 38.966 141.966 39.4799C142.346 39.9938 142.881 40.239 143.571 40.2157ZM153.943 31.788C154.796 31.7591 155.533 31.9097 156.153 32.2399C156.784 32.558 157.28 33.0328 157.641 33.6644C158.001 34.2843 158.197 35.0502 158.228 35.9621L158.266 37.0846L151.987 37.2971C152.04 38.1615 152.302 38.8257 152.775 39.2896C153.246 39.7418 153.886 39.9543 154.692 39.927C155.312 39.906 155.86 39.8289 156.335 39.6958C156.822 39.5506 157.318 39.3523 157.825 39.1011L157.885 40.8724C157.425 41.1103 156.945 41.2905 156.446 41.4127C155.947 41.5349 155.346 41.6079 154.645 41.6317C153.721 41.663 152.891 41.5155 152.154 41.1893C151.429 40.851 150.849 40.3263 150.415 39.6153C149.993 38.9038 149.764 38.0103 149.728 36.9346C149.691 35.8473 149.841 34.9292 150.179 34.1804C150.527 33.4194 151.023 32.8408 151.665 32.4445C152.307 32.0365 153.066 31.8177 153.943 31.788ZM153.998 33.419C153.413 33.4388 152.941 33.6479 152.579 34.0464C152.23 34.4328 152.032 35.0014 151.988 35.752L156.074 35.6137C156.059 35.1694 155.97 34.7803 155.806 34.4464C155.654 34.1121 155.429 33.8563 155.13 33.6791C154.831 33.4903 154.454 33.4036 153.998 33.419ZM162.137 41.2025L158.202 31.8194L160.535 31.7404L162.614 37.1656C162.704 37.385 162.788 37.6279 162.867 37.8945C162.946 38.1493 163.013 38.4045 163.069 38.6602C163.136 38.9037 163.178 39.1188 163.196 39.3055L163.266 39.3031C163.283 39.1036 163.316 38.8801 163.366 38.6326C163.416 38.3734 163.472 38.114 163.533 37.8544C163.606 37.5944 163.674 37.3521 163.737 37.1276L165.445 31.5742L167.778 31.4952L164.487 41.123L162.137 41.2025ZM172.663 31.1543C173.516 31.1254 174.253 31.276 174.873 31.6062C175.504 31.9243 176 32.3991 176.361 33.0307C176.721 33.6506 176.917 34.4165 176.948 35.3284L176.986 36.4509L170.707 36.6634C170.76 37.5278 171.022 38.192 171.495 38.6559C171.966 39.1081 172.606 39.3206 173.412 39.2933C174.032 39.2723 174.58 39.1952 175.055 39.0621C175.542 38.9169 176.038 38.7186 176.545 38.4674L176.605 40.2387C176.145 40.4766 175.665 40.6568 175.166 40.779C174.667 40.9012 174.066 40.9742 173.365 40.998C172.441 41.0293 171.611 40.8818 170.874 40.5556C170.149 40.2173 169.569 39.6926 169.135 38.9816C168.713 38.2701 168.484 37.3766 168.448 36.3009C168.411 35.2136 168.561 34.2955 168.899 33.5467C169.248 32.7857 169.743 32.2071 170.385 31.8108C171.027 31.4028 171.786 31.184 172.663 31.1543ZM172.718 32.7853C172.133 32.8051 171.661 33.0142 171.3 33.4127C170.95 33.7991 170.753 34.3676 170.708 35.1183L174.794 34.98C174.779 34.5357 174.69 34.1466 174.526 33.8127C174.374 33.4784 174.149 33.2226 173.851 33.0454C173.552 32.8566 173.174 32.7699 172.718 32.7853ZM181.217 40.5566L179.007 40.6314L178.556 27.3028L180.766 27.228L181.217 40.5566ZM192.018 35.4153C192.045 36.2103 191.964 36.9154 191.774 37.5305C191.584 38.1456 191.297 38.6761 190.915 39.1222C190.543 39.5561 190.075 39.8939 189.509 40.1354C188.955 40.3649 188.333 40.4913 187.643 40.5146C186.989 40.5368 186.383 40.452 185.826 40.2601C185.269 40.0566 184.779 39.7513 184.356 39.3442C183.943 38.9251 183.616 38.4153 183.373 37.8148C183.13 37.2144 182.996 36.5166 182.969 35.7216C182.933 34.6693 183.084 33.7746 183.422 33.0375C183.76 32.2886 184.261 31.7156 184.927 31.3185C185.603 30.9094 186.409 30.6889 187.345 30.6573C188.233 30.6272 189.017 30.7938 189.697 31.1571C190.388 31.5083 190.938 32.0456 191.349 32.7691C191.76 33.481 191.983 34.363 192.018 35.4153ZM185.231 35.645C185.254 36.3114 185.349 36.8818 185.517 37.356C185.697 37.8181 185.954 38.1664 186.29 38.4008C186.637 38.6349 187.074 38.743 187.6 38.7252C188.138 38.707 188.567 38.5696 188.886 38.313C189.216 38.056 189.45 37.6911 189.586 37.2182C189.722 36.7337 189.778 36.1583 189.756 35.4918C189.733 34.8137 189.632 34.2494 189.453 33.799C189.285 33.3365 189.027 32.994 188.68 32.7717C188.345 32.5372 187.914 32.4289 187.388 32.4467C186.593 32.4736 186.023 32.7621 185.679 33.3122C185.346 33.8619 185.197 34.6395 185.231 35.645ZM198.784 30.2701C199.895 30.2325 200.803 30.6172 201.509 31.4244C202.215 32.2199 202.595 33.4302 202.651 35.0553C202.687 36.131 202.56 37.0424 202.269 37.7897C201.978 38.537 201.559 39.1072 201.01 39.5003C200.462 39.8934 199.813 40.1027 199.065 40.128C198.609 40.1434 198.204 40.0986 197.849 39.9936C197.494 39.8769 197.19 39.7291 196.938 39.5504C196.686 39.3599 196.469 39.1566 196.286 38.9404L196.145 38.9451C196.199 39.154 196.242 39.3925 196.275 39.6606C196.307 39.917 196.327 40.1622 196.335 40.396L196.466 44.2543L194.256 44.3291L193.792 30.6146L195.58 30.5541L195.939 31.8061L196.044 31.8025C196.21 31.5277 196.413 31.2809 196.651 31.0621C196.901 30.8313 197.199 30.6456 197.545 30.5051C197.903 30.3642 198.316 30.2859 198.784 30.2701ZM198.213 32.0803C197.699 32.0977 197.287 32.217 196.979 32.4381C196.67 32.6475 196.452 32.9651 196.326 33.3907C196.2 33.8164 196.142 34.3451 196.151 34.9769L196.161 35.2575C196.184 35.9356 196.268 36.5063 196.412 36.9696C196.568 37.4325 196.808 37.7814 197.132 38.0163C197.468 38.2507 197.911 38.3586 198.46 38.34C198.928 38.3242 199.303 38.1827 199.587 37.9156C199.882 37.6481 200.092 37.2781 200.217 36.8057C200.352 36.3212 200.409 35.7516 200.387 35.0968C200.354 34.1147 200.158 33.3605 199.801 32.8342C199.456 32.3074 198.926 32.0561 198.213 32.0803ZM215.304 29.7108C216.38 29.6744 217.196 29.9219 217.752 30.4532C218.32 30.9841 218.625 31.8634 218.666 33.091L218.876 39.2818L216.666 39.3566L216.471 33.5867C216.447 32.8852 216.301 32.3634 216.032 32.0214C215.762 31.6676 215.347 31.5003 214.786 31.5193C214.014 31.5454 213.473 31.8154 213.163 32.3292C212.852 32.843 212.713 33.5793 212.746 34.538L212.913 39.4836L210.704 39.5584L210.508 33.7885C210.492 33.3209 210.421 32.9312 210.293 32.6195C210.165 32.3077 209.976 32.08 209.726 31.9364C209.486 31.7806 209.179 31.709 208.805 31.7217C208.279 31.7395 207.863 31.8824 207.556 32.1503C207.248 32.4065 207.038 32.7765 206.926 33.2602C206.814 33.7439 206.769 34.3365 206.793 35.038L206.95 39.6855L204.741 39.7603L204.419 30.2549L206.12 30.1973L206.478 31.4318L206.601 31.4276C206.788 31.0935 207.019 30.8165 207.292 30.5966C207.578 30.3762 207.894 30.2133 208.242 30.1079C208.6 29.9904 208.961 29.9255 209.324 29.9133C210.037 29.8891 210.643 29.9915 211.142 30.2204C211.641 30.4376 212.022 30.7935 212.285 31.2879L212.46 31.2819C212.735 30.7576 213.131 30.3696 213.65 30.118C214.18 29.8659 214.731 29.7302 215.304 29.7108ZM224.789 29.3897C225.643 29.3608 226.38 29.5115 226.999 29.8416C227.631 30.1597 228.127 30.6346 228.487 31.2661C228.848 31.886 229.044 32.6519 229.074 33.5639L229.112 34.6863L222.834 34.8988C222.887 35.7632 223.149 36.4274 223.621 36.8913C224.093 37.3436 224.732 37.556 225.539 37.5287C226.159 37.5077 226.706 37.4307 227.182 37.2975C227.668 37.1523 228.165 36.9541 228.671 36.7028L228.731 38.4741C228.271 38.7121 227.792 38.8922 227.292 39.0144C226.793 39.1367 226.193 39.2097 225.491 39.2334C224.568 39.2647 223.738 39.1172 223.001 38.791C222.275 38.4527 221.696 37.928 221.262 37.217C220.84 36.5056 220.611 35.612 220.574 34.5364C220.537 33.449 220.688 32.531 221.025 31.7821C221.374 31.0212 221.87 30.4425 222.512 30.0462C223.153 29.6383 223.913 29.4194 224.789 29.3897ZM224.845 31.0207C224.26 31.0405 223.787 31.2497 223.426 31.6482C223.076 32.0346 222.879 32.6031 222.834 33.3537L226.921 33.2154C226.905 32.7711 226.816 32.382 226.653 32.0481C226.501 31.7138 226.276 31.4581 225.977 31.2809C225.678 31.092 225.301 31.0053 224.845 31.0207ZM235.892 29.0139C236.956 28.9779 237.795 29.2245 238.41 29.7539C239.037 30.2828 239.371 31.1611 239.412 32.3887L239.622 38.5795L237.412 38.6543L237.217 32.902C237.193 32.1888 237.035 31.6615 236.742 31.3203C236.449 30.9673 235.999 30.8012 235.391 30.8217C234.503 30.8518 233.904 31.153 233.596 31.7253C233.287 32.2859 233.15 33.0923 233.186 34.1446L233.343 38.7921L231.134 38.8669L230.812 29.3614L232.513 29.3039L232.871 30.5383L232.993 30.5342C233.193 30.1997 233.441 29.9221 233.738 29.7013C234.035 29.4806 234.369 29.3171 234.74 29.2109C235.11 29.093 235.494 29.0274 235.892 29.0139ZM245.664 36.7772C245.944 36.7677 246.213 36.7352 246.468 36.6798C246.723 36.6126 246.961 36.5402 247.181 36.4625L247.237 38.1111C247.006 38.2242 246.705 38.3222 246.333 38.405C245.962 38.4995 245.572 38.5537 245.163 38.5675C244.625 38.5857 244.131 38.5147 243.681 38.3543C243.242 38.1819 242.88 37.8781 242.596 37.4429C242.324 37.0073 242.174 36.392 242.147 35.597L241.98 30.6514L240.7 30.6947L240.667 29.7301L242.044 28.911L242.677 26.8704L244.063 26.8235L244.133 28.9105L246.834 28.8191L246.891 30.4851L244.19 30.5766L244.357 35.5046C244.372 35.9489 244.5 36.2782 244.741 36.4924C244.982 36.695 245.29 36.7899 245.664 36.7772Z" fill="#445266"/>
<defs>
<filter id="filter0_i_55_16" x="4.68494" y="0.966045" width="295.514" height="72.0781" filterUnits="userSpaceOnUse" color-interpolation-filters="sRGB">
<feFlood flood-opacity="0" result="BackgroundImageFix"/>
<feBlend mode="normal" in="SourceGraphic" in2="BackgroundImageFix" result="shape"/>
<feColorMatrix in="SourceAlpha" type="matrix" values="0 0 0 0 0 0 0 0 0 0 0 0 0 0 0 0 0 0 127 0" result="hardAlpha"/>
<feOffset dx="1.94974" dy="-1.94974"/>
<feGaussianBlur stdDeviation="0.487436"/>
<feComposite in2="hardAlpha" operator="arithmetic" k2="-1" k3="1"/>
<feColorMatrix type="matrix" values="0 0 0 0 0.0676042 0 0 0 0 0.0883438 0 0 0 0 0.275 0 0 0 0.25 0"/>
<feBlend mode="normal" in2="shape" result="effect1_innerShadow_55_16"/>
</filter>
<filter id="filter1_i_55_16" x="4.60876" y="1.90894" width="296.341" height="71.0992" filterUnits="userSpaceOnUse" color-interpolation-filters="sRGB">
<feFlood flood-opacity="0" result="BackgroundImageFix"/>
<feBlend mode="normal" in="SourceGraphic" in2="BackgroundImageFix" result="shape"/>
<feColorMatrix in="SourceAlpha" type="matrix" values="0 0 0 0 0 0 0 0 0 0 0 0 0 0 0 0 0 0 127 0" result="hardAlpha"/>
<feOffset dx="2.92462" dy="4.87436"/>
<feGaussianBlur stdDeviation="1.94974"/>
<feComposite in2="hardAlpha" operator="arithmetic" k2="-1" k3="1"/>
<feColorMatrix type="matrix" values="0 0 0 0 0 0 0 0 0 0 0 0 0 0 0 0 0 0 0.25 0"/>
<feBlend mode="normal" in2="shape" result="effect1_innerShadow_55_16"/>
</filter>
<linearGradient id="paint0_linear_55_16" x1="3.59861" y1="48.8479" x2="300.574" y2="37.2213" gradientUnits="userSpaceOnUse">
<stop stop-color="#F35633"/>
<stop offset="0.69553" stop-color="#6967AB"/>
<stop offset="1" stop-color="#6C87E3"/>
</linearGradient>
<linearGradient id="paint1_linear_55_16" x1="74.0606" y1="151.578" x2="9.34098" y2="151.578" gradientUnits="userSpaceOnUse">
<stop/>
<stop offset="1" stop-color="#D9D9D9" stop-opacity="0"/>
</linearGradient>
<linearGradient id="paint2_linear_55_16" x1="51.9835" y1="151.578" x2="6.55648" y2="151.578" gradientUnits="userSpaceOnUse">
<stop/>
<stop offset="1" stop-color="#D9D9D9" stop-opacity="0"/>
</linearGradient>
<linearGradient id="paint3_linear_55_16" x1="38.0441" y1="144.398" x2="4.79836" y2="144.398" gradientUnits="userSpaceOnUse">
<stop/>
<stop offset="1" stop-color="#D9D9D9" stop-opacity="0"/>
</linearGradient>
</defs>
</svg>
