<svg width="123" height="74" viewBox="0 0 123 74" fill="none" xmlns="http://www.w3.org/2000/svg">
<g filter="url(#filter0_d_55_12)">
<path d="M2.94783 33.3C4.03766 15.1168 19.6615 1.25995 37.8446 2.34978L83.7396 5.10056C101.923 6.19039 115.78 21.8142 114.69 39.9974C113.6 58.1805 97.9761 72.0374 79.7929 70.9476L33.898 68.1968C15.7149 67.107 1.85799 51.4831 2.94783 33.3Z" fill="#2C292A"/>
</g>
<path d="M6.28677 32.3141C7.79576 15.0353 23.0263 2.25136 40.3051 3.76035L89.1016 8.02185C106.38 9.53084 119.164 24.7613 117.655 42.0401C116.146 59.3189 100.916 72.1028 83.6371 70.5939L34.8405 66.3324C17.5617 64.8234 4.77778 49.5929 6.28677 32.3141Z" fill="url(#paint0_linear_55_12)"/>
<path fill-rule="evenodd" clip-rule="evenodd" d="M89.0211 8.94351L40.2246 4.68201C23.4548 3.21747 8.67297 15.6248 7.20843 32.3946C5.74389 49.1643 18.1512 63.9462 34.921 65.4107L83.7175 69.6722C100.487 71.1367 115.269 58.7294 116.734 41.9596C118.198 25.1899 105.791 10.408 89.0211 8.94351ZM40.3051 3.76035C23.0263 2.25136 7.79576 15.0353 6.28677 32.3141C4.77778 49.5929 17.5617 64.8234 34.8405 66.3324L83.6371 70.5939C100.916 72.1028 116.146 59.3189 117.655 42.0401C119.164 24.7613 106.38 9.53084 89.1016 8.02185L40.3051 3.76035Z" fill="url(#paint1_linear_55_12)"/>
<path fill-rule="evenodd" clip-rule="evenodd" d="M92.9676 13.7665L40.5223 9.1863C24.8032 7.81351 10.9475 19.4435 9.57472 35.1626C8.20194 50.8817 19.8319 64.7374 35.551 66.1102L87.9963 70.6904C103.715 72.0632 117.571 60.4332 118.944 44.7141C120.317 28.9949 108.687 15.1392 92.9676 13.7665ZM40.5706 8.6333C24.5461 7.23385 10.4212 19.0898 9.02173 35.1143C7.62227 51.1388 19.4782 65.2638 35.5027 66.6632L87.948 71.2434C103.973 72.6428 118.097 60.7869 119.497 44.7623C120.896 28.7378 109.04 14.6129 93.0159 13.2135L40.5706 8.6333Z" fill="url(#paint2_linear_55_12)" fill-opacity="0.2"/>
<path d="M9.02173 35.1143C10.4212 19.0898 24.5461 7.23385 40.5706 8.6333L93.0159 13.2135C109.04 14.6129 120.896 28.7378 119.497 44.7623C118.097 60.7869 103.973 72.6428 87.948 71.2434L35.5027 66.6632C19.4782 65.2638 7.62227 51.1388 9.02173 35.1143Z" fill="#F5F6F6"/>
<mask id="mask0_55_12" style="mask-type:alpha" maskUnits="userSpaceOnUse" x="8" y="8" width="112" height="64">
<path d="M9.02173 35.1143C10.4212 19.0898 24.5461 7.23385 40.5706 8.6333L93.0159 13.2135C109.04 14.6129 120.896 28.7378 119.497 44.7623C118.097 60.7869 103.973 72.6428 87.948 71.2434L35.5027 66.6632C19.4782 65.2638 7.62227 51.1388 9.02173 35.1143Z" fill="#F5F6F6"/>
</mask>
<g mask="url(#mask0_55_12)">
<rect opacity="0.15" width="74.1691" height="151.652" transform="matrix(-0.422369 0.906424 -0.909384 -0.415957 119.991 39.4028)" fill="url(#paint3_linear_55_12)"/>
<rect opacity="0.15" width="74.1691" height="151.652" transform="matrix(-0.2337 0.972309 -0.973935 -0.226827 136.975 21.8411)" fill="url(#paint4_linear_55_12)"/>
</g>
<path d="M13.1648 36.7577C14.4211 22.5216 26.9819 11.9786 41.2203 13.2092L92.2807 17.6224C106.519 18.8531 117.043 31.3913 115.787 45.6274C114.531 59.8636 101.97 70.4066 87.7315 69.176L36.671 64.7627C22.4327 63.5321 11.9086 50.9938 13.1648 36.7577Z" fill="#F7F7F7"/>
<mask id="mask1_55_12" style="mask-type:alpha" maskUnits="userSpaceOnUse" x="13" y="13" width="103" height="57">
<path d="M13.1648 36.7577C14.4211 22.5216 26.9819 11.9786 41.2203 13.2092L92.2807 17.6224C106.519 18.8531 117.043 31.3913 115.787 45.6274C114.531 59.8636 101.97 70.4066 87.7315 69.176L36.671 64.7627C22.4327 63.5321 11.9086 50.9938 13.1648 36.7577Z" fill="#EEEFEF"/>
</mask>
<g mask="url(#mask1_55_12)">
<rect opacity="0.15" width="80.1221" height="153.11" transform="matrix(0.288531 -0.957471 0.961053 0.276365 -10.8525 32.6831)" fill="url(#paint5_linear_55_12)"/>
</g>
<path d="M48.2408 44.7416L42.9951 44.2989L43.1028 43.0224L44.6538 42.5898L45.3961 33.7946L43.941 33.0907L44.0487 31.8142L49.2944 32.2569L49.1867 33.5334L47.6342 33.9835L46.892 42.7787L48.3485 43.4651L48.2408 44.7416ZM53.736 45.3815C52.8384 45.3057 52.0717 45.0708 51.4357 44.6766C50.8125 44.2718 50.3501 43.6986 50.0488 42.9571C49.7601 42.2048 49.6629 41.2692 49.7574 40.1501C49.8557 38.9844 50.1278 38.0564 50.5735 37.3661C51.0318 36.6652 51.6191 36.1747 52.3354 35.8947C53.0527 35.603 53.8543 35.4946 54.7402 35.5693C55.3347 35.6195 55.8602 35.7226 56.3166 35.8785C56.7731 36.0344 57.1576 36.2077 57.4702 36.3985L56.6772 38.075C56.3276 37.9046 55.9761 37.7575 55.6226 37.6337C55.2701 37.4983 54.9248 37.4164 54.5867 37.3878C54.0622 37.3436 53.6152 37.4232 53.2458 37.6269C52.8881 37.8315 52.6079 38.16 52.4054 38.6125C52.2038 39.0534 52.0735 39.6235 52.0145 40.323C51.9574 40.9991 51.9913 41.5713 52.1161 42.0397C52.2526 42.5091 52.4801 42.8746 52.7984 43.1363C53.1178 43.3863 53.5281 43.5325 54.0294 43.5748C54.5656 43.62 55.0431 43.5958 55.4619 43.502C55.8807 43.4082 56.2802 43.2658 56.6602 43.0748L56.4994 44.9807C56.1193 45.1717 55.7155 45.2961 55.288 45.354C54.8712 45.4244 54.3538 45.4336 53.736 45.3815ZM67.196 41.5514C67.1291 42.344 66.9651 43.0346 66.7041 43.6231C66.4431 44.2115 66.0963 44.7047 65.6635 45.1025C65.2434 45.4897 64.7385 45.77 64.1486 45.9432C63.5713 46.1058 62.9388 46.1581 62.2511 46.1001C61.5983 46.045 61.0068 45.8894 60.4766 45.6333C59.9474 45.3656 59.4965 45.0047 59.124 44.5506C58.764 44.0859 58.4989 43.5411 58.3286 42.9162C58.1582 42.2914 58.1065 41.5826 58.1734 40.7899C58.262 39.7408 58.5174 38.8701 58.9398 38.1779C59.3631 37.474 59.9286 36.964 60.6362 36.6481C61.3564 36.3214 62.1828 36.1975 63.1154 36.2762C64.0013 36.3509 64.7603 36.6087 65.3922 37.0494C66.0369 37.4795 66.5205 38.078 66.8432 38.8449C67.1669 39.6001 67.2845 40.5022 67.196 41.5514ZM60.429 40.9803C60.373 41.6447 60.4005 42.2223 60.5117 42.713C60.6356 43.1931 60.8504 43.5693 61.1561 43.8416C61.4735 44.115 61.8945 44.2738 62.4191 44.318C62.9553 44.3633 63.3969 44.2773 63.744 44.06C64.1027 43.8438 64.3775 43.5089 64.5684 43.0554C64.7603 42.5903 64.8842 42.0255 64.9403 41.361C64.9974 40.6849 64.9635 40.1126 64.8387 39.6442C64.7265 39.1652 64.5112 38.7948 64.1928 38.5331C63.8871 38.2608 63.4719 38.1025 62.9474 38.0582C62.1547 37.9913 61.555 38.2107 61.1484 38.7165C60.7534 39.2232 60.5137 39.9778 60.429 40.9803ZM74.6079 37.2461C75.6687 37.3356 76.4732 37.6794 77.0215 38.2774C77.5814 38.8765 77.8097 39.788 77.7064 41.012L77.1855 47.1844L74.9823 46.9984L75.4663 41.2632C75.5263 40.5521 75.4312 40.0099 75.181 39.6366C74.9317 39.2516 74.504 39.0335 73.8978 38.9824C73.0119 38.9076 72.3821 39.1362 72.0085 39.6682C71.6358 40.1885 71.4053 40.9733 71.3167 42.0224L70.9257 46.6561L68.7225 46.4701L69.5223 36.993L71.2184 37.1361L71.4284 38.4041L71.5508 38.4145C71.7881 38.1058 72.0672 37.8593 72.388 37.6751C72.7088 37.4908 73.0596 37.3678 73.4405 37.306C73.8224 37.2326 74.2115 37.2126 74.6079 37.2461ZM86.2754 45.1867C86.2222 45.8162 86.0254 46.3396 85.685 46.757C85.3455 47.1628 84.8692 47.4513 84.256 47.6226C83.6544 47.7949 82.9282 47.8451 82.0772 47.7733C81.4127 47.7172 80.8455 47.6224 80.3754 47.4888C79.9054 47.3552 79.463 47.1711 79.0484 46.9366L79.2063 45.0656C79.6539 45.3264 80.1569 45.5567 80.7153 45.7565C81.2737 45.9562 81.7977 46.0768 82.2873 46.1181C82.8935 46.1692 83.3385 46.1129 83.6224 45.949C83.9062 45.7851 84.0614 45.5458 84.088 45.2311C84.1037 45.0445 84.0655 44.8711 83.9734 44.7107C83.8813 44.5503 83.6906 44.3757 83.4013 44.1869C83.1129 43.9865 82.6707 43.732 82.0745 43.4234C81.489 43.1274 81.0026 42.8398 80.6152 42.5606C80.2396 42.2824 79.9611 41.9654 79.7798 41.6096C79.6111 41.2432 79.5489 40.7977 79.5932 40.2731C79.665 39.4221 80.0572 38.8095 80.7697 38.4353C81.4832 38.0494 82.3936 37.9031 83.501 37.9966C84.0839 38.0458 84.6269 38.1503 85.1299 38.3102C85.6456 38.4594 86.1554 38.6785 86.6594 38.9675L85.8227 40.5347C85.5421 40.3819 85.26 40.2465 84.9765 40.1287C84.7055 40.0001 84.4268 39.8944 84.1403 39.8116C83.8655 39.7297 83.5823 39.6764 83.2909 39.6518C82.813 39.6115 82.4452 39.6568 82.1876 39.7876C81.931 39.9069 81.7919 40.0947 81.7703 40.3512C81.7535 40.5493 81.7971 40.7291 81.9008 40.8905C82.0173 41.0412 82.2206 41.2051 82.5109 41.3822C82.8138 41.5487 83.2411 41.7726 83.7926 42.0539C84.3451 42.3236 84.8092 42.5976 85.1849 42.8758C85.5732 43.1434 85.8633 43.4614 86.0553 43.8298C86.2473 44.1982 86.3206 44.6505 86.2754 45.1867Z" fill="#445266"/>
<defs>
<filter id="filter0_d_55_12" x="1.91282" y="2.28955" width="112.837" height="69.6929" filterUnits="userSpaceOnUse" color-interpolation-filters="sRGB">
<feFlood flood-opacity="0" result="BackgroundImageFix"/>
<feColorMatrix in="SourceAlpha" type="matrix" values="0 0 0 0 0 0 0 0 0 0 0 0 0 0 0 0 0 0 127 0" result="hardAlpha"/>
<feOffset dx="-0.974872" dy="0.974872"/>
<feComposite in2="hardAlpha" operator="out"/>
<feColorMatrix type="matrix" values="0 0 0 0 1 0 0 0 0 1 0 0 0 0 1 0 0 0 0.3 0"/>
<feBlend mode="normal" in2="BackgroundImageFix" result="effect1_dropShadow_55_12"/>
<feBlend mode="normal" in="SourceGraphic" in2="effect1_dropShadow_55_12" result="shape"/>
</filter>
<linearGradient id="paint0_linear_55_12" x1="6.26252" y1="37.3826" x2="114.507" y2="42.471" gradientUnits="userSpaceOnUse">
<stop stop-color="#882F28"/>
<stop offset="0.50868" stop-color="#948CCF"/>
<stop offset="1" stop-color="#9FAAE7"/>
</linearGradient>
<linearGradient id="paint1_linear_55_12" x1="67.786" y1="2.22632" x2="59.2388" y2="68.4631" gradientUnits="userSpaceOnUse">
<stop stop-color="#2B18A0"/>
<stop offset="1" stop-opacity="0"/>
</linearGradient>
<linearGradient id="paint2_linear_55_12" x1="54.8356" y1="82.2535" x2="66.4001" y2="2.6894" gradientUnits="userSpaceOnUse">
<stop/>
<stop offset="1" stop-opacity="0"/>
</linearGradient>
<linearGradient id="paint3_linear_55_12" x1="69.183" y1="74.9338" x2="8.72578" y2="74.9338" gradientUnits="userSpaceOnUse">
<stop/>
<stop offset="1" stop-color="#D9D9D9" stop-opacity="0"/>
</linearGradient>
<linearGradient id="paint4_linear_55_12" x1="69.183" y1="74.9338" x2="8.72578" y2="74.9338" gradientUnits="userSpaceOnUse">
<stop/>
<stop offset="1" stop-color="#D9D9D9" stop-opacity="0"/>
</linearGradient>
<linearGradient id="paint5_linear_55_12" x1="74.7357" y1="75.6545" x2="9.42613" y2="75.6545" gradientUnits="userSpaceOnUse">
<stop/>
<stop offset="1" stop-color="#D9D9D9" stop-opacity="0"/>
</linearGradient>
</defs>
</svg>
