<svg width="241" height="172" viewBox="0 0 241 172" fill="none" xmlns="http://www.w3.org/2000/svg">
<g opacity="0.4" filter="url(#filter0_f_55_13)">
<path d="M211.21 118.974C208.329 155.674 165.545 139.281 109.227 131.863C52.9093 124.445 5.4821 87.8138 42.4904 69.1704C45.3717 32.4708 91.91 24.333 148.228 31.7511C204.546 39.1692 214.092 82.2746 211.21 118.974Z" fill="url(#paint0_radial_55_13)"/>
</g>
<g filter="url(#filter1_f_55_13)">
<path d="M48.5593 93.3512C85.0089 80.5493 120.099 83.9391 146.568 91.3348C173.037 98.7305 170.444 111.76 167.954 126.711C165.463 141.663 141.988 147.788 115.519 140.392C89.0499 132.997 57.2028 104.854 48.5593 93.3512Z" fill="url(#paint1_radial_55_13)" fill-opacity="0.2"/>
</g>
<g filter="url(#filter2_f_55_13)">
<path d="M208.7 96.2826C208.7 126.361 196.558 179.43 129.852 148.765C67.2826 120.003 30.1428 109.731 30.1428 79.6531C30.1428 49.575 79.9533 54.709 129.852 54.709C179.751 54.709 208.7 66.2044 208.7 96.2826Z" fill="url(#paint2_radial_55_13)" fill-opacity="0.2"/>
</g>
<defs>
<filter id="filter0_f_55_13" x="0.136639" y="0.00602341" width="240.777" height="171.228" filterUnits="userSpaceOnUse" color-interpolation-filters="sRGB">
<feFlood flood-opacity="0" result="BackgroundImageFix"/>
<feBlend mode="normal" in="SourceGraphic" in2="BackgroundImageFix" result="shape"/>
<feGaussianBlur stdDeviation="14.6231" result="effect1_foregroundBlur_55_13"/>
</filter>
<filter id="filter1_f_55_13" x="39.7855" y="75.9864" width="138.424" height="76.3175" filterUnits="userSpaceOnUse" color-interpolation-filters="sRGB">
<feFlood flood-opacity="0" result="BackgroundImageFix"/>
<feBlend mode="normal" in="SourceGraphic" in2="BackgroundImageFix" result="shape"/>
<feGaussianBlur stdDeviation="4.38693" result="effect1_foregroundBlur_55_13"/>
</filter>
<filter id="filter2_f_55_13" x="22.3438" y="46.5775" width="194.155" height="119.216" filterUnits="userSpaceOnUse" color-interpolation-filters="sRGB">
<feFlood flood-opacity="0" result="BackgroundImageFix"/>
<feBlend mode="normal" in="SourceGraphic" in2="BackgroundImageFix" result="shape"/>
<feGaussianBlur stdDeviation="3.89949" result="effect1_foregroundBlur_55_13"/>
</filter>
<radialGradient id="paint0_radial_55_13" cx="0" cy="0" r="1" gradientUnits="userSpaceOnUse" gradientTransform="translate(144.047 106.3) rotate(94.8093) scale(58.9139 90.0076)">
<stop stop-color="#8F92A7"/>
<stop offset="1" stop-color="#D9D9D9" stop-opacity="0"/>
</radialGradient>
<radialGradient id="paint1_radial_55_13" cx="0" cy="0" r="1" gradientUnits="userSpaceOnUse" gradientTransform="translate(120.676 106.617) rotate(-74.1183) scale(20.6567 37.8132)">
<stop stop-color="#FF6244"/>
<stop offset="1" stop-color="#D9D9D9" stop-opacity="0"/>
</radialGradient>
<radialGradient id="paint2_radial_55_13" cx="0" cy="0" r="1" gradientUnits="userSpaceOnUse" gradientTransform="translate(130.696 107.538) rotate(95.847) scale(41.4434 68.299)">
<stop stop-color="#D77D6C"/>
<stop offset="1" stop-color="#D9D9D9" stop-opacity="0"/>
</radialGradient>
</defs>
</svg>
