<svg width="296" height="180" viewBox="0 0 296 180" fill="none" xmlns="http://www.w3.org/2000/svg">
<g opacity="0.4" filter="url(#filter0_f_55_11)">
<path d="M265.358 124.789C261.351 164.185 206.015 147.01 133.069 139.591C60.1236 132.173 -1.08182 93.3331 47.027 72.9795C51.0333 33.5838 111.418 24.4084 184.363 31.8265C257.309 39.2447 269.364 85.3931 265.358 124.789Z" fill="url(#paint0_radial_55_11)"/>
</g>
<g filter="url(#filter1_f_55_11)">
<path d="M64.0658 103.035C111.277 90.2331 156.728 93.6229 191.011 101.019C225.295 108.414 221.937 121.444 218.711 136.395C215.486 151.347 185.079 157.472 150.795 150.076C116.511 142.681 75.2613 114.538 64.0658 103.035Z" fill="url(#paint1_radial_55_11)" fill-opacity="0.2"/>
</g>
<g filter="url(#filter2_f_55_11)">
<path d="M270.917 98.8843C270.917 132.352 255.189 191.401 168.783 157.281C87.734 125.277 39.6255 113.849 39.6255 80.3811C39.6255 46.9136 104.147 52.6261 168.783 52.6261C233.418 52.6261 270.917 65.4168 270.917 98.8843Z" fill="url(#paint2_radial_55_11)" fill-opacity="0.2"/>
</g>
<defs>
<filter id="filter0_f_55_11" x="0.669353" y="0.227459" width="294.614" height="178.775" filterUnits="userSpaceOnUse" color-interpolation-filters="sRGB">
<feFlood flood-opacity="0" result="BackgroundImageFix"/>
<feBlend mode="normal" in="SourceGraphic" in2="BackgroundImageFix" result="shape"/>
<feGaussianBlur stdDeviation="14.6231" result="effect1_foregroundBlur_55_11"/>
</filter>
<filter id="filter1_f_55_11" x="55.2921" y="85.6702" width="174.112" height="76.3175" filterUnits="userSpaceOnUse" color-interpolation-filters="sRGB">
<feFlood flood-opacity="0" result="BackgroundImageFix"/>
<feBlend mode="normal" in="SourceGraphic" in2="BackgroundImageFix" result="shape"/>
<feGaussianBlur stdDeviation="4.38693" result="effect1_foregroundBlur_55_11"/>
</filter>
<filter id="filter2_f_55_11" x="31.8265" y="44.4571" width="246.889" height="130.892" filterUnits="userSpaceOnUse" color-interpolation-filters="sRGB">
<feFlood flood-opacity="0" result="BackgroundImageFix"/>
<feBlend mode="normal" in="SourceGraphic" in2="BackgroundImageFix" result="shape"/>
<feGaussianBlur stdDeviation="3.89949" result="effect1_foregroundBlur_55_11"/>
</filter>
<radialGradient id="paint0_radial_55_11" cx="0" cy="0" r="1" gradientUnits="userSpaceOnUse" gradientTransform="translate(178.393 111.837) rotate(96.1911) scale(63.3924 116.306)">
<stop stop-color="#8F92A7"/>
<stop offset="1" stop-color="#D9D9D9" stop-opacity="0"/>
</radialGradient>
<radialGradient id="paint1_radial_55_11" cx="0" cy="0" r="1" gradientUnits="userSpaceOnUse" gradientTransform="translate(157.474 116.301) rotate(-69.7704) scale(21.1743 47.7801)">
<stop stop-color="#FF6244"/>
<stop offset="1" stop-color="#D9D9D9" stop-opacity="0"/>
</radialGradient>
<radialGradient id="paint2_radial_55_11" cx="0" cy="0" r="1" gradientUnits="userSpaceOnUse" gradientTransform="translate(169.876 111.408) rotate(96.7985) scale(46.1983 88.3076)">
<stop stop-color="#D77D6C"/>
<stop offset="1" stop-color="#D9D9D9" stop-opacity="0"/>
</radialGradient>
</defs>
</svg>
