<svg width="183" height="78" viewBox="0 0 183 78" fill="none" xmlns="http://www.w3.org/2000/svg">
<g filter="url(#filter0_d_55_10)">
<path d="M3.43423 33.729C4.52631 15.5083 20.1824 1.62286 38.4031 2.71494L149.016 9.34468C167.237 10.4368 181.122 26.0929 180.03 44.3135C178.938 62.5342 163.282 76.4197 145.061 75.3276L34.4483 68.6979C16.2276 67.6058 2.34215 51.9497 3.43423 33.729Z" fill="#1E1C1C"/>
</g>
<mask id="mask0_55_10" style="mask-type:alpha" maskUnits="userSpaceOnUse" x="3" y="2" width="178" height="74">
<path d="M3.43423 33.729C4.52631 15.5083 20.1824 1.62286 38.4031 2.71494L149.016 9.34468C167.237 10.4368 181.122 26.0929 180.03 44.3135C178.938 62.5342 163.282 76.4197 145.061 75.3276L34.4483 68.6979C16.2276 67.6058 2.34215 51.9497 3.43423 33.729Z" fill="#1E1C1C"/>
</mask>
<g mask="url(#mask0_55_10)">
<rect opacity="0.8" width="57.5073" height="183.923" transform="matrix(0.201947 -0.979397 0.982856 0.184373 -3.02661 36.708)" fill="url(#paint0_linear_55_10)"/>
<rect width="96.6817" height="86.5237" transform="matrix(-0.999146 -0.041324 0.0234224 -0.999725 91.7224 79.207)" fill="url(#paint1_linear_55_10)"/>
</g>
<g filter="url(#filter1_i_55_10)">
<path fill-rule="evenodd" clip-rule="evenodd" d="M151.328 13.573L38.8912 6.39588C22.4579 5.3469 8.26384 17.817 7.18794 34.2486C6.11204 50.6802 18.5617 64.851 34.995 65.8999L147.431 73.0771C163.865 74.1261 178.059 61.656 179.135 45.2244C180.211 28.7928 167.761 14.622 151.328 13.573ZM38.9517 5.4727C22.0084 4.39116 7.37394 17.2482 6.26466 34.1896C5.15537 51.1311 17.9913 65.7416 34.9346 66.8231L147.371 74.0003C164.314 75.0818 178.949 62.2248 180.058 45.2833C181.167 28.3419 168.331 13.7314 151.388 12.6498L38.9517 5.4727Z" fill="url(#paint2_linear_55_10)"/>
<path fill-rule="evenodd" clip-rule="evenodd" d="M151.328 13.573L38.8912 6.39588C22.4579 5.3469 8.26384 17.817 7.18794 34.2486C6.11204 50.6802 18.5617 64.851 34.995 65.8999L147.431 73.0771C163.865 74.1261 178.059 61.656 179.135 45.2244C180.211 28.7928 167.761 14.622 151.328 13.573ZM38.9517 5.4727C22.0084 4.39116 7.37394 17.2482 6.26466 34.1896C5.15537 51.1311 17.9913 65.7416 34.9346 66.8231L147.371 74.0003C164.314 75.0818 178.949 62.2248 180.058 45.2833C181.167 28.3419 168.331 13.7314 151.388 12.6498L38.9517 5.4727Z" fill="url(#paint3_linear_55_10)" fill-opacity="0.2"/>
</g>
<g filter="url(#filter2_i_55_10)">
<path d="M6.26466 34.1896C7.37394 17.2482 22.0084 4.39116 38.9517 5.4727L151.388 12.6498C168.331 13.7314 181.167 28.3419 180.058 45.2833C178.949 62.2248 164.314 75.0818 147.371 74.0003L34.9346 66.8231C17.9913 65.7416 5.15537 51.1311 6.26466 34.1896Z" fill="#F5F6F6"/>
</g>
<mask id="mask1_55_10" style="mask-type:alpha" maskUnits="userSpaceOnUse" x="6" y="5" width="175" height="70">
<path d="M6.26466 34.1896C7.37394 17.2482 22.0084 4.39116 38.9517 5.4727L151.388 12.6498C168.331 13.7314 181.167 28.3419 180.058 45.2833C178.949 62.2248 164.314 75.0818 147.371 74.0003L34.9346 66.8231C17.9913 65.7416 5.15537 51.1311 6.26466 34.1896Z" fill="#F5F6F6"/>
</mask>
<g mask="url(#mask1_55_10)">
<rect opacity="0.2" width="74.1723" height="232.924" transform="matrix(-0.119187 0.992872 -0.995122 -0.0986467 198.117 21.1636)" fill="url(#paint4_linear_55_10)"/>
<rect opacity="0.2" width="65.175" height="152.909" transform="matrix(-0.330994 -0.943633 0.940321 -0.34029 -28.6323 63.1565)" fill="url(#paint5_linear_55_10)"/>
<rect opacity="0.3" width="78.1398" height="151.373" transform="matrix(-0.950663 -0.310224 0.300209 -0.953873 53.6826 117.339)" fill="url(#paint6_linear_55_10)"/>
</g>
<path d="M10.088 34.549C11.0647 19.6325 23.9499 8.31224 38.868 9.2645L149.521 16.3278C164.439 17.28 175.74 30.1442 174.764 45.0607C173.787 59.9771 160.902 71.2974 145.984 70.3451L35.3311 63.2819C20.413 62.3296 9.11129 49.4654 10.088 34.549Z" fill="#FAFAFA"/>
<mask id="mask2_55_10" style="mask-type:alpha" maskUnits="userSpaceOnUse" x="10" y="9" width="165" height="62">
<path d="M10.088 34.549C11.0647 19.6325 23.9499 8.31224 38.868 9.2645L149.521 16.3278C164.439 17.28 175.74 30.1442 174.764 45.0607C173.787 59.9771 160.902 71.2974 145.984 70.3451L35.3311 63.2819C20.413 62.3296 9.11129 49.4654 10.088 34.549Z" fill="#EAEBEB"/>
</mask>
<g mask="url(#mask2_55_10)">
<rect opacity="0.15" width="73.3794" height="151.652" transform="matrix(-0.870622 -0.491953 0.485792 -0.874075 18.0918 115.909)" fill="url(#paint7_linear_55_10)"/>
</g>
<path d="M50.7532 42.7301L45.4983 42.4152L45.5749 41.1365L47.1149 40.6662L47.6429 31.8556L46.1711 31.1872L46.2477 29.9086L51.5026 30.2235L51.426 31.5022L49.885 31.9899L49.357 40.8006L50.8298 41.4514L50.7532 42.7301ZM54.6438 42.9632L52.4368 42.831L53.2345 29.5186L55.4416 29.6509L54.6438 42.9632ZM59.3226 43.2436L57.1155 43.1114L57.9133 29.799L60.1203 29.9313L59.3226 43.2436ZM70.7886 34.4028L70.2196 43.8966L68.4855 43.7927L68.2612 42.5487L68.1561 42.5424C67.938 42.8575 67.665 43.1107 67.3371 43.302C67.0099 43.4816 66.6567 43.607 66.2774 43.678C65.8974 43.7607 65.5089 43.7901 65.1119 43.7663C64.4112 43.7244 63.8114 43.5654 63.3122 43.2893C62.8131 43.0133 62.4443 42.6162 62.2058 42.098C61.968 41.5681 61.8733 40.9002 61.9216 40.0945L62.2932 33.8937L64.5002 34.026L64.1549 39.7888C64.1129 40.4895 64.2212 41.0292 64.4797 41.408C64.739 41.7751 65.1723 41.9769 65.7795 42.0133C66.375 42.049 66.8495 41.9543 67.2028 41.7294C67.5569 41.4928 67.8183 41.1393 67.9871 40.6689C68.1559 40.1985 68.2614 39.613 68.3033 38.9124L68.5815 34.2706L70.7886 34.4028ZM79.3108 41.6815C79.273 42.3121 79.089 42.8402 78.7588 43.2657C78.4293 43.6796 77.9601 43.9796 77.3512 44.1658C76.7541 44.3527 76.0292 44.4206 75.1768 44.3695C74.5112 44.3296 73.9418 44.2486 73.4686 44.1265C72.9954 44.0044 72.5487 43.8311 72.1286 43.6067L72.2409 41.7325C72.6947 41.9823 73.2031 42.2003 73.7662 42.3864C74.3293 42.5725 74.8561 42.6803 75.3466 42.7097C75.9538 42.746 76.3973 42.6789 76.6771 42.5081C76.9569 42.3374 77.1062 42.0944 77.1251 41.7791C77.1363 41.5922 77.0939 41.4197 76.9979 41.2616C76.9019 41.1035 76.707 40.9336 76.4132 40.752C76.12 40.5586 75.6717 40.3149 75.0682 40.0209C74.4757 39.7393 73.9824 39.4636 73.5884 39.1939C73.206 38.9249 72.9199 38.6148 72.73 38.2635C72.5525 37.9013 72.4795 37.4575 72.511 36.932C72.562 36.0795 72.9392 35.4575 73.6424 35.0661C74.3463 34.6629 75.2529 34.4946 76.3623 34.561C76.9461 34.596 77.4915 34.6873 77.9983 34.8349C78.5175 34.9715 79.0325 35.1781 79.5433 35.4548L78.745 37.0419C78.4607 36.8959 78.1755 36.7675 77.8891 36.6566C77.6152 36.5347 77.334 36.4358 77.0455 36.3599C76.7688 36.2847 76.4844 36.2384 76.1925 36.2209C75.7137 36.1922 75.3471 36.2464 75.0928 36.3835C74.8392 36.509 74.7047 36.7001 74.6893 36.957C74.6774 37.1555 74.7253 37.3342 74.833 37.493C74.953 37.6408 75.1603 37.7998 75.4548 37.9698C75.7617 38.1288 76.1943 38.3422 76.7525 38.6101C77.3114 38.8662 77.782 39.1288 78.1643 39.3978C78.559 39.6559 78.8568 39.9667 79.0577 40.3303C79.2586 40.694 79.3429 41.1443 79.3108 41.6815ZM84.6931 43.1643C84.9734 43.1811 85.2434 43.1738 85.5031 43.1425C85.7635 43.0995 86.0067 43.0496 86.2328 42.9929L86.1341 44.6394C85.8943 44.7305 85.5854 44.7999 85.2075 44.8476C84.829 44.9069 84.4353 44.9243 84.0266 44.8998C83.4894 44.8676 83.0042 44.7507 82.571 44.5489C82.1501 44.3362 81.8187 43.9999 81.5767 43.5401C81.3464 43.0809 81.255 42.4543 81.3026 41.6602L81.5986 36.7206L80.3199 36.644L80.3777 35.6806L81.8251 34.9939L82.6465 33.0215L84.0303 33.1044L83.9054 35.1889L86.6029 35.3505L86.5032 37.0146L83.8057 36.8529L83.5107 41.775C83.4841 42.2187 83.5809 42.5585 83.8012 42.7944C84.0221 43.0186 84.3195 43.1419 84.6931 43.1643ZM93.2389 35.5724C93.379 35.5808 93.5422 35.5964 93.7283 35.6193C93.9145 35.6422 94.0707 35.675 94.1971 35.7177L93.8816 37.7556C93.7779 37.7259 93.6388 37.7 93.4643 37.6778C93.3022 37.6447 93.157 37.6242 93.0285 37.6166C92.6782 37.5956 92.336 37.6337 92.0021 37.7308C91.6805 37.817 91.3846 37.9634 91.1144 38.1699C90.8566 38.3654 90.6416 38.6279 90.4695 38.9574C90.3091 39.2877 90.2149 39.6864 90.1869 40.1535L89.8919 45.0755L87.6849 44.9433L88.2538 35.4494L89.9529 35.5513L90.1695 37.2167L90.2746 37.223C90.4817 36.8955 90.7335 36.6059 91.0298 36.3541C91.3269 36.0907 91.6613 35.888 92.0331 35.7462C92.4166 35.6052 92.8185 35.5472 93.2389 35.5724ZM99.053 35.9208C100.279 35.9943 101.191 36.3185 101.79 36.8935C102.401 37.4574 102.672 38.3058 102.604 39.4385L102.222 45.8144L100.663 45.721L100.304 44.381L100.234 44.3768C99.9449 44.6994 99.6475 44.9687 99.3416 45.1848C99.048 45.3898 98.7116 45.5279 98.3323 45.5989C97.964 45.6823 97.5172 45.7083 96.9917 45.6768C96.4311 45.6432 95.9295 45.5077 95.4866 45.2702C95.0555 45.0334 94.7244 44.6913 94.4934 44.2438C94.2631 43.7847 94.1679 43.2223 94.2078 42.5567C94.2665 41.5757 94.6668 40.8614 95.4085 40.4136C96.1626 39.9549 97.2709 39.7459 98.7334 39.7867L100.383 39.8328L100.411 39.3598C100.448 38.7526 100.328 38.3118 100.051 38.0374C99.7746 37.763 99.3736 37.61 98.8481 37.5786C98.3694 37.5499 97.9039 37.5923 97.4518 37.7058C96.9996 37.8194 96.5577 37.957 96.1262 38.1186L95.5179 36.5352C95.9997 36.318 96.5429 36.1513 97.1475 36.0352C97.7639 35.9197 98.399 35.8816 99.053 35.9208ZM99.143 41.1648C98.1717 41.1418 97.4901 41.2708 97.0982 41.5521C96.707 41.8216 96.4964 42.2074 96.4663 42.7096C96.4397 43.1533 96.5548 43.4825 96.8115 43.6971C97.0681 43.9117 97.4067 44.0316 97.8271 44.0568C98.4693 44.0953 99.0232 43.9469 99.4886 43.6114C99.9548 43.2644 100.21 42.7288 100.253 42.0048L100.301 41.1991L99.143 41.1648ZM108.411 44.5856C108.692 44.6024 108.962 44.5952 109.221 44.5638C109.482 44.5209 109.725 44.471 109.951 44.4142L109.852 46.0607C109.612 46.1518 109.304 46.2212 108.926 46.2689C108.547 46.3282 108.153 46.3457 107.745 46.3212C107.208 46.289 106.722 46.172 106.289 45.9703C105.868 45.7575 105.537 45.4212 105.295 44.9614C105.065 44.5023 104.973 43.8757 105.021 43.0816L105.317 38.142L104.038 38.0654L104.096 37.102L105.543 36.4152L106.365 34.4428L107.748 34.5258L107.624 36.6102L110.321 36.7719L110.221 38.4359L107.524 38.2742L107.229 43.1963C107.202 43.6401 107.299 43.9799 107.519 44.2157C107.74 44.4399 108.038 44.5632 108.411 44.5856ZM114.179 37.003L113.61 46.4969L111.403 46.3646L111.972 36.8708L114.179 37.003ZM113.295 33.276C113.622 33.2956 113.903 33.4003 114.137 33.5902C114.373 33.7684 114.478 34.0735 114.452 34.5056C114.427 34.926 114.286 35.2222 114.029 35.3944C113.774 35.5548 113.482 35.6253 113.155 35.6057C112.817 35.5854 112.53 35.4803 112.295 35.2905C112.073 35.0896 111.974 34.779 111.999 34.3586C112.025 33.9265 112.16 33.6358 112.403 33.4863C112.659 33.3258 112.956 33.2557 113.295 33.276ZM124.845 42.3886C124.798 43.1827 124.65 43.877 124.404 44.4717C124.157 45.0663 123.823 45.5678 123.4 45.976C122.989 46.3733 122.491 46.6658 121.906 46.8534C121.332 47.03 120.701 47.0976 120.012 47.0563C119.358 47.0171 118.763 46.876 118.227 46.6329C117.692 46.3782 117.232 46.0283 116.849 45.5835C116.477 45.1276 116.199 44.5894 116.014 43.9689C115.828 43.3483 115.759 42.641 115.807 41.847C115.87 40.796 116.104 39.9194 116.509 39.217C116.915 38.503 117.468 37.9795 118.168 37.6464C118.88 37.3023 119.703 37.1583 120.637 37.2143C121.525 37.2675 122.29 37.5067 122.932 37.9319C123.587 38.3462 124.085 38.9327 124.427 39.6915C124.769 40.4386 124.908 41.3376 124.845 42.3886ZM118.066 41.9824C118.026 42.648 118.068 43.2248 118.191 43.7126C118.327 44.1895 118.551 44.5604 118.863 44.8252C119.187 45.0907 119.612 45.2392 120.137 45.2707C120.674 45.3029 121.114 45.2062 121.455 44.9806C121.809 44.7556 122.075 44.4142 122.255 43.9562C122.435 43.4865 122.546 42.9188 122.586 42.2532C122.626 41.5759 122.578 41.0046 122.442 40.5394C122.318 40.0632 122.094 39.6982 121.769 39.4444C121.457 39.1795 121.038 39.0314 120.513 38.9999C119.719 38.9523 119.125 39.1863 118.73 39.7017C118.348 40.2179 118.127 40.9781 118.066 41.9824ZM132.15 37.9042C133.213 37.9679 134.025 38.292 134.588 38.8765C135.162 39.4618 135.413 40.3674 135.339 41.5936L134.969 47.7768L132.762 47.6446L133.106 41.8992C133.149 41.1869 133.04 40.6472 132.781 40.28C132.523 39.9013 132.09 39.6937 131.483 39.6573C130.595 39.6041 129.971 39.848 129.61 40.3889C129.251 40.9181 129.039 41.7082 128.976 42.7592L128.698 47.401L126.491 47.2688L127.06 37.775L128.759 37.8768L129 39.1393L129.122 39.1467C129.352 38.8323 129.625 38.5791 129.941 38.3871C130.258 38.1951 130.605 38.0636 130.985 37.9926C131.365 37.9099 131.753 37.8804 132.15 37.9042ZM144.007 45.5585C143.97 46.1891 143.786 46.7172 143.455 47.1427C143.126 47.5566 142.657 47.8566 142.048 48.0428C141.451 48.2297 140.726 48.2976 139.873 48.2465C139.208 48.2066 138.638 48.1256 138.165 48.0035C137.692 47.8814 137.245 47.7082 136.825 47.4837L136.938 45.6095C137.391 45.8594 137.9 46.0774 138.463 46.2635C139.026 46.4495 139.553 46.5573 140.043 46.5867C140.65 46.6231 141.094 46.5559 141.374 46.3851C141.654 46.2144 141.803 45.9714 141.822 45.6561C141.833 45.4693 141.791 45.2968 141.695 45.1387C141.599 44.9806 141.404 44.8107 141.11 44.629C140.817 44.4356 140.368 44.192 139.765 43.898C139.172 43.6163 138.679 43.3407 138.285 43.071C137.903 42.8019 137.617 42.4918 137.427 42.1406C137.249 41.7783 137.176 41.3345 137.208 40.809C137.259 39.9565 137.636 39.3346 138.339 38.9431C139.043 38.5399 139.95 38.3716 141.059 38.4381C141.643 38.4731 142.188 38.5643 142.695 38.7119C143.214 38.8485 143.729 39.0551 144.24 39.3319L143.442 40.9189C143.157 40.7729 142.872 40.6445 142.586 40.5336C142.312 40.4117 142.031 40.3128 141.742 40.2369C141.465 40.1618 141.181 40.1154 140.889 40.0979C140.41 40.0692 140.044 40.1234 139.789 40.2605C139.536 40.386 139.401 40.5772 139.386 40.8341C139.374 41.0326 139.422 41.2112 139.53 41.37C139.65 41.5179 139.857 41.6768 140.151 41.8468C140.458 42.0058 140.891 42.2192 141.449 42.4871C142.008 42.7433 142.479 43.0058 142.861 43.2749C143.256 43.5329 143.554 43.8437 143.754 44.2074C143.955 44.571 144.04 45.0214 144.007 45.5585Z" fill="#445266"/>
<defs>
<filter id="filter0_d_55_10" x="0.449406" y="2.65479" width="179.641" height="73.708" filterUnits="userSpaceOnUse" color-interpolation-filters="sRGB">
<feFlood flood-opacity="0" result="BackgroundImageFix"/>
<feColorMatrix in="SourceAlpha" type="matrix" values="0 0 0 0 0 0 0 0 0 0 0 0 0 0 0 0 0 0 127 0" result="hardAlpha"/>
<feOffset dx="-2.92462" dy="0.974872"/>
<feComposite in2="hardAlpha" operator="out"/>
<feColorMatrix type="matrix" values="0 0 0 0 1 0 0 0 0 1 0 0 0 0 1 0 0 0 0.25 0"/>
<feBlend mode="normal" in2="BackgroundImageFix" result="effect1_dropShadow_55_10"/>
<feBlend mode="normal" in="SourceGraphic" in2="effect1_dropShadow_55_10" result="shape"/>
</filter>
<filter id="filter1_i_55_10" x="6.19775" y="5.40918" width="173.927" height="68.6545" filterUnits="userSpaceOnUse" color-interpolation-filters="sRGB">
<feFlood flood-opacity="0" result="BackgroundImageFix"/>
<feBlend mode="normal" in="SourceGraphic" in2="BackgroundImageFix" result="shape"/>
<feColorMatrix in="SourceAlpha" type="matrix" values="0 0 0 0 0 0 0 0 0 0 0 0 0 0 0 0 0 0 127 0" result="hardAlpha"/>
<feOffset dx="-0.974872"/>
<feComposite in2="hardAlpha" operator="arithmetic" k2="-1" k3="1"/>
<feColorMatrix type="matrix" values="0 0 0 0 0.92549 0 0 0 0 0.576471 0 0 0 0 0.435294 0 0 0 1 0"/>
<feBlend mode="normal" in2="shape" result="effect1_innerShadow_55_10"/>
</filter>
<filter id="filter2_i_55_10" x="6.19775" y="5.40918" width="173.927" height="68.6545" filterUnits="userSpaceOnUse" color-interpolation-filters="sRGB">
<feFlood flood-opacity="0" result="BackgroundImageFix"/>
<feBlend mode="normal" in="SourceGraphic" in2="BackgroundImageFix" result="shape"/>
<feColorMatrix in="SourceAlpha" type="matrix" values="0 0 0 0 0 0 0 0 0 0 0 0 0 0 0 0 0 0 127 0" result="hardAlpha"/>
<feOffset dx="-0.974872"/>
<feComposite in2="hardAlpha" operator="arithmetic" k2="-1" k3="1"/>
<feColorMatrix type="matrix" values="0 0 0 0 0.92549 0 0 0 0 0.576471 0 0 0 0 0.435294 0 0 0 1 0"/>
<feBlend mode="normal" in2="shape" result="effect1_innerShadow_55_10"/>
</filter>
<linearGradient id="paint0_linear_55_10" x1="53.6412" y1="90.8798" x2="6.76556" y2="90.8798" gradientUnits="userSpaceOnUse">
<stop stop-color="#454645"/>
<stop offset="1" stop-color="#D9D9D9" stop-opacity="0"/>
</linearGradient>
<linearGradient id="paint1_linear_55_10" x1="90.1821" y1="42.7529" x2="11.3743" y2="42.7529" gradientUnits="userSpaceOnUse">
<stop stop-color="#553F3B"/>
<stop offset="1" stop-color="#22201F" stop-opacity="0"/>
</linearGradient>
<linearGradient id="paint2_linear_55_10" x1="66.2685" y1="-0.761825" x2="67.776" y2="72.3237" gradientUnits="userSpaceOnUse">
<stop stop-color="white"/>
<stop offset="1" stop-color="white" stop-opacity="0"/>
</linearGradient>
<linearGradient id="paint3_linear_55_10" x1="93.0983" y1="90.8294" x2="92.9839" y2="20.9797" gradientUnits="userSpaceOnUse">
<stop/>
<stop offset="1" stop-opacity="0"/>
</linearGradient>
<linearGradient id="paint4_linear_55_10" x1="69.1859" y1="115.092" x2="8.72615" y2="115.092" gradientUnits="userSpaceOnUse">
<stop/>
<stop offset="1" stop-color="#D9D9D9" stop-opacity="0"/>
</linearGradient>
<linearGradient id="paint5_linear_55_10" x1="60.7935" y1="75.5551" x2="7.66765" y2="75.5551" gradientUnits="userSpaceOnUse">
<stop/>
<stop offset="1" stop-color="#D9D9D9" stop-opacity="0"/>
</linearGradient>
<linearGradient id="paint6_linear_55_10" x1="72.8867" y1="74.7961" x2="9.19291" y2="74.7961" gradientUnits="userSpaceOnUse">
<stop/>
<stop offset="1" stop-color="#D9D9D9" stop-opacity="0"/>
</linearGradient>
<linearGradient id="paint7_linear_55_10" x1="68.4463" y1="74.9338" x2="8.63287" y2="74.9338" gradientUnits="userSpaceOnUse">
<stop/>
<stop offset="1" stop-color="#D9D9D9" stop-opacity="0"/>
</linearGradient>
</defs>
</svg>
