<svg width="222" height="89" viewBox="0 0 222 89" fill="none" xmlns="http://www.w3.org/2000/svg">
<g filter="url(#filter0_d_55_4)">
<path d="M185.654 8.38868L47.3419 2.80933C47.2074 2.80933 45.6853 2.81011 45.5511 2.81168L45.4916 2.80933L45.4916 2.81243C27.055 3.05997 12.1857 18.0824 12.1857 36.5778C12.1857 54.9183 26.8069 69.8438 45.0291 70.3339L45.029 70.3463L183.341 74.9721C183.472 74.9721 184.529 74.9714 184.66 74.9699L184.729 74.9721L184.729 74.969C202.91 74.7215 217.572 59.9061 217.572 41.6662C217.572 23.7366 203.405 9.11602 185.654 8.38868Z" fill="#FDFDFE"/>
</g>
<path d="M185.654 8.38868L47.3419 2.80933C47.2074 2.80933 45.6853 2.81011 45.5511 2.81168L45.4916 2.80933L45.4916 2.81243C27.055 3.05997 12.1857 18.0824 12.1857 36.5778C12.1857 54.9183 26.8069 69.8438 45.0291 70.3339L45.029 70.3463L183.341 74.9721C183.472 74.9721 184.529 74.9714 184.66 74.9699L184.729 74.9721L184.729 74.969C202.91 74.7215 217.572 59.9061 217.572 41.6662C217.572 23.7366 203.405 9.11602 185.654 8.38868Z" fill="#9D9DA1"/>
<mask id="mask0_55_4" style="mask-type:alpha" maskUnits="userSpaceOnUse" x="12" y="2" width="206" height="73">
<path d="M185.654 8.38868L47.3419 2.80933C47.2074 2.80933 45.6853 2.81011 45.5511 2.81168L45.4916 2.80933L45.4916 2.81243C27.055 3.05997 12.1857 18.0824 12.1857 36.5778C12.1857 54.9183 26.8069 69.8438 45.0291 70.3339L45.029 70.3463L183.341 74.9721C183.472 74.9721 184.529 74.9714 184.66 74.9699L184.729 74.9721L184.729 74.969C202.91 74.7215 217.572 59.9061 217.572 41.6662C217.572 23.7366 203.405 9.11602 185.654 8.38868Z" fill="#5F5F6A"/>
</mask>
<g mask="url(#mask0_55_4)">
<circle cx="144.484" cy="32.4146" r="159.128" fill="url(#paint0_radial_55_4)"/>
<circle cx="158.361" cy="-48.0746" r="159.128" fill="url(#paint1_radial_55_4)"/>
<circle cx="114.879" cy="6.5101" r="159.128" fill="url(#paint2_radial_55_4)"/>
<circle opacity="0.7" cx="233.3" cy="31.4893" r="68.4622" fill="url(#paint3_radial_55_4)"/>
<circle cx="25.1382" cy="-38.823" r="113.795" fill="url(#paint4_radial_55_4)"/>
<g opacity="0.2" filter="url(#filter1_d_55_4)">
<path fill-rule="evenodd" clip-rule="evenodd" d="M183.665 10.7759L48.2025 6.5367C47.9985 6.52838 47.794 6.52198 47.589 6.5175L47.3417 6.50977L47.3417 6.51305C47.1878 6.51086 47.0336 6.50977 46.8791 6.50977C29.2512 6.50977 14.9609 20.8 14.9609 38.4279C14.9609 56.0559 29.2512 70.3461 46.8791 70.3461C47.1885 70.3461 47.4969 70.3417 47.8042 70.333L47.8043 70.3461L180.746 73.0301C181.283 73.0576 181.824 73.0716 182.367 73.0716C182.481 73.0716 182.595 73.071 182.709 73.0697L182.8 73.0716L182.8 73.0686C199.803 72.8371 213.515 58.9817 213.515 41.9237C213.515 25.1559 200.266 11.4827 183.665 10.8024L183.665 10.7759Z" fill="#D9D9D9"/>
</g>
<path fill-rule="evenodd" clip-rule="evenodd" d="M45.4915 2.81243C27.0549 3.06003 12.1857 18.0825 12.1857 36.5778C12.1857 54.9183 26.8069 69.8438 45.0291 70.3339L45.029 70.3463L183.341 74.9721C183.459 74.9721 184.322 74.9715 184.592 74.9703C184.623 74.9702 184.646 74.97 184.66 74.9699L184.729 74.9721L184.729 74.9703L184.729 74.969C202.91 74.7215 217.572 59.9061 217.572 41.6662C217.572 23.7366 203.405 9.11602 185.654 8.38868L47.3419 2.80933C47.2304 2.80933 46.1667 2.80987 45.7287 2.81094C45.638 2.81117 45.5741 2.81141 45.5511 2.81168L45.4916 2.80933L45.4916 2.81243C45.4915 2.81243 45.4915 2.81243 45.4915 2.81243ZM45.5619 3.73678L45.5382 3.73706L45.538 3.73705L45.504 3.73751C27.5728 3.97827 13.1108 18.5892 13.1108 36.5778C13.1108 54.4157 27.3315 68.9324 45.054 69.4091L45.9604 69.4334L45.9603 69.4518L183.357 74.047C183.542 74.0469 184.529 74.0462 184.649 74.0448L184.67 74.0445L184.67 74.0445L184.716 74.0439C202.392 73.8033 216.647 59.3994 216.647 41.6662C216.647 24.2351 202.873 10.0205 185.616 9.3131M185.616 9.31307L47.3233 3.73449C47.1024 3.73455 45.6847 3.73535 45.5619 3.73678" fill="url(#paint5_linear_55_4)" fill-opacity="0.2"/>
</g>
<path fill-rule="evenodd" clip-rule="evenodd" d="M180.89 10.7757L45.4273 6.53646C45.2232 6.52814 45.0187 6.52173 44.8137 6.51726L44.5664 6.50952L44.5665 6.51281C44.4125 6.51062 44.2583 6.50952 44.1038 6.50952C26.4759 6.50952 12.1857 20.7998 12.1857 38.4277C12.1857 56.0556 26.4759 70.3459 44.1038 70.3459C44.4133 70.3459 44.7216 70.3415 45.0289 70.3327L45.029 70.3459L177.971 73.0299C178.508 73.0574 179.048 73.0713 179.592 73.0713C179.706 73.0713 179.82 73.0707 179.934 73.0695L180.025 73.0713L180.025 73.0684C197.028 72.8368 210.74 58.9815 210.74 41.9235C210.74 25.1557 197.49 11.4825 180.89 10.8022L180.89 10.7757Z" fill="#F7F7F7"/>
<mask id="mask1_55_4" style="mask-type:alpha" maskUnits="userSpaceOnUse" x="12" y="6" width="199" height="68">
<path fill-rule="evenodd" clip-rule="evenodd" d="M180.89 10.7757L45.4273 6.53646C45.2232 6.52814 45.0187 6.52173 44.8137 6.51726L44.5664 6.50952L44.5665 6.51281C44.4125 6.51062 44.2583 6.50952 44.1038 6.50952C26.4759 6.50952 12.1857 20.7998 12.1857 38.4277C12.1857 56.0556 26.4759 70.3459 44.1038 70.3459C44.4133 70.3459 44.7216 70.3415 45.0289 70.3327L45.029 70.3459L177.971 73.0299C178.508 73.0574 179.048 73.0713 179.592 73.0713C179.706 73.0713 179.82 73.0707 179.934 73.0695L180.025 73.0713L180.025 73.0684C197.028 72.8368 210.74 58.9815 210.74 41.9235C210.74 25.1557 197.49 11.4825 180.89 10.8022L180.89 10.7757Z" fill="#F7F7F7"/>
</mask>
<g mask="url(#mask1_55_4)">
<rect x="4.78491" y="-1.81689" width="189.659" height="75.8635" fill="url(#paint6_linear_55_4)"/>
</g>
<path fill-rule="evenodd" clip-rule="evenodd" d="M183.668 10.7757L48.2052 6.53646C48.0012 6.52814 47.7967 6.52173 47.5917 6.51726L47.3444 6.50952L47.3444 6.51281C47.1905 6.51062 47.0363 6.50952 46.8818 6.50952C29.2539 6.50952 14.9636 20.7998 14.9636 38.4277C14.9636 56.0556 29.2539 70.3459 46.8818 70.3459C47.1912 70.3459 47.4996 70.3415 47.8069 70.3327L47.807 70.3459L180.749 73.0299C181.286 73.0574 181.826 73.0713 182.37 73.0713C182.484 73.0713 182.598 73.0707 182.712 73.0695L182.803 73.0713L182.803 73.0684C199.806 72.8368 213.518 58.9815 213.518 41.9235C213.518 25.1557 200.268 11.4825 183.668 10.8022L183.668 10.7757Z" fill="#F7F7F7"/>
<mask id="mask2_55_4" style="mask-type:alpha" maskUnits="userSpaceOnUse" x="14" y="6" width="200" height="68">
<path fill-rule="evenodd" clip-rule="evenodd" d="M183.668 10.7757L48.2052 6.53646C48.0012 6.52814 47.7967 6.52173 47.5917 6.51726L47.3444 6.50952L47.3444 6.51281C47.1905 6.51062 47.0363 6.50952 46.8818 6.50952C29.2539 6.50952 14.9636 20.7998 14.9636 38.4277C14.9636 56.0556 29.2539 70.3459 46.8818 70.3459C47.1912 70.3459 47.4996 70.3415 47.8069 70.3327L47.807 70.3459L180.749 73.0299C181.286 73.0574 181.826 73.0713 182.37 73.0713C182.484 73.0713 182.598 73.0707 182.712 73.0695L182.803 73.0713L182.803 73.0684C199.806 72.8368 213.518 58.9815 213.518 41.9235C213.518 25.1557 200.268 11.4825 183.668 10.8022L183.668 10.7757Z" fill="#F7F7F7"/>
</mask>
<g mask="url(#mask2_55_4)">
<circle cx="177.794" cy="-78.6054" r="159.128" fill="url(#paint7_radial_55_4)"/>
<circle cx="149.113" cy="96.2503" r="159.128" fill="url(#paint8_radial_55_4)"/>
<circle cx="60.2962" cy="96.2503" r="159.128" fill="url(#paint9_radial_55_4)"/>
<circle cx="202.771" cy="17.6111" r="172.081" fill="url(#paint10_radial_55_4)"/>
<circle cx="209.247" cy="2.80859" r="172.081" fill="url(#paint11_radial_55_4)"/>
<circle cx="150.963" cy="58.3185" r="159.128" fill="url(#paint12_radial_55_4)"/>
<path opacity="0.2" fill-rule="evenodd" clip-rule="evenodd" d="M46.5472 11.1503C46.8573 11.1402 47.1688 11.135 47.4814 11.135C48.3651 11.135 49.2392 11.1759 50.1018 11.2559L182.749 14.8357L182.749 14.8394C197.938 15.0823 210.175 27.2068 210.175 42.128C210.175 57.2012 197.688 69.4204 182.285 69.4204C181.89 69.4204 181.497 69.4124 181.106 69.3964L45.622 66.6449V66.5842C31.0855 65.632 19.5911 53.5968 19.5911 38.89C19.5911 24.1837 31.0847 12.1488 45.6204 11.1958C45.6209 11.1958 45.6215 11.1958 45.622 11.1957V11.135L46.3921 11.1558C46.4437 11.1538 46.4954 11.152 46.5472 11.1503ZM46.3871 10.2302C46.7502 10.2167 47.115 10.2099 47.4814 10.2099C48.3832 10.2099 49.2757 10.2511 50.1568 10.3319L183.681 13.9353L183.681 13.9431C198.93 14.6563 211.1 26.9849 211.1 42.128C211.1 57.7309 198.18 70.3456 182.285 70.3456C181.88 70.3456 181.478 70.3374 181.078 70.3212C181.074 70.3211 181.071 70.321 181.068 70.3208L44.6969 67.5515V67.4378C30.0922 66.0436 18.6659 53.7984 18.6659 38.89C18.6659 23.9816 30.0922 11.7364 44.6969 10.3421V10.1846L46.3871 10.2302Z" fill="url(#paint13_linear_55_4)"/>
<path fill-rule="evenodd" clip-rule="evenodd" d="M48.1675 7.46086C47.9693 7.45277 47.7706 7.44655 47.5715 7.4422L47.5627 7.44201L47.5156 7.4405L47.3313 7.43788C47.1817 7.43575 47.0319 7.43469 46.8818 7.43469C29.7648 7.43469 15.8888 21.3107 15.8888 38.4277C15.8888 55.5447 29.7648 69.4207 46.8818 69.4207C47.1824 69.4207 47.482 69.4164 47.7806 69.4079L48.7252 69.381L48.7256 69.4391L180.782 72.1052L180.796 72.1059C181.318 72.1326 181.842 72.1462 182.37 72.1462C182.481 72.1462 182.591 72.1456 182.702 72.1444L182.716 72.1442L182.719 72.1443L182.79 72.1433C199.288 71.9186 212.593 58.4747 212.593 41.9235C212.593 25.6539 199.737 12.3866 183.63 11.7266L182.73 11.6897L182.73 11.6719L48.1675 7.46086ZM183.668 10.7757L183.668 10.8022C200.268 11.4825 213.518 25.1557 213.518 41.9235C213.518 58.9815 199.806 72.8368 182.803 73.0684L182.803 73.0713L182.712 73.0695C182.704 73.0696 182.697 73.0696 182.69 73.0697C182.584 73.0708 182.477 73.0713 182.37 73.0713C181.826 73.0713 181.286 73.0574 180.749 73.0299L47.8073 70.3459L47.8069 70.3327C47.4996 70.3415 47.1912 70.3459 46.8818 70.3459C29.2539 70.3459 14.9636 56.0556 14.9636 38.4277C14.9636 20.9542 29.0046 6.76018 46.4192 6.5128C46.5732 6.51062 46.7273 6.50952 46.8818 6.50952C46.9787 6.50952 47.0756 6.50995 47.1723 6.51082C47.2297 6.51133 47.287 6.51199 47.3443 6.5128C47.3443 6.5128 47.3443 6.5128 47.3443 6.5128L47.3444 6.50952L47.5917 6.51726C47.7967 6.52173 48.0012 6.52814 48.2052 6.53646L183.668 10.7757Z" fill="url(#paint14_linear_55_4)"/>
</g>
<path fill-rule="evenodd" clip-rule="evenodd" d="M182.746 14.8359L50.0983 11.2562C49.2356 11.1762 48.3615 11.1353 47.4778 11.1353C47.1131 11.1353 46.7499 11.1422 46.3885 11.156L45.6185 11.1353V11.196C31.082 12.1481 19.5875 24.1833 19.5875 38.8902C19.5875 53.597 31.082 65.6323 45.6185 66.5844V66.6451L181.102 69.3967C181.493 69.4126 181.886 69.4206 182.281 69.4206C197.684 69.4206 210.171 57.2014 210.171 42.1283C210.171 27.207 197.935 15.0825 182.746 14.8396L182.746 14.8359Z" fill="#FDFDFE"/>
<mask id="mask3_55_4" style="mask-type:alpha" maskUnits="userSpaceOnUse" x="19" y="11" width="192" height="59">
<path fill-rule="evenodd" clip-rule="evenodd" d="M182.746 14.8359L50.0983 11.2562C49.2356 11.1762 48.3615 11.1353 47.4778 11.1353C47.1131 11.1353 46.7499 11.1422 46.3885 11.156L45.6185 11.1353V11.196C31.082 12.1481 19.5875 24.1833 19.5875 38.8902C19.5875 53.597 31.082 65.6323 45.6185 66.5844V66.6451L181.102 69.3967C181.493 69.4126 181.886 69.4206 182.281 69.4206C197.684 69.4206 210.171 57.2014 210.171 42.1283C210.171 27.207 197.935 15.0825 182.746 14.8396L182.746 14.8359Z" fill="#F0F1F1"/>
</mask>
<g mask="url(#mask3_55_4)">
<circle opacity="0.4" cx="213.872" cy="-27.7218" r="239.618" fill="url(#paint15_radial_55_4)"/>
<circle cx="51.0443" cy="-0.891525" r="145.251" fill="url(#paint16_radial_55_4)" fill-opacity="0.5"/>
<rect opacity="0.06" x="127.833" y="3.81104" width="53.811" height="103.384" transform="rotate(-50.8147 127.833 3.81104)" fill="url(#paint17_linear_55_4)"/>
<rect opacity="0.1" x="124.833" y="-5.31201" width="89.6685" height="103.384" transform="rotate(-20.1865 124.833 -5.31201)" fill="url(#paint18_linear_55_4)"/>
</g>
<path d="M54.6907 43.566L55.2214 31.0482L57.4655 31.1433L57.0151 41.7677L62.2396 41.9892L62.1593 43.8827L54.6907 43.566ZM67.966 34.4338C69.1933 34.4858 70.1111 34.7941 70.7194 35.3585C71.3399 35.9117 71.6262 36.7552 71.5781 37.8889L71.3076 44.2705L69.7472 44.2044L69.3647 42.8709L69.2945 42.8679C69.0113 43.1955 68.7187 43.4699 68.4166 43.6913C68.1266 43.9015 67.7927 44.0454 67.4147 44.123C67.0479 44.2129 66.6016 44.2466 66.0756 44.2243C65.5146 44.2005 65.0106 44.0738 64.5637 43.8441C64.1285 43.6149 63.7915 43.2786 63.5527 42.8352C63.3144 42.3802 63.2093 41.8196 63.2376 41.1533C63.2792 40.1716 63.6669 39.4503 64.4007 38.9897C65.1466 38.5178 66.2511 38.2895 67.7141 38.3047L69.3643 38.3219L69.3844 37.8486C69.4102 37.2408 69.2824 36.8021 69.0011 36.5326C68.7198 36.2631 68.3162 36.1172 67.7902 36.0949C67.311 36.0746 66.8464 36.1251 66.3963 36.2465C65.9462 36.368 65.5068 36.5133 65.0781 36.6824L64.4422 35.1099C64.9202 34.8843 65.4604 34.7081 66.0629 34.5814C66.6771 34.4553 67.3115 34.4061 67.966 34.4338ZM68.1477 39.6754C67.1762 39.6694 66.4969 39.8103 66.11 40.0984C65.7236 40.3747 65.5198 40.7642 65.4985 41.2668C65.4796 41.7109 65.6004 42.038 65.8608 42.2481C66.1212 42.4582 66.4618 42.5722 66.8826 42.59C67.5254 42.6173 68.0766 42.4591 68.5361 42.1156C68.9961 41.7605 69.2414 41.2205 69.2722 40.4959L69.3063 39.6894L68.1477 39.6754ZM79.2196 34.9109C80.2832 34.956 81.1014 35.2659 81.6742 35.8405C82.2587 36.4156 82.5249 37.3168 82.4729 38.544L82.2105 44.7328L80.0015 44.6391L80.2453 38.8886C80.2755 38.1757 80.1578 37.6379 79.8922 37.2754C79.627 36.9012 79.1906 36.7012 78.5828 36.6754C77.6945 36.6377 77.0748 36.8925 76.7238 37.4396C76.3732 37.9751 76.1756 38.7688 76.131 39.8207L75.9341 44.4667L73.725 44.373L74.1279 34.8707L75.8285 34.9428L76.0913 36.2009L76.214 36.2061C76.4383 35.8878 76.7068 35.6299 77.0196 35.4324C77.3324 35.2349 77.6778 35.0973 78.0558 35.0197C78.4343 34.9303 78.8222 34.8941 79.2196 34.9109ZM87.7537 45.1434C86.6551 45.0968 85.7783 44.6499 85.1234 43.8025C84.4806 42.9439 84.1937 41.7023 84.2626 40.0776C84.3315 38.453 84.7283 37.2404 85.4531 36.4398C86.1784 35.6275 87.102 35.2451 88.2241 35.2927C88.6916 35.3125 89.0979 35.3941 89.4431 35.5376C89.8005 35.6698 90.1033 35.8466 90.3515 36.0679C90.5997 36.2892 90.806 36.5321 90.9704 36.7967L91.0756 36.8011C91.0475 36.636 91.0231 36.3832 91.0024 36.0428C90.9817 35.7023 90.9776 35.386 90.99 35.0938L91.1312 31.7628L93.3402 31.8564L92.7753 45.1807L91.0572 45.1078L90.7067 43.846L90.619 43.8423C90.4328 44.092 90.2064 44.3224 89.9399 44.5336C89.6738 44.7331 89.3628 44.8896 89.0067 45.0033C88.6506 45.1171 88.2329 45.1637 87.7537 45.1434ZM88.4958 43.3834C89.3139 43.4181 89.9024 43.2089 90.2611 42.7557C90.6199 42.3026 90.8194 41.6026 90.8595 40.6559L90.8714 40.3754C90.915 39.3469 90.7846 38.5568 90.4801 38.0053C90.1873 37.4543 89.6026 37.1602 88.726 37.123C88.0598 37.0948 87.5337 37.3535 87.1476 37.8991C86.7619 38.4331 86.5478 39.2027 86.5052 40.2078C86.4626 41.213 86.6113 41.9863 86.9513 42.5276C87.2914 43.0689 87.8062 43.3542 88.4958 43.3834ZM97.8588 35.8768L97.4559 45.3791L95.2469 45.2855L95.6498 35.7832L97.8588 35.8768ZM96.9096 32.1658C97.2369 32.1797 97.5195 32.2795 97.7575 32.4652C97.9961 32.6393 98.1061 32.9425 98.0878 33.375C98.07 33.7957 97.9344 34.0944 97.681 34.271C97.4281 34.4359 97.138 34.5114 96.8108 34.4976C96.4718 34.4832 96.1833 34.3831 95.9453 34.1974C95.7195 34.0005 95.6155 33.6917 95.6333 33.2709C95.6517 32.8384 95.7812 32.5453 96.0219 32.3916C96.2748 32.2267 96.5707 32.1514 96.9096 32.1658ZM105.424 36.0219C106.488 36.067 107.306 36.3769 107.879 36.9515C108.463 37.5266 108.73 38.4278 108.678 39.655L108.415 45.8438L106.206 45.7501L106.45 39.9997C106.48 39.2867 106.363 38.7489 106.097 38.3864C105.832 38.0122 105.395 37.8122 104.788 37.7864C103.899 37.7488 103.28 38.0035 102.929 38.5507C102.578 39.0861 102.38 39.8798 102.336 40.9317L102.139 45.5777L99.9298 45.484L100.333 35.9817L102.033 36.0538L102.296 37.312L102.419 37.3172C102.643 36.9988 102.912 36.7409 103.224 36.5434C103.537 36.3459 103.883 36.2083 104.261 36.1307C104.639 36.0413 105.027 36.0051 105.424 36.0219ZM114.429 36.4037C115.025 36.429 115.558 36.5687 116.027 36.8227C116.496 37.0768 116.885 37.4446 117.192 37.9259L117.28 37.9297L117.542 36.7113L119.383 36.7894L118.977 46.3618C118.939 47.2618 118.738 48.0085 118.373 48.6019C118.008 49.207 117.479 49.653 116.788 49.9398C116.097 50.2266 115.243 50.3485 114.226 50.3054C113.548 50.2766 112.925 50.2034 112.356 50.0856C111.787 49.9795 111.249 49.8103 110.744 49.5782L110.821 47.7548C111.177 47.9221 111.546 48.0666 111.927 48.1881C112.319 48.3218 112.725 48.4268 113.143 48.5031C113.561 48.5794 113.993 48.627 114.437 48.6458C115.161 48.6765 115.719 48.4953 116.111 48.102C116.514 47.7093 116.731 47.1331 116.764 46.3734L116.774 46.1279C116.781 45.9526 116.796 45.7483 116.818 45.5151C116.851 45.2823 116.876 45.096 116.894 44.9563L116.824 44.9533C116.476 45.4303 116.063 45.7758 115.586 45.9897C115.109 46.192 114.566 46.2802 113.959 46.2544C112.801 46.2054 111.914 45.7345 111.296 44.8419C110.678 43.9492 110.402 42.7315 110.467 41.1887C110.512 40.1484 110.695 39.2663 111.019 38.5424C111.354 37.8189 111.81 37.2762 112.387 36.9143C112.965 36.5407 113.646 36.3705 114.429 36.4037ZM114.931 38.234C114.487 38.2152 114.102 38.3218 113.776 38.5539C113.462 38.7748 113.213 39.1155 113.03 39.5761C112.858 40.0372 112.757 40.6183 112.728 41.3196C112.684 42.3482 112.826 43.1328 113.155 43.6737C113.483 44.2145 113.998 44.4998 114.699 44.5295C115.096 44.5463 115.437 44.514 115.722 44.4324C116.007 44.3391 116.242 44.1851 116.426 43.9704C116.623 43.7446 116.776 43.4584 116.884 43.1117C116.993 42.7533 117.058 42.3229 117.08 41.8203L117.094 41.4872C117.126 40.7274 117.07 40.1162 116.926 39.6534C116.782 39.179 116.545 38.8294 116.215 38.6046C115.896 38.3804 115.468 38.2568 114.931 38.234ZM131.062 37.1089C132.173 37.156 133.049 37.6088 133.692 38.4674C134.335 39.3143 134.622 40.5501 134.553 42.1747C134.508 43.25 134.311 44.1491 133.965 44.8721C133.618 45.5951 133.156 46.1317 132.579 46.4819C132.002 46.8321 131.34 46.9914 130.592 46.9597C130.136 46.9403 129.735 46.8648 129.39 46.733C129.044 46.5896 128.753 46.4192 128.515 46.2218C128.278 46.0127 128.077 45.7934 127.911 45.5639L127.771 45.5579C127.809 45.7703 127.834 46.0114 127.846 46.2812C127.858 46.5393 127.859 46.7853 127.849 47.019L127.686 50.876L125.477 50.7824L126.058 37.0724L127.846 37.1482L128.108 38.4239L128.214 38.4284C128.4 38.167 128.621 37.9363 128.875 37.7363C129.142 37.5251 129.453 37.3627 129.809 37.249C130.177 37.1358 130.595 37.0891 131.062 37.1089ZM130.355 38.8704C129.841 38.8486 129.422 38.9362 129.097 39.1332C128.773 39.3185 128.532 39.6186 128.374 40.0334C128.216 40.4483 128.118 40.971 128.079 41.6016L128.067 41.8822C128.038 42.5601 128.078 43.1355 128.187 43.6085C128.308 44.0819 128.52 44.4481 128.826 44.7069C129.142 44.9662 129.576 45.1075 130.125 45.1308C130.592 45.1506 130.978 45.0382 131.281 44.7934C131.596 44.5492 131.833 44.1963 131.993 43.7347C132.165 43.2619 132.265 42.6983 132.293 42.0438C132.335 41.062 132.197 40.2951 131.881 39.7431C131.577 39.1915 131.068 38.9007 130.355 38.8704ZM140.476 37.5081C141.704 37.5601 142.621 37.8683 143.23 38.4327C143.85 38.9859 144.137 39.8294 144.088 40.9631L143.818 47.3448L142.258 47.2786L141.875 45.9451L141.805 45.9422C141.522 46.2697 141.229 46.5442 140.927 46.7656C140.637 46.9757 140.303 47.1196 139.925 47.1973C139.558 47.2871 139.112 47.3209 138.586 47.2986C138.025 47.2748 137.521 47.1481 137.074 46.9183C136.639 46.6891 136.302 46.3528 136.063 45.9095C135.825 45.4544 135.72 44.8938 135.748 44.2276C135.79 43.2458 136.177 42.5246 136.911 42.0639C137.657 41.5921 138.761 41.3637 140.224 41.3789L141.875 41.3962L141.895 40.9228C141.921 40.315 141.793 39.8764 141.511 39.6069C141.23 39.3374 140.827 39.1914 140.301 39.1691C139.821 39.1488 139.357 39.1994 138.907 39.3208C138.457 39.4422 138.017 39.5875 137.588 39.7567L136.953 38.1841C137.431 37.9585 137.971 37.7824 138.573 37.6557C139.188 37.5295 139.822 37.4803 140.476 37.5081ZM140.658 42.7497C139.687 42.7436 139.007 42.8846 138.62 43.1726C138.234 43.449 138.03 43.8384 138.009 44.341C137.99 44.7852 138.111 45.1123 138.371 45.3224C138.632 45.5325 138.972 45.6464 139.393 45.6643C140.036 45.6915 140.587 45.5334 141.046 45.1899C141.506 44.8347 141.752 44.2948 141.783 43.5701L141.817 42.7637L140.658 42.7497ZM149.837 37.9049C150.433 37.9302 150.965 38.0699 151.435 38.3239C151.904 38.578 152.292 38.9457 152.6 39.4271L152.687 39.4309L152.95 38.2125L154.791 38.2906L154.385 47.863C154.347 48.763 154.145 49.5097 153.78 50.1031C153.415 50.7082 152.887 51.1542 152.196 51.441C151.504 51.7278 150.65 51.8497 149.634 51.8066C148.956 51.7778 148.332 51.7046 147.764 51.5868C147.194 51.4807 146.657 51.3115 146.152 51.0794L146.229 49.256C146.585 49.4233 146.953 49.5678 147.335 49.6893C147.727 49.823 148.132 49.928 148.551 50.0043C148.969 50.0806 149.4 50.1282 149.844 50.147C150.569 50.1777 151.127 49.9965 151.518 49.6032C151.921 49.2105 152.139 48.6343 152.171 47.8746L152.182 47.6291C152.189 47.4538 152.204 47.2495 152.225 47.0162C152.259 46.7835 152.284 46.5972 152.302 46.4575L152.232 46.4545C151.883 46.9315 151.471 47.277 150.993 47.4909C150.516 47.6932 149.974 47.7814 149.366 47.7556C148.209 47.7066 147.322 47.2357 146.704 46.3431C146.086 45.4504 145.81 44.2327 145.875 42.6899C145.919 41.6496 146.103 40.7675 146.426 40.0436C146.761 39.3201 147.218 38.7774 147.795 38.4155C148.373 38.0419 149.053 37.8717 149.837 37.9049ZM150.339 39.7352C149.894 39.7164 149.509 39.823 149.183 40.0551C148.87 40.276 148.621 40.6167 148.437 41.0773C148.266 41.5384 148.165 42.1195 148.135 42.8208C148.092 43.8493 148.234 44.634 148.562 45.1749C148.891 45.7157 149.405 46.001 150.107 46.0307C150.504 46.0475 150.845 46.0152 151.13 45.9335C151.415 45.8402 151.649 45.6863 151.834 45.4716C152.031 45.2458 152.184 44.9596 152.292 44.6129C152.401 44.2545 152.466 43.824 152.487 43.3215L152.501 42.9884C152.534 42.2286 152.478 41.6174 152.333 41.1546C152.189 40.6802 151.953 40.3306 151.623 40.1058C151.304 39.8816 150.876 39.758 150.339 39.7352ZM161.092 38.3821C161.945 38.4183 162.668 38.6246 163.261 39.001C163.866 39.3662 164.324 39.8774 164.636 40.5346C164.948 41.1801 165.085 41.9587 165.046 42.8704L164.999 43.9924L158.722 43.7263C158.709 44.5922 158.92 45.2744 159.356 45.773C159.792 46.2598 160.413 46.5203 161.219 46.5545C161.839 46.5808 162.391 46.5456 162.875 46.4491C163.371 46.3413 163.881 46.1815 164.406 45.9695L164.331 47.7402C163.854 47.9425 163.362 48.0856 162.855 48.1694C162.348 48.2533 161.743 48.2804 161.042 48.2507C160.119 48.2115 159.302 48.0013 158.592 47.6199C157.895 47.2273 157.357 46.6601 156.978 45.9181C156.612 45.1766 156.451 44.2682 156.497 43.1929C156.543 42.1059 156.763 41.2019 157.156 40.4809C157.562 39.7488 158.1 39.2095 158.77 38.8633C159.441 38.5053 160.215 38.3449 161.092 38.3821ZM161.023 40.0126C160.438 39.9878 159.951 40.1603 159.56 40.5302C159.182 40.8888 158.942 41.4407 158.84 42.1857L162.925 42.3589C162.944 41.9148 162.885 41.52 162.747 41.1746C162.621 40.8297 162.416 40.5576 162.132 40.3582C161.848 40.1471 161.478 40.0319 161.023 40.0126ZM173.282 45.8365C173.255 46.4677 173.08 46.9989 172.758 47.4301C172.435 47.8497 171.971 48.1579 171.366 48.3547C170.772 48.552 170.049 48.6325 169.195 48.5963C168.529 48.5681 167.958 48.4971 167.483 48.3832C167.008 48.2694 166.558 48.104 166.134 47.887L166.214 46.0111C166.672 46.2529 167.184 46.462 167.75 46.6382C168.317 46.8145 168.845 46.913 169.336 46.9338C169.944 46.9596 170.386 46.8846 170.663 46.709C170.94 46.5334 171.085 46.2878 171.098 45.9722C171.106 45.7852 171.061 45.6135 170.962 45.4571C170.863 45.3007 170.665 45.1343 170.368 44.9578C170.072 44.7695 169.619 44.5337 169.011 44.2503C168.413 43.9791 167.915 43.7121 167.517 43.4493C167.13 43.187 166.838 42.882 166.642 42.5341C166.458 42.175 166.378 41.7325 166.4 41.2066C166.436 40.3533 166.802 39.7249 167.499 39.3212C168.195 38.9057 169.099 38.7216 170.209 38.7687C170.794 38.7934 171.34 38.8752 171.85 39.0139C172.371 39.1413 172.89 39.339 173.405 39.6067L172.635 41.2075C172.348 41.0665 172.061 40.9431 171.772 40.8372C171.496 40.7201 171.214 40.6261 170.924 40.5553C170.646 40.485 170.361 40.4436 170.068 40.4312C169.589 40.4109 169.224 40.4715 168.972 40.6131C168.72 40.7429 168.589 40.9364 168.578 41.1935C168.57 41.3922 168.621 41.57 168.731 41.7269C168.854 41.8726 169.064 42.0279 169.362 42.1927C169.671 42.3464 170.107 42.5522 170.67 42.8102C171.233 43.0566 171.709 43.3109 172.096 43.5732C172.495 43.8243 172.798 44.1299 173.005 44.4899C173.212 44.85 173.305 45.2989 173.282 45.8365Z" fill="#445266"/>
<defs>
<filter id="filter0_d_55_4" x="0.487199" y="0.859581" width="220.984" height="87.7608" filterUnits="userSpaceOnUse" color-interpolation-filters="sRGB">
<feFlood flood-opacity="0" result="BackgroundImageFix"/>
<feColorMatrix in="SourceAlpha" type="matrix" values="0 0 0 0 0 0 0 0 0 0 0 0 0 0 0 0 0 0 127 0" result="hardAlpha"/>
<feOffset dx="-3.89949" dy="5.84923"/>
<feGaussianBlur stdDeviation="3.89949"/>
<feComposite in2="hardAlpha" operator="out"/>
<feColorMatrix type="matrix" values="0 0 0 0 0.258333 0 0 0 0 0.183345 0 0 0 0 0.183345 0 0 0 0.06 0"/>
<feBlend mode="normal" in2="BackgroundImageFix" result="effect1_dropShadow_55_4"/>
<feBlend mode="normal" in="SourceGraphic" in2="effect1_dropShadow_55_4" result="shape"/>
</filter>
<filter id="filter1_d_55_4" x="14.9609" y="5.53489" width="202.454" height="70.4613" filterUnits="userSpaceOnUse" color-interpolation-filters="sRGB">
<feFlood flood-opacity="0" result="BackgroundImageFix"/>
<feColorMatrix in="SourceAlpha" type="matrix" values="0 0 0 0 0 0 0 0 0 0 0 0 0 0 0 0 0 0 127 0" result="hardAlpha"/>
<feOffset dx="1.94974" dy="0.974872"/>
<feGaussianBlur stdDeviation="0.974872"/>
<feComposite in2="hardAlpha" operator="out"/>
<feColorMatrix type="matrix" values="0 0 0 0 0.733333 0 0 0 0 0.309804 0 0 0 0 0.207843 0 0 0 1 0"/>
<feBlend mode="normal" in2="BackgroundImageFix" result="effect1_dropShadow_55_4"/>
<feBlend mode="normal" in="SourceGraphic" in2="effect1_dropShadow_55_4" result="shape"/>
</filter>
<radialGradient id="paint0_radial_55_4" cx="0" cy="0" r="1" gradientUnits="userSpaceOnUse" gradientTransform="translate(145.972 71.0813) rotate(93.5323) scale(120.691)">
<stop stop-color="#222332"/>
<stop offset="1" stop-color="#5F6164" stop-opacity="0"/>
</radialGradient>
<radialGradient id="paint1_radial_55_4" cx="0" cy="0" r="1" gradientUnits="userSpaceOnUse" gradientTransform="translate(159.848 -9.40794) rotate(93.5323) scale(120.691)">
<stop stop-color="#1C193D"/>
<stop offset="1" stop-color="#5F6164" stop-opacity="0"/>
</radialGradient>
<radialGradient id="paint2_radial_55_4" cx="0" cy="0" r="1" gradientUnits="userSpaceOnUse" gradientTransform="translate(145.872 67.5709) rotate(108.088) scale(120.684)">
<stop stop-color="#080712"/>
<stop offset="1" stop-color="#5F6164" stop-opacity="0"/>
</radialGradient>
<radialGradient id="paint3_radial_55_4" cx="0" cy="0" r="1" gradientUnits="userSpaceOnUse" gradientTransform="translate(233.939 48.1249) rotate(95.272) scale(67.3767)">
<stop stop-color="#D2BEBE"/>
<stop offset="1" stop-color="#A9AFB8" stop-opacity="0"/>
</radialGradient>
<radialGradient id="paint4_radial_55_4" cx="0" cy="0" r="1" gradientUnits="userSpaceOnUse" gradientTransform="translate(26.2017 -11.1718) rotate(93.5323) scale(86.308)">
<stop stop-color="#1C193D"/>
<stop offset="1" stop-color="#5F6164" stop-opacity="0"/>
</radialGradient>
<linearGradient id="paint5_linear_55_4" x1="201.382" y1="7.43515" x2="148.185" y2="91.1625" gradientUnits="userSpaceOnUse">
<stop stop-color="#261414"/>
<stop offset="1" stop-color="#372828" stop-opacity="0"/>
</linearGradient>
<linearGradient id="paint6_linear_55_4" x1="99.6143" y1="9.28508" x2="99.6143" y2="74.0466" gradientUnits="userSpaceOnUse">
<stop stop-color="#B3B2EA"/>
<stop offset="0.57118" stop-color="#9D7C9E"/>
<stop offset="1" stop-color="#CF768C"/>
</linearGradient>
<radialGradient id="paint7_radial_55_4" cx="0" cy="0" r="1" gradientUnits="userSpaceOnUse" gradientTransform="translate(179.281 -39.9387) rotate(93.5323) scale(120.691)">
<stop stop-color="#A3A2A2"/>
<stop offset="1" stop-color="#D9D9D9" stop-opacity="0"/>
</radialGradient>
<radialGradient id="paint8_radial_55_4" cx="0" cy="0" r="1" gradientUnits="userSpaceOnUse" gradientTransform="translate(150.6 134.917) rotate(93.5323) scale(120.691)">
<stop stop-color="#A3A2A2"/>
<stop offset="1" stop-color="#D9D9D9" stop-opacity="0"/>
</radialGradient>
<radialGradient id="paint9_radial_55_4" cx="0" cy="0" r="1" gradientUnits="userSpaceOnUse" gradientTransform="translate(61.7834 134.917) rotate(93.5323) scale(120.691)">
<stop stop-color="#A3A2A2"/>
<stop offset="1" stop-color="#D9D9D9" stop-opacity="0"/>
</radialGradient>
<radialGradient id="paint10_radial_55_4" cx="0" cy="0" r="1" gradientUnits="userSpaceOnUse" gradientTransform="translate(204.379 59.425) rotate(93.5323) scale(130.515)">
<stop stop-color="#A3A2A2"/>
<stop offset="1" stop-color="#D9D9D9" stop-opacity="0"/>
</radialGradient>
<radialGradient id="paint11_radial_55_4" cx="0" cy="0" r="1" gradientUnits="userSpaceOnUse" gradientTransform="translate(210.855 44.6226) rotate(93.5323) scale(130.515)">
<stop stop-color="#969696"/>
<stop offset="1" stop-color="#D9D9D9" stop-opacity="0"/>
</radialGradient>
<radialGradient id="paint12_radial_55_4" cx="0" cy="0" r="1" gradientUnits="userSpaceOnUse" gradientTransform="translate(152.45 96.9851) rotate(93.5323) scale(120.691)">
<stop stop-color="#A3A2A2"/>
<stop offset="1" stop-color="#D9D9D9" stop-opacity="0"/>
</radialGradient>
<linearGradient id="paint13_linear_55_4" x1="205.527" y1="32.8764" x2="14.9768" y2="59.0296" gradientUnits="userSpaceOnUse">
<stop stop-color="#EDEDEE"/>
<stop offset="1" stop-color="white" stop-opacity="0"/>
</linearGradient>
<linearGradient id="paint14_linear_55_4" x1="195.371" y1="68.033" x2="167.616" y2="-14.7693" gradientUnits="userSpaceOnUse">
<stop stop-color="#A2819C"/>
<stop offset="1" stop-color="#33051B" stop-opacity="0"/>
</linearGradient>
<radialGradient id="paint15_radial_55_4" cx="0" cy="0" r="1" gradientUnits="userSpaceOnUse" gradientTransform="translate(216.111 30.503) rotate(93.5323) scale(181.738)">
<stop stop-color="#CECFD8"/>
<stop offset="1" stop-color="#F1F1F1" stop-opacity="0"/>
</radialGradient>
<radialGradient id="paint16_radial_55_4" cx="0" cy="0" r="1" gradientUnits="userSpaceOnUse" gradientTransform="translate(52.4018 34.4031) rotate(93.5323) scale(110.166)">
<stop stop-color="white"/>
<stop offset="1" stop-color="white" stop-opacity="0"/>
</radialGradient>
<linearGradient id="paint17_linear_55_4" x1="178.026" y1="54.8948" x2="134.163" y2="54.8948" gradientUnits="userSpaceOnUse">
<stop/>
<stop offset="1" stop-color="#D9D9D9" stop-opacity="0"/>
</linearGradient>
<linearGradient id="paint18_linear_55_4" x1="208.473" y1="45.7717" x2="135.382" y2="45.7717" gradientUnits="userSpaceOnUse">
<stop/>
<stop offset="1" stop-color="#D9D9D9" stop-opacity="0"/>
</linearGradient>
</defs>
</svg>
