<svg width="55" height="48" viewBox="0 0 55 48" fill="none" xmlns="http://www.w3.org/2000/svg">
<path fill-rule="evenodd" clip-rule="evenodd" d="M45.4651 20.2704C50.731 20.2704 55 16.0508 55 10.8458C55 5.64069 50.731 1.42114 45.4651 1.42114C40.1991 1.42114 35.9302 5.64069 35.9302 10.8458C35.9302 16.0508 40.1991 20.2704 45.4651 20.2704Z" fill="#2D68FF"/>
<path fill-rule="evenodd" clip-rule="evenodd" d="M46 25.2504C45.6141 25.282 45.2237 25.2981 44.8295 25.2981C37.1061 25.2981 30.845 19.1094 30.845 11.4753C30.845 8.82589 31.5991 6.35055 32.9068 4.24758L27.0297 1.0313C24.5171 -0.343768 21.4829 -0.343768 18.9703 1.0313L4.40362 9.00307C1.68952 10.4884 0 13.348 0 16.4565V31.5435C0 34.652 1.68952 37.5116 4.40362 38.9969L18.9703 46.9687C21.4829 48.3438 24.5171 48.3438 27.0297 46.9687L41.5964 38.9969C44.3105 37.5116 46 34.652 46 31.5435V25.2504Z" fill="#2C2C2C"/>
</svg>
