<svg width="241" height="172" viewBox="0 0 241 172" fill="none" xmlns="http://www.w3.org/2000/svg">
<g opacity="0.4" filter="url(#filter0_f_55_15)">
<path d="M29.8831 119.47C32.7645 156.17 75.5485 139.777 131.866 132.359C188.184 124.941 235.611 88.3101 198.603 69.6667C195.722 32.9672 149.183 24.8293 92.8656 32.2474C36.5478 39.6656 27.0017 82.771 29.8831 119.47Z" fill="url(#paint0_radial_55_15)"/>
</g>
<g filter="url(#filter1_f_55_15)">
<path d="M213.228 83.7169C170.7 68.7799 129.757 72.7351 98.8741 81.3642C67.991 89.9933 71.0163 105.196 73.9218 122.641C76.8272 140.086 104.218 147.233 135.101 138.604C165.985 129.974 203.143 97.138 213.228 83.7169Z" fill="url(#paint1_radial_55_15)" fill-opacity="0.2"/>
</g>
<g filter="url(#filter2_f_55_15)">
<path d="M45.0308 88.769C45.0308 116.162 57.1727 164.492 123.878 136.566C186.448 110.371 223.588 101.017 223.588 73.6243C223.588 46.2317 173.777 50.9074 123.878 50.9074C73.9795 50.9074 45.0308 61.3763 45.0308 88.769Z" fill="url(#paint2_radial_55_15)" fill-opacity="0.3"/>
</g>
<defs>
<filter id="filter0_f_55_15" x="0.179485" y="0.502361" width="240.778" height="171.228" filterUnits="userSpaceOnUse" color-interpolation-filters="sRGB">
<feFlood flood-opacity="0" result="BackgroundImageFix"/>
<feBlend mode="normal" in="SourceGraphic" in2="BackgroundImageFix" result="shape"/>
<feGaussianBlur stdDeviation="14.6231" result="effect1_foregroundBlur_55_15"/>
</filter>
<filter id="filter1_f_55_15" x="63.4189" y="64.9193" width="158.583" height="86.119" filterUnits="userSpaceOnUse" color-interpolation-filters="sRGB">
<feFlood flood-opacity="0" result="BackgroundImageFix"/>
<feBlend mode="normal" in="SourceGraphic" in2="BackgroundImageFix" result="shape"/>
<feGaussianBlur stdDeviation="4.38693" result="effect1_foregroundBlur_55_15"/>
</filter>
<filter id="filter2_f_55_15" x="37.2318" y="42.8055" width="194.155" height="109.965" filterUnits="userSpaceOnUse" color-interpolation-filters="sRGB">
<feFlood flood-opacity="0" result="BackgroundImageFix"/>
<feBlend mode="normal" in="SourceGraphic" in2="BackgroundImageFix" result="shape"/>
<feGaussianBlur stdDeviation="3.89949" result="effect1_foregroundBlur_55_15"/>
</filter>
<radialGradient id="paint0_radial_55_15" cx="0" cy="0" r="1" gradientUnits="userSpaceOnUse" gradientTransform="translate(97.0464 106.796) rotate(85.1907) scale(58.9139 90.0076)">
<stop stop-color="#8F92A7"/>
<stop offset="1" stop-color="#D9D9D9" stop-opacity="0"/>
</radialGradient>
<radialGradient id="paint1_radial_55_15" cx="0" cy="0" r="1" gradientUnits="userSpaceOnUse" gradientTransform="translate(129.085 99.195) rotate(-105.882) scale(24.1017 44.1195)">
<stop stop-color="#4457FF"/>
<stop offset="1" stop-color="#D9D9D9" stop-opacity="0"/>
</radialGradient>
<radialGradient id="paint2_radial_55_15" cx="0" cy="0" r="1" gradientUnits="userSpaceOnUse" gradientTransform="translate(123.034 99.0192) rotate(83.5843) scale(37.7833 68.2262)">
<stop stop-color="#8E6CD7"/>
<stop offset="1" stop-color="#D9D9D9" stop-opacity="0"/>
</radialGradient>
</defs>
</svg>
