<svg width="183" height="80" viewBox="0 0 183 80" fill="none" xmlns="http://www.w3.org/2000/svg">
<g filter="url(#filter0_d_55_14)">
<path d="M3.51671 45.4629C2.29356 27.0475 16.2306 11.1273 34.646 9.90419L145.106 2.56744C163.522 1.34429 179.442 15.2814 180.665 33.6968C181.888 52.1121 167.951 68.0323 149.536 69.2555L39.0754 76.5922C20.66 77.8154 4.73986 63.8783 3.51671 45.4629Z" fill="#100E12"/>
</g>
<mask id="mask0_55_14" style="mask-type:alpha" maskUnits="userSpaceOnUse" x="3" y="2" width="178" height="75">
<path d="M3.51671 45.4629C2.29356 27.0475 16.2306 11.1273 34.646 9.90419L145.106 2.56744C163.522 1.34429 179.442 15.2814 180.665 33.6968C181.888 52.1121 167.951 68.0323 149.536 69.2555L39.0754 76.5922C20.66 77.8154 4.73986 63.8783 3.51671 45.4629Z" fill="#100E12"/>
</mask>
<g mask="url(#mask0_55_14)">
<rect opacity="0.6" width="70.1417" height="198.236" transform="matrix(-0.216818 -0.976212 0.973384 -0.229181 5.89807 76.0588)" fill="url(#paint0_linear_55_14)"/>
</g>
<path d="M3.18797 44.26C2.12294 27.3357 15.4118 14.8811 32.3305 13.7296L146.804 3.73425C163.432 2.60255 177.946 14.8949 179.567 31.4815L179.659 32.4194C181.32 49.4112 167.751 63.0282 150.752 64.6136L35.7356 76.9297C18.4274 78.5439 4.52224 65.4628 3.43049 48.1139L3.18797 44.26Z" fill="url(#paint1_linear_55_14)"/>
<path fill-rule="evenodd" clip-rule="evenodd" d="M32.3278 13.6983C15.4094 14.8542 2.096 26.9909 3.12444 43.4422L3.35863 47.1883C4.41288 64.0524 18.2876 76.7397 35.5963 75.1331L150.288 63.6889C167.288 62.1111 181.215 48.0669 179.591 31.5513L179.501 30.6397C177.916 14.518 163.431 2.59876 146.804 3.73475L32.3278 13.6983ZM146.847 4.28821C163.186 3.1745 177.395 14.8867 178.949 30.694L179.039 31.6056C180.626 47.7519 166.997 61.5806 150.237 63.1362L35.545 74.5804C35.5443 74.5804 35.5436 74.5805 35.5429 74.5806C18.5621 76.1556 4.94827 63.7199 3.91264 47.1537L3.67846 43.4075C2.67363 27.334 15.6733 15.3926 32.3656 14.2521L146.842 4.28856C146.844 4.28844 146.845 4.28833 146.847 4.28821Z" fill="url(#paint2_linear_55_14)" fill-opacity="0.6"/>
<path fill-rule="evenodd" clip-rule="evenodd" d="M32.3278 13.6983C15.4094 14.8542 2.096 26.9909 3.12444 43.4422L3.35863 47.1883C4.41288 64.0524 18.2876 76.7397 35.5963 75.1331L150.288 63.6889C167.288 62.1111 181.215 48.0669 179.591 31.5513L179.501 30.6397C177.916 14.518 163.431 2.59876 146.804 3.73475L32.3278 13.6983ZM146.847 4.28821C163.186 3.1745 177.395 14.8867 178.949 30.694L179.039 31.6056C180.626 47.7519 166.997 61.5806 150.237 63.1362L35.545 74.5804C35.5443 74.5804 35.5436 74.5805 35.5429 74.5806C18.5621 76.1556 4.94827 63.7199 3.91264 47.1537L3.67846 43.4075C2.67363 27.334 15.6733 15.3926 32.3656 14.2521L146.842 4.28856C146.844 4.28844 146.845 4.28833 146.847 4.28821Z" fill="url(#paint3_linear_55_14)" fill-opacity="0.2"/>
<path d="M3.12444 43.4422C2.096 26.9909 15.4094 14.8542 32.3278 13.6983L146.804 3.73475C163.431 2.59876 177.916 14.518 179.501 30.6397L179.591 31.5513C181.215 48.0669 167.288 62.1111 150.288 63.6889L35.5963 75.1331C18.2876 76.7397 4.41288 64.0524 3.35863 47.1883L3.12444 43.4422Z" fill="#ECEEEE"/>
<mask id="mask1_55_14" style="mask-type:alpha" maskUnits="userSpaceOnUse" x="3" y="3" width="177" height="73">
<path d="M3.12444 43.4422C2.096 26.9909 15.4094 14.8542 32.3278 13.6983L146.804 3.73475C163.431 2.59876 177.916 14.518 179.501 30.6397L179.591 31.5513C181.215 48.0669 167.288 62.1111 150.288 63.6889L35.5963 75.1331C18.2876 76.7397 4.41288 64.0524 3.35863 47.1883L3.12444 43.4422Z" fill="#ECEEEE"/>
</mask>
<g mask="url(#mask1_55_14)">
<rect opacity="0.15" width="76.1267" height="122.265" transform="matrix(0.989498 -0.14455 0.157087 0.987585 122.536 4.88062)" fill="url(#paint4_linear_55_14)"/>
<rect opacity="0.25" width="76.1267" height="122.265" transform="matrix(0.64287 -0.765975 0.774067 0.633104 60.6598 9.0791)" fill="url(#paint5_linear_55_14)"/>
<rect opacity="0.15" width="69.5819" height="198.236" transform="matrix(0.125274 0.992122 -0.990453 0.137846 193.362 3.18091)" fill="url(#paint6_linear_55_14)"/>
</g>
<path d="M8.26644 42.4574C7.34751 27.9497 19.0087 17.2082 39.905 15.3905L145.692 6.94633C161.475 5.88803 173.699 16.1223 175.697 30.5678L175.779 31.3715C177.263 45.9339 165.246 57.6828 149.108 59.1321L39.905 70.3011C23.473 71.7768 9.41767 60.6327 8.47569 45.7609L8.26644 42.4574Z" fill="#FDFDFE"/>
<mask id="mask2_55_14" style="mask-type:alpha" maskUnits="userSpaceOnUse" x="8" y="6" width="168" height="65">
<path d="M8.26644 42.4574C7.34751 27.9497 19.0087 17.2082 39.905 15.3905L145.692 6.94633C161.475 5.88803 173.699 16.1223 175.697 30.5678L175.779 31.3715C177.263 45.9339 165.246 57.6828 149.108 59.1321L39.905 70.3011C23.473 71.7768 9.41767 60.6327 8.47569 45.7609L8.26644 42.4574Z" fill="white"/>
</mask>
<g mask="url(#mask2_55_14)">
<rect opacity="0.25" width="79.0991" height="148.948" transform="matrix(0.44943 -0.893316 0.907354 0.420367 74.4302 24.7549)" fill="url(#paint7_linear_55_14)"/>
</g>
<path d="M48.4662 36.3355C50.0864 36.1974 51.2925 36.435 52.0845 37.0484C52.8882 37.6608 53.3407 38.5615 53.4421 39.7504C53.4878 40.2866 53.45 40.8064 53.3286 41.3099C53.2061 41.8017 52.969 42.2564 52.6172 42.6738C52.2653 43.0913 51.7841 43.4376 51.1736 43.7128C50.5747 43.9869 49.8148 44.1633 48.894 44.2418L47.6526 44.3477L48.0448 48.946L45.8068 49.1369L44.7421 36.6532L48.4662 36.3355ZM48.4844 38.2008L47.1381 38.3156L47.4945 42.4944L48.5086 42.4079C49.1147 42.3562 49.6217 42.2425 50.0293 42.0668C50.4477 41.8785 50.7542 41.6175 50.9488 41.2839C51.1434 40.9503 51.2194 40.5329 51.1766 40.0317C51.118 39.344 50.8702 38.8485 50.4334 38.5453C49.9966 38.2421 49.347 38.1272 48.4844 38.2008ZM57.4673 38.597L58.2756 48.0734L56.0725 48.2613L55.2643 38.7849L57.4673 38.597ZM56.0541 35.0367C56.3805 35.0089 56.6735 35.072 56.9332 35.2259C57.1919 35.3682 57.3396 35.655 57.3764 36.0863C57.4122 36.5059 57.3157 36.8194 57.0868 37.0268C56.8569 37.2225 56.5788 37.3343 56.2524 37.3621C55.9144 37.391 55.6156 37.3284 55.3559 37.1744C55.1068 37.0078 54.9644 36.7147 54.9286 36.2951C54.8918 35.8638 54.9831 35.5566 55.2023 35.3736C55.4321 35.1778 55.7161 35.0656 56.0541 35.0367ZM64.2787 45.9588C64.5585 45.9349 64.8246 45.8887 65.077 45.8202C65.3285 45.7401 65.562 45.6556 65.7775 45.5668L65.9177 47.2103C65.6935 47.3351 65.3979 47.4483 65.0308 47.5501C64.6648 47.6635 64.2778 47.7376 63.8698 47.7724C63.3337 47.8181 62.8366 47.7725 62.3788 47.6354C61.9316 47.4857 61.5551 47.2008 61.2492 46.7807C60.955 46.3597 60.7741 45.7528 60.7065 44.9602L60.286 40.0297L59.0096 40.1385L58.9276 39.1769L60.2607 38.2883L60.7886 36.218L62.1698 36.1001L62.3473 38.1808L65.0399 37.9511L65.1815 39.6121L62.489 39.8418L62.908 44.7548C62.9458 45.1978 63.0907 45.52 63.3427 45.7216C63.5937 45.9115 63.9057 45.9906 64.2787 45.9588ZM71.34 47.1353C70.4425 47.2118 69.6471 47.1094 68.9538 46.828C68.2713 46.534 67.719 46.0469 67.297 45.3667C66.8857 44.6739 66.6323 43.7679 66.5369 42.649C66.4374 41.4833 66.5492 40.5228 66.8723 39.7673C67.2059 38.9992 67.7022 38.4167 68.3611 38.0201C69.019 37.6117 69.7909 37.3698 70.6767 37.2942C71.2712 37.2435 71.8065 37.2566 72.2827 37.3334C72.7589 37.4101 73.1671 37.5162 73.5074 37.6516L73.0081 39.4377C72.6349 39.3286 72.2636 39.2429 71.8943 39.1805C71.524 39.1064 71.1698 39.0837 70.8318 39.1126C70.3073 39.1573 69.8801 39.3112 69.5503 39.5741C69.2322 39.8361 69.0114 40.2071 68.888 40.6873C68.7636 41.1558 68.7312 41.7397 68.7908 42.4391C68.8485 43.1152 68.9783 43.6735 69.1803 44.1142C69.3939 44.5539 69.6797 44.8759 70.0376 45.0801C70.3945 45.2728 70.8235 45.3477 71.3248 45.305C71.8609 45.2592 72.3275 45.1549 72.7246 44.9919C73.1216 44.8288 73.4913 44.6212 73.8338 44.3689L73.9963 46.2747C73.6539 46.527 73.2768 46.7176 72.8652 46.8467C72.4662 46.9864 71.9578 47.0826 71.34 47.1353ZM77.2451 36.2585C77.2769 36.6315 77.2907 37.0001 77.2866 37.3645C77.2931 37.7161 77.2922 37.9804 77.2838 38.1572L77.4236 38.1453C77.5939 37.802 77.8164 37.5189 78.0909 37.2959C78.3644 37.0612 78.6715 36.8765 79.0122 36.7418C79.3646 36.606 79.7331 36.5218 80.1178 36.489C80.8288 36.4283 81.4512 36.4985 81.985 36.6996C82.5187 36.9006 82.9415 37.2461 83.2533 37.7361C83.5758 38.2135 83.7719 38.8601 83.8415 39.676L84.3679 45.848L82.1649 46.0359L81.6757 40.301C81.6141 39.5784 81.4285 39.0541 81.1189 38.7283C80.8093 38.4025 80.3515 38.2654 79.7454 38.3171C79.1626 38.3668 78.7131 38.5343 78.3969 38.8196C78.0798 39.0932 77.8722 39.4807 77.774 39.9822C77.6749 40.472 77.6552 41.0666 77.7148 41.766L78.1085 46.3818L75.9055 46.5697L74.7722 33.2817L76.9752 33.0938L77.2451 36.2585ZM94.1104 45.1931C93.0148 45.2866 92.0883 44.9547 91.331 44.1974C90.5843 43.4275 90.1419 42.2324 90.0037 40.6122C89.8655 38.992 90.105 37.7388 90.7221 36.8525C91.3383 35.9546 92.2058 35.458 93.3248 35.3625C93.7911 35.3227 94.2045 35.3521 94.5651 35.4505C94.9364 35.5362 95.2592 35.673 95.5335 35.861C95.8079 36.0489 96.0434 36.2636 96.2401 36.5052L96.345 36.4962C96.2961 36.336 96.2398 36.0884 96.176 35.7533C96.1122 35.4183 96.0678 35.1051 96.043 34.8137L95.7597 31.4917L97.9627 31.3038L99.096 44.5918L97.3826 44.7379L96.8746 43.5308L96.7871 43.5383C96.6342 43.8096 96.4389 44.067 96.2014 44.3103C95.9628 44.542 95.6742 44.7369 95.3354 44.8949C94.9967 45.053 94.5884 45.1524 94.1104 45.1931ZM94.6227 43.3531C95.4387 43.2835 95.9958 43.0011 96.294 42.5061C96.5923 42.011 96.7012 41.2914 96.6206 40.3472L96.5968 40.0675C96.5093 39.0417 96.2795 38.2747 95.9074 37.7663C95.5469 37.257 94.9296 37.0396 94.0554 37.1142C93.391 37.1708 92.902 37.4943 92.5884 38.0846C92.2737 38.6633 92.1592 39.4539 92.2447 40.4563C92.3302 41.4587 92.576 42.2068 92.9821 42.7005C93.3881 43.1942 93.935 43.4117 94.6227 43.3531ZM104.549 34.4052C105.4 34.3326 106.144 34.4453 106.78 34.7433C107.426 35.0286 107.946 35.4774 108.339 36.0897C108.73 36.6903 108.965 37.4452 109.042 38.3543L109.138 39.4733L102.878 40.0072C102.975 40.8678 103.271 41.5176 103.767 41.9567C104.261 42.3842 104.911 42.5637 105.715 42.4951C106.333 42.4424 106.875 42.3374 107.343 42.18C107.822 42.0101 108.308 41.7866 108.801 41.5098L108.951 43.2757C108.504 43.5369 108.034 43.7414 107.542 43.889C107.05 44.0367 106.454 44.1403 105.755 44.2C104.834 44.2785 103.997 44.1738 103.245 43.8857C102.503 43.585 101.897 43.0907 101.427 42.4028C100.969 41.714 100.695 40.8333 100.603 39.761C100.511 38.677 100.614 37.7524 100.913 36.9872C101.222 36.2094 101.687 35.6062 102.308 35.1775C102.928 34.7372 103.675 34.4797 104.549 34.4052ZM104.688 36.0312C104.105 36.0809 103.644 36.314 103.303 36.7305C102.974 37.1343 102.806 37.7122 102.8 38.4641L106.874 38.1166C106.836 37.6737 106.727 37.2897 106.546 36.9646C106.378 36.6385 106.14 36.3946 105.832 36.233C105.524 36.0597 105.143 35.9924 104.688 36.0312ZM115.214 43.3931C114.317 43.4697 113.522 43.3673 112.828 43.0859C112.146 42.7919 111.593 42.3048 111.171 41.6246C110.76 40.9317 110.507 40.0258 110.411 38.9068C110.312 37.7412 110.424 36.7806 110.747 36.0252C111.08 35.257 111.577 34.6746 112.236 34.2779C112.893 33.8696 113.665 33.6276 114.551 33.5521C115.146 33.5014 115.681 33.5144 116.157 33.5912C116.633 33.668 117.042 33.7741 117.382 33.9094L116.883 35.6955C116.509 35.5865 116.138 35.5007 115.769 35.4383C115.398 35.3642 115.044 35.3416 114.706 35.3704C114.182 35.4152 113.755 35.569 113.425 35.832C113.107 36.0939 112.886 36.465 112.762 36.9451C112.638 37.4136 112.606 37.9976 112.665 38.697C112.723 39.373 112.853 39.9314 113.055 40.372C113.268 40.8117 113.554 41.1337 113.912 41.338C114.269 41.5306 114.698 41.6056 115.199 41.5628C115.735 41.5171 116.202 41.4127 116.599 41.2497C116.996 41.0867 117.366 40.879 117.708 40.6268L117.871 42.5325C117.528 42.7848 117.151 42.9755 116.74 43.1045C116.341 43.2442 115.832 43.3404 115.214 43.3931ZM121.371 35.665C121.396 35.968 121.412 36.2896 121.418 36.6296C121.422 36.958 121.426 37.2805 121.43 37.5972L121.482 37.5927C121.563 37.4449 121.661 37.2839 121.776 37.1098C121.889 36.924 122.003 36.7441 122.117 36.5699C122.242 36.3832 122.363 36.2144 122.479 36.0636L125.021 32.8352L127.522 32.6219L124.076 37.0368L128.575 42.0775L126.004 42.2967L122.721 38.4909L121.697 39.494L121.966 42.6412L119.78 42.8276L118.647 29.5396L120.832 29.3532L121.371 35.665ZM135.927 38.6854C135.98 39.3149 135.875 39.864 135.609 40.3327C135.343 40.7899 134.922 41.1545 134.347 41.4267C133.783 41.6979 133.075 41.8697 132.224 41.9423C131.56 41.999 130.985 42.0011 130.499 41.9486C130.013 41.8961 129.546 41.7892 129.098 41.6278L128.938 39.757C129.423 39.9387 129.958 40.0809 130.542 40.1838C131.126 40.2866 131.663 40.3171 132.153 40.2753C132.759 40.2236 133.188 40.0931 133.44 39.8838C133.692 39.6744 133.805 39.4123 133.778 39.0976C133.762 38.9111 133.695 38.7466 133.577 38.604C133.46 38.4614 133.242 38.3215 132.925 38.1841C132.607 38.0351 132.128 37.8588 131.489 37.655C130.862 37.4619 130.334 37.2604 129.905 37.0504C129.488 36.8395 129.16 36.5739 128.921 36.2538C128.693 35.921 128.557 35.4923 128.512 34.9678C128.44 34.1169 128.723 33.447 129.362 32.958C130.001 32.4574 130.873 32.1599 131.981 32.0655C132.563 32.0158 133.116 32.0273 133.639 32.1001C134.173 32.1603 134.712 32.2904 135.257 32.4905L134.697 34.1761C134.394 34.0728 134.094 33.9869 133.794 33.9185C133.505 33.8375 133.213 33.7802 132.917 33.7468C132.632 33.7124 132.344 33.7076 132.052 33.7324C131.574 33.7732 131.22 33.8798 130.988 34.0522C130.755 34.2129 130.649 34.4215 130.671 34.678C130.688 34.8761 130.761 35.046 130.891 35.1876C131.031 35.3165 131.259 35.4438 131.575 35.5695C131.902 35.6825 132.361 35.8313 132.952 36.0157C133.542 36.1884 134.045 36.3803 134.462 36.5913C134.89 36.7896 135.23 37.0542 135.481 37.385C135.732 37.7157 135.881 38.1492 135.927 38.6854Z" fill="#445266"/>
<defs>
<filter id="filter0_d_55_14" x="3.44202" y="2.49268" width="177.298" height="75.1492" filterUnits="userSpaceOnUse" color-interpolation-filters="sRGB">
<feFlood flood-opacity="0" result="BackgroundImageFix"/>
<feColorMatrix in="SourceAlpha" type="matrix" values="0 0 0 0 0 0 0 0 0 0 0 0 0 0 0 0 0 0 127 0" result="hardAlpha"/>
<feOffset dy="0.974872"/>
<feComposite in2="hardAlpha" operator="out"/>
<feColorMatrix type="matrix" values="0 0 0 0 1 0 0 0 0 1 0 0 0 0 1 0 0 0 0.25 0"/>
<feBlend mode="normal" in2="BackgroundImageFix" result="effect1_dropShadow_55_14"/>
<feBlend mode="normal" in="SourceGraphic" in2="effect1_dropShadow_55_14" result="shape"/>
</filter>
<linearGradient id="paint0_linear_55_14" x1="65.4263" y1="97.952" x2="8.25197" y2="97.952" gradientUnits="userSpaceOnUse">
<stop stop-color="#AFAFAF"/>
<stop offset="1" stop-color="#D9D9D9" stop-opacity="0"/>
</linearGradient>
<linearGradient id="paint1_linear_55_14" x1="4.57544" y1="71.1275" x2="168.33" y2="58.6378" gradientUnits="userSpaceOnUse">
<stop stop-color="#D9D9D9"/>
<stop offset="0.0001" stop-color="#BF8279"/>
<stop offset="1" stop-color="#5451D8"/>
</linearGradient>
<linearGradient id="paint2_linear_55_14" x1="51.2974" y1="6.36632" x2="100.794" y2="77.1414" gradientUnits="userSpaceOnUse">
<stop stop-color="white"/>
<stop offset="1" stop-opacity="0"/>
</linearGradient>
<linearGradient id="paint3_linear_55_14" x1="95.2427" y1="80.3795" x2="67.9503" y2="8.67923" gradientUnits="userSpaceOnUse">
<stop/>
<stop offset="1" stop-opacity="0"/>
</linearGradient>
<linearGradient id="paint4_linear_55_14" x1="71.009" y1="60.4132" x2="8.95609" y2="60.4132" gradientUnits="userSpaceOnUse">
<stop/>
<stop offset="1" stop-color="#D9D9D9" stop-opacity="0"/>
</linearGradient>
<linearGradient id="paint5_linear_55_14" x1="71.009" y1="60.4132" x2="8.95609" y2="60.4132" gradientUnits="userSpaceOnUse">
<stop/>
<stop offset="1" stop-color="#D9D9D9" stop-opacity="0"/>
</linearGradient>
<linearGradient id="paint6_linear_55_14" x1="64.9041" y1="97.952" x2="8.18611" y2="97.952" gradientUnits="userSpaceOnUse">
<stop/>
<stop offset="1" stop-color="#D9D9D9" stop-opacity="0"/>
</linearGradient>
<linearGradient id="paint7_linear_55_14" x1="73.7815" y1="73.598" x2="9.30578" y2="73.598" gradientUnits="userSpaceOnUse">
<stop/>
<stop offset="1" stop-color="#D9D9D9" stop-opacity="0"/>
</linearGradient>
</defs>
</svg>
