<svg xmlns="http://www.w3.org/2000/svg" width="20" height="20" fill="#fdfdfe" xmlns:v="https://vecta.io/nano"><path d="M12.693 2.265c1.729-.951 3.673-1.444 5.646-1.432.458.003.828.375.828.833 0 2.342-.657 6.423-4.877 9.514a10.93 10.93 0 0 1 .208 1.124c.061.473.095 1.017.045 1.553-.049.528-.185 1.11-.516 1.606l-.001.001c-.566.846-1.633 1.336-2.378 1.607-.401.145-.771.248-1.04.315a8.83 8.83 0 0 1-.419.094c-.257.049-.519-.002-.722-.173-.19-.158-.299-.393-.299-.64v-3.822l-2.012-2.012H3.333c-.247 0-.481-.11-.64-.299s-.224-.44-.18-.683a7.51 7.51 0 0 1 .102-.459c.067-.269.17-.639.315-1.04.27-.745.761-1.812 1.606-2.378l.001-.001c.496-.331 1.077-.467 1.606-.516.536-.05 1.08-.015 1.553.045.438.056.834.138 1.133.21 1.009-1.424 2.329-2.604 3.864-3.448z"/><path fill-rule="evenodd" d="M5.003 12.49a2.65 2.65 0 0 0-1.789.622c-.439.369-.761.877-1 1.366-.243.498-.429 1.036-.567 1.52l-.297 1.26-.069.392-.023.154v.001c-.034.257.053.516.237.7s.443.271.7.237l.155-.023.392-.069 1.26-.297c.483-.138 1.021-.323 1.52-.567.489-.239.997-.561 1.366-1 .851-1.008.864-2.577-.127-3.555l-.01-.01a2.65 2.65 0 0 0-1.748-.732z"/></svg>