<svg width="326" height="167" viewBox="0 0 326 167" fill="none" xmlns="http://www.w3.org/2000/svg">
<g opacity="0.4" filter="url(#filter0_f_55_19)">
<path d="M29.99 96.8759C41.4633 108.215 78.0909 137.348 166.452 135.733C256.655 143.134 305.226 123.778 273.086 74.5068C251.467 41.366 203.354 30.8122 114.993 32.4276C26.6321 34.0431 31.106 64.3818 29.99 96.8759Z" fill="url(#paint0_radial_55_19)"/>
</g>
<g opacity="0.4" filter="url(#filter1_f_55_19)">
<path d="M179.742 97.3294C178.672 128.489 208.437 118.911 246.465 118.216C284.494 117.52 299.882 97.2996 295.913 72.0428C287.925 40.5206 266.719 29.4536 228.691 30.1488C190.662 30.8441 180.812 66.1696 179.742 97.3294Z" fill="url(#paint1_radial_55_19)"/>
</g>
<g filter="url(#filter2_f_55_19)">
<path d="M44.1192 84.3834C101.529 111.663 164.622 124.608 214.623 130.271C264.625 135.934 266.575 123.723 269.663 109.929C272.751 96.1349 234.72 80.3616 184.718 74.6983C134.717 69.0351 64.9725 78.5309 44.1192 84.3834Z" fill="url(#paint2_radial_55_19)" fill-opacity="0.3"/>
</g>
<defs>
<filter id="filter0_f_55_19" x="0.743816" y="3.0236" width="311.52" height="163.483" filterUnits="userSpaceOnUse" color-interpolation-filters="sRGB">
<feFlood flood-opacity="0" result="BackgroundImageFix"/>
<feBlend mode="normal" in="SourceGraphic" in2="BackgroundImageFix" result="shape"/>
<feGaussianBlur stdDeviation="14.6231" result="effect1_foregroundBlur_55_19"/>
</filter>
<filter id="filter1_f_55_19" x="150.468" y="0.87199" width="175.298" height="148.514" filterUnits="userSpaceOnUse" color-interpolation-filters="sRGB">
<feFlood flood-opacity="0" result="BackgroundImageFix"/>
<feBlend mode="normal" in="SourceGraphic" in2="BackgroundImageFix" result="shape"/>
<feGaussianBlur stdDeviation="14.6231" result="effect1_foregroundBlur_55_19"/>
</filter>
<filter id="filter2_f_55_19" x="35.3453" y="64.1871" width="243.267" height="76.2765" filterUnits="userSpaceOnUse" color-interpolation-filters="sRGB">
<feFlood flood-opacity="0" result="BackgroundImageFix"/>
<feBlend mode="normal" in="SourceGraphic" in2="BackgroundImageFix" result="shape"/>
<feGaussianBlur stdDeviation="4.38693" result="effect1_foregroundBlur_55_19"/>
</filter>
<radialGradient id="paint0_radial_55_19" cx="0" cy="0" r="1" gradientUnits="userSpaceOnUse" gradientTransform="translate(110.136 98.2885) rotate(91.4032) scale(52.0236 140.06)">
<stop stop-color="#8F92A7"/>
<stop offset="1" stop-color="#D9D9D9" stop-opacity="0"/>
</radialGradient>
<radialGradient id="paint1_radial_55_19" cx="0" cy="0" r="1" gradientUnits="userSpaceOnUse" gradientTransform="translate(225.405 93.2803) rotate(91.7141) scale(49.8998 60.2636)">
<stop stop-color="#8F92A7"/>
<stop offset="1" stop-color="#D9D9D9" stop-opacity="0"/>
</radialGradient>
<radialGradient id="paint2_radial_55_19" cx="0" cy="0" r="1" gradientUnits="userSpaceOnUse" gradientTransform="translate(176.924 105.648) rotate(90.0048) scale(19.3865 68.798)">
<stop stop-color="#4457FF"/>
<stop offset="1" stop-color="#D9D9D9" stop-opacity="0"/>
</radialGradient>
</defs>
</svg>
