<svg width="191" height="85" viewBox="0 0 191 85" fill="none" xmlns="http://www.w3.org/2000/svg">
<g filter="url(#filter0_d_55_18)">
<path d="M3.70551 33.5282C4.62822 15.123 20.2966 0.950638 38.7018 1.87334L156.736 7.79074C175.141 8.71345 189.314 24.3818 188.391 42.787C187.468 61.1922 171.8 75.3646 153.395 74.4419L35.3604 68.5245C16.9552 67.6018 2.78281 51.9334 3.70551 33.5282Z" fill="#1F2024"/>
</g>
<mask id="mask0_55_18" style="mask-type:alpha" maskUnits="userSpaceOnUse" x="3" y="1" width="186" height="74">
<path d="M3.70551 33.5282C4.62822 15.123 20.2966 0.950638 38.7018 1.87334L156.736 7.79074C175.141 8.71345 189.314 24.3818 188.391 42.787C187.468 61.1922 171.8 75.3646 153.395 74.4419L35.3604 68.5245C16.9552 67.6018 2.78281 51.9334 3.70551 33.5282Z" fill="#1F2024"/>
</mask>
<g mask="url(#mask0_55_18)">
<rect opacity="0.5" width="64.5577" height="197.342" transform="matrix(0.312131 -0.950039 0.959617 0.281309 43.9072 20.8271)" fill="url(#paint0_linear_55_18)"/>
</g>
<path d="M8.18522 34.1455C9.25075 17.3778 23.5912 4.57794 40.3717 5.41674L156.632 11.2282C174.247 12.1087 187.57 27.5046 185.911 45.0638C184.348 61.6081 170.003 73.9679 153.409 73.0679L37.1748 66.7632C20.1251 65.8384 7.10237 51.1858 8.18522 34.1455Z" fill="url(#paint1_linear_55_18)"/>
<g filter="url(#filter1_d_55_18)">
<path d="M7.07888 35.275C8.11049 18.8423 22.2681 6.35728 38.7008 7.38889L156.071 14.7571C172.503 15.7887 184.988 29.9463 183.957 46.379C182.925 62.8117 168.767 75.2967 152.335 74.2651L34.965 66.8968C18.5323 65.8652 6.04728 51.7076 7.07888 35.275Z" fill="#F6F6F6"/>
</g>
<path d="M7.07888 35.275C8.11049 18.8423 22.2681 6.35728 38.7008 7.38889L156.071 14.7571C172.503 15.7887 184.988 29.9463 183.957 46.379C182.925 62.8117 168.767 75.2967 152.335 74.2651L34.965 66.8968C18.5323 65.8652 6.04728 51.7076 7.07888 35.275Z" fill="#F6F6F6"/>
<mask id="mask1_55_18" style="mask-type:alpha" maskUnits="userSpaceOnUse" x="7" y="7" width="178" height="68">
<path d="M7.07888 35.275C8.11049 18.8423 22.2681 6.35728 38.7008 7.38889L156.071 14.7571C172.503 15.7887 184.988 29.9463 183.957 46.379C182.925 62.8117 168.767 75.2967 152.335 74.2651L34.965 66.8968C18.5323 65.8652 6.04728 51.7076 7.07888 35.275Z" fill="#F6F6F6"/>
</mask>
<g mask="url(#mask1_55_18)">
<rect opacity="0.3" width="65.4392" height="92.8163" transform="matrix(-0.968714 0.24818 -0.279313 -0.9602 69.9255 81.5347)" fill="url(#paint2_linear_55_18)"/>
<rect opacity="0.3" width="58.8843" height="209.188" transform="matrix(-0.157315 0.987548 -0.992111 -0.125363 193.095 38.0161)" fill="url(#paint3_linear_55_18)"/>
</g>
<path d="M10.7304 36.0055C11.6257 21.7432 23.9134 10.9072 38.1757 11.8026L154.977 19.1351C169.24 20.0305 180.076 32.3182 179.18 46.5804C178.285 60.8427 165.997 71.6787 151.735 70.7833L34.9333 63.4508C20.671 62.5554 9.83502 50.2678 10.7304 36.0055Z" fill="#FDFDFE"/>
<mask id="mask2_55_18" style="mask-type:alpha" maskUnits="userSpaceOnUse" x="10" y="11" width="170" height="60">
<path d="M10.7304 36.0055C11.6257 21.7432 23.9134 10.9072 38.1757 11.8026L154.977 19.1351C169.24 20.0305 180.076 32.3182 179.18 46.5804C178.285 60.8427 165.997 71.6787 151.735 70.7833L34.9333 63.4508C20.671 62.5554 9.83502 50.2678 10.7304 36.0055Z" fill="#E5E7E7"/>
</mask>
<g mask="url(#mask2_55_18)">
<rect opacity="0.1" width="56.7607" height="81.0185" transform="matrix(-0.991165 0.132632 -0.16455 -0.986369 60.8735 73.366)" fill="url(#paint4_linear_55_18)"/>
<rect opacity="0.1" width="56.7607" height="185.464" transform="matrix(0.291752 -0.956494 0.965411 0.260733 3.19751 27.9216)" fill="url(#paint5_linear_55_18)"/>
</g>
<path d="M54.9741 40.1352C54.9276 40.8707 54.7064 41.4956 54.3105 42.0098C53.9146 42.524 53.363 42.9052 52.6557 43.1535C51.9601 43.4026 51.1395 43.4973 50.1938 43.4375C49.7385 43.4087 49.3025 43.3518 48.8859 43.2669C48.4802 43.1943 48.0939 43.0937 47.7269 42.965C47.3716 42.8371 47.0412 42.6872 46.7355 42.5155L46.8684 40.414C47.379 40.6807 47.9433 40.9333 48.5612 41.1716C49.1798 41.3982 49.8161 41.5322 50.4699 41.5736C50.9719 41.6053 51.3846 41.5669 51.7079 41.4584C52.0437 41.339 52.2948 41.1673 52.4614 40.9434C52.6287 40.7078 52.7223 40.4324 52.7422 40.1172C52.7643 39.7669 52.6839 39.463 52.5009 39.2052C52.318 38.9475 52.0405 38.7014 51.6685 38.4669C51.2965 38.2324 50.8318 37.9803 50.2745 37.7106C49.8996 37.5228 49.5316 37.3178 49.1705 37.0957C48.8219 36.8627 48.5108 36.591 48.2374 36.2807C47.964 35.9704 47.7522 35.6112 47.6022 35.2032C47.4522 34.7951 47.3941 34.3226 47.4281 33.7855C47.4731 33.0734 47.6811 32.4711 48.0522 31.9788C48.4349 31.4872 48.9442 31.1268 49.5799 30.8973C50.2274 30.6687 50.9655 30.5805 51.7945 30.6329C52.46 30.675 53.0802 30.7845 53.6551 30.9616C54.23 31.1386 54.7953 31.3736 55.3512 31.6666L54.5191 33.425C54.0194 33.1707 53.5343 32.9642 53.0638 32.8055C52.5932 32.6468 52.1069 32.5516 51.6049 32.5199C51.2079 32.4948 50.8653 32.5376 50.5769 32.6483C50.2894 32.7474 50.0685 32.9034 49.9144 33.1163C49.7603 33.3293 49.674 33.5817 49.6555 33.8736C49.6341 34.2122 49.7036 34.5038 49.864 34.7483C50.0243 34.9929 50.2788 35.2317 50.6275 35.4647C50.9885 35.6868 51.4528 35.9448 52.0203 36.2385C52.679 36.5732 53.2319 36.9129 53.679 37.2577C54.1261 37.6024 54.464 38.0048 54.6928 38.4647C54.9217 38.9246 55.0154 39.4814 54.9741 40.1352ZM60.337 42.3029C60.6172 42.3206 60.8872 42.3142 61.147 42.2837C61.4075 42.2416 61.6509 42.1925 61.8772 42.1365L61.7731 43.7827C61.533 43.873 61.2239 43.9414 60.8459 43.9878C60.4671 44.0459 60.0734 44.062 59.6648 44.0362C59.1277 44.0023 58.6429 43.8837 58.2103 43.6805C57.7901 43.4664 57.4598 43.129 57.2193 42.6684C56.9905 42.2085 56.9012 41.5816 56.9514 40.7877L57.2636 35.8491L55.9852 35.7683L56.0461 34.8051L57.4958 34.1231L58.3236 32.1534L59.7071 32.2409L59.5754 34.3249L62.2723 34.4954L62.1672 36.1591L59.4702 35.9886L59.1591 40.9097C59.1311 41.3533 59.2268 41.6935 59.4463 41.9301C59.6665 42.155 59.9634 42.2792 60.337 42.3029ZM72.1002 39.864C72.05 40.6579 71.9006 41.3518 71.6521 41.9456C71.4035 42.5394 71.0672 43.0398 70.6429 43.4467C70.231 43.8426 69.7321 44.1334 69.1459 44.3191C68.5723 44.4938 67.941 44.5594 67.2522 44.5159C66.5983 44.4745 66.0037 44.3315 65.4683 44.0866C64.9336 43.8301 64.4752 43.4788 64.0931 43.0326C63.7235 42.5755 63.4469 42.0364 63.2635 41.4153C63.08 40.7942 63.0134 40.0867 63.0636 39.2927C63.13 38.242 63.3671 37.3661 63.7748 36.6651C64.1832 35.9525 64.7378 35.4307 65.4386 35.1C66.1518 34.7582 66.9754 34.6169 67.9094 34.6759C68.7967 34.732 69.5609 34.9737 70.202 35.4011C70.8556 35.8175 71.3517 36.4057 71.6905 37.1655C72.03 37.9138 72.1666 38.8133 72.1002 39.864ZM65.3227 39.4356C65.2807 40.101 65.3204 40.6779 65.4419 41.1662C65.5758 41.6435 65.7985 42.0151 66.1099 42.281C66.433 42.5476 66.8572 42.6975 67.3826 42.7307C67.9197 42.7646 68.3594 42.6693 68.7018 42.4448C69.0559 42.2211 69.3236 41.8805 69.5049 41.4231C69.6869 40.954 69.799 40.3867 69.841 39.7212C69.8838 39.044 69.8379 38.4726 69.7032 38.007C69.581 37.5304 69.3579 37.1646 69.0341 36.9097C68.7227 36.6439 68.3043 36.4943 67.7789 36.4611C66.985 36.4109 66.3901 36.6429 65.9943 37.1571C65.61 37.672 65.3862 38.4315 65.3227 39.4356ZM79.3147 35.3969C79.4548 35.4058 79.6179 35.422 79.8039 35.4455C79.99 35.4689 80.1461 35.5023 80.2724 35.5454L79.9502 37.5822C79.8466 37.5522 79.7076 37.5258 79.5332 37.5031C79.3712 37.4694 79.226 37.4485 79.0976 37.4404C78.7473 37.4183 78.4051 37.4552 78.0708 37.5513C77.7489 37.6365 77.4525 37.7818 77.1817 37.9874C76.9232 38.1821 76.7074 38.4439 76.5342 38.7729C76.3727 39.1026 76.2772 39.501 76.2477 39.968L75.9366 44.8891L73.7299 44.7496L74.33 35.2576L76.0287 35.365L76.2399 37.0312L76.345 37.0378C76.5532 36.711 76.8059 36.4222 77.1031 36.1714C77.401 35.9089 77.7361 35.7074 78.1083 35.5668C78.4923 35.427 78.8944 35.3704 79.3147 35.3969ZM80.2572 35.6324L82.6565 35.784L84.2091 41.2625C84.2761 41.5012 84.3317 41.7333 84.3761 41.9588C84.4328 42.1734 84.4776 42.393 84.5102 42.6178C84.5429 42.8426 84.5639 43.0666 84.5732 43.29L84.6433 43.2944C84.7084 43.0055 84.7988 42.6888 84.9143 42.3445C85.0416 42.0009 85.1684 41.6631 85.2949 41.3311L87.455 36.0874L89.8367 36.238L85.1115 46.735C84.8389 47.3391 84.5076 47.8515 84.1176 48.2722C83.7393 48.6937 83.298 48.9999 82.7936 49.1907C82.3001 49.394 81.7499 49.4764 81.1428 49.438C80.8625 49.4203 80.6126 49.3869 80.393 49.3379C80.1844 49.3013 79.9994 49.2603 79.8382 49.2149L79.9489 47.4636C80.0758 47.4951 80.2261 47.528 80.3998 47.5625C80.5851 47.5976 80.777 47.6215 80.9755 47.634C81.3374 47.6569 81.6516 47.6006 81.918 47.465C82.1954 47.3419 82.4298 47.1575 82.6212 46.9117C82.8242 46.6666 82.9941 46.3902 83.1308 46.0823L83.4597 45.3295L80.2572 35.6324ZM93.1515 35.7794C93.1279 36.153 93.0933 36.5142 93.0478 36.8629C93.0023 37.2117 92.9616 37.4846 92.9257 37.6816L93.0308 37.6882C93.3128 37.3075 93.684 36.9969 94.1447 36.7565C94.606 36.5043 95.1928 36.4007 95.905 36.4457C97.0142 36.5159 97.8811 36.9868 98.5059 37.8585C99.1306 38.7303 99.3921 39.9717 99.2902 41.5829C99.2216 42.6687 99.0064 43.5694 98.6446 44.285C98.2946 45.0014 97.8217 45.5283 97.226 45.8657C96.6427 46.1922 95.9775 46.3318 95.2303 46.2846C94.5181 46.2396 93.9541 46.075 93.5384 45.7908C93.1343 45.5074 92.8146 45.1883 92.5791 44.8334L92.4215 44.8235L91.9489 45.9013L90.3027 45.7973L91.1442 32.4876L93.3508 32.6271L93.1515 35.7794ZM95.1616 38.1922C94.6246 38.1582 94.1918 38.2364 93.8633 38.4266C93.5464 38.6176 93.3043 38.9246 93.1369 39.3477C92.9695 39.7709 92.8647 40.3152 92.8227 40.9806L92.8105 41.1733C92.7463 42.189 92.849 42.975 93.1186 43.5313C93.3999 44.0883 93.9608 44.3933 94.8014 44.4465C95.4552 44.4878 95.9742 44.251 96.3584 43.7361C96.7434 43.2095 96.968 42.4383 97.0322 41.4226C97.0971 40.3952 96.9649 39.6132 96.6354 39.0766C96.3184 38.5291 95.8271 38.2343 95.1616 38.1922ZM109.692 42.2405C109.642 43.0344 109.493 43.7283 109.244 44.3221C108.996 44.9159 108.659 45.4163 108.235 45.8232C107.823 46.2191 107.324 46.5099 106.738 46.6956C106.164 46.8703 105.533 46.9359 104.844 46.8924C104.191 46.851 103.596 46.708 103.06 46.4631C102.526 46.2066 102.067 45.8553 101.685 45.4091C101.316 44.9521 101.039 44.4129 100.856 43.7918C100.672 43.1707 100.606 42.4632 100.656 41.6693C100.722 40.6185 100.959 39.7426 101.367 39.0416C101.775 38.329 102.33 37.8073 103.031 37.4765C103.744 37.1347 104.568 36.9934 105.502 37.0524C106.389 37.1085 107.153 37.3502 107.794 37.7776C108.448 38.194 108.944 38.7822 109.283 39.5421C109.622 40.2903 109.759 41.1898 109.692 42.2405ZM102.915 41.8121C102.873 42.4776 102.913 43.0544 103.034 43.5427C103.168 44.0201 103.391 44.3916 103.702 44.6575C104.025 44.9241 104.449 45.074 104.975 45.1072C105.512 45.1411 105.952 45.0459 106.294 44.8213C106.648 44.5976 106.916 44.257 107.097 43.7996C107.279 43.3305 107.391 42.7632 107.433 42.0977C107.476 41.4205 107.43 40.8491 107.295 40.3835C107.173 39.9069 106.95 39.5411 106.626 39.2862C106.315 39.0204 105.897 38.8708 105.371 38.8376C104.577 38.7874 103.982 39.0194 103.586 39.5336C103.202 40.0485 102.978 40.808 102.915 41.8121ZM115.716 37.6982C116.942 37.7757 117.853 38.1029 118.45 38.6798C119.059 39.2458 119.327 40.095 119.256 41.2275L118.853 47.6021L117.294 47.5036L116.939 46.1625L116.869 46.158C116.579 46.4796 116.281 46.748 115.974 46.963C115.68 47.1671 115.343 47.3041 114.964 47.3739C114.595 47.4561 114.148 47.4805 113.623 47.4473C113.062 47.4119 112.561 47.2747 112.119 47.0358C111.689 46.7976 111.359 46.4544 111.129 46.0062C110.9 45.5463 110.807 44.9836 110.849 44.3181C110.911 43.3374 111.314 42.6243 112.057 42.179C112.812 41.7227 113.921 41.5174 115.384 41.5629L117.033 41.6145L117.063 41.1416C117.102 40.5345 116.983 40.0933 116.707 39.818C116.432 39.5427 116.031 39.3884 115.506 39.3552C115.027 39.325 114.562 39.3659 114.109 39.4779C113.656 39.59 113.214 39.7261 112.782 39.8864L112.179 38.3009C112.661 38.0853 113.205 37.9204 113.81 37.8063C114.427 37.6929 115.062 37.6568 115.716 37.6982ZM115.789 42.9424C114.818 42.9162 114.136 43.043 113.743 43.323C113.351 43.5912 113.139 43.9764 113.107 44.4784C113.079 44.9221 113.193 45.2516 113.449 45.4671C113.705 45.6825 114.043 45.8035 114.463 45.8301C115.106 45.8707 115.66 45.7241 116.126 45.3902C116.594 45.0446 116.85 44.5099 116.896 43.7861L116.947 42.9805L115.789 42.9424ZM126.852 38.4022C126.992 38.411 127.155 38.4272 127.341 38.4507C127.528 38.4742 127.684 38.5075 127.81 38.5506L127.488 40.5874C127.384 40.5574 127.245 40.5311 127.071 40.5083C126.909 40.4746 126.764 40.4537 126.635 40.4456C126.285 40.4235 125.943 40.4605 125.608 40.5565C125.286 40.6417 124.99 40.7871 124.719 40.9926C124.461 41.1873 124.245 41.4491 124.072 41.7781C123.91 42.1078 123.815 42.5062 123.785 42.9732L123.474 47.8943L121.267 47.7548L121.868 38.2629L123.566 38.3703L123.777 40.0364L123.883 40.043C124.091 39.7163 124.343 39.4275 124.641 39.1767C124.939 38.9142 125.274 38.7126 125.646 38.5721C126.03 38.4322 126.432 38.3756 126.852 38.4022ZM131.395 48.5708C130.297 48.5015 129.43 48.0364 128.793 47.1756C128.168 46.3038 127.907 45.0565 128.01 43.4337C128.112 41.8108 128.534 40.6067 129.275 39.8213C130.017 39.0243 130.949 38.6611 132.07 38.732C132.537 38.7615 132.941 38.8516 133.283 39.0021C133.638 39.1418 133.937 39.3248 134.181 39.5512C134.424 39.7776 134.625 40.0247 134.784 40.2927L134.889 40.2993C134.865 40.1336 134.845 39.8804 134.832 39.5396C134.818 39.1988 134.821 38.8825 134.839 38.5906L135.049 35.2632L137.256 35.4027L136.415 48.7124L134.698 48.6039L134.374 47.335L134.287 47.3295C134.095 47.5752 133.864 47.8009 133.593 48.0065C133.323 48.2004 133.009 48.3505 132.65 48.4568C132.292 48.5631 131.874 48.6011 131.395 48.5708ZM132.173 46.8266C132.991 46.8783 133.583 46.6813 133.951 46.2357C134.319 45.7901 134.533 45.0945 134.593 44.1488L134.611 43.8686C134.676 42.8412 134.562 42.0486 134.269 41.4909C133.988 40.9339 133.409 40.6277 132.534 40.5724C131.868 40.5303 131.337 40.778 130.939 41.3155C130.543 41.8414 130.313 42.6063 130.249 43.6104C130.186 44.6145 130.318 45.3906 130.647 45.9389C130.976 46.4872 131.484 46.7831 132.173 46.8266ZM145.52 46.5275C145.48 47.1579 145.294 47.6854 144.962 48.1098C144.631 48.5226 144.161 48.8211 143.552 49.0053C142.954 49.1902 142.229 49.2558 141.377 49.2019C140.711 49.1598 140.142 49.0769 139.669 48.9533C139.197 48.8296 138.75 48.6549 138.331 48.4291L138.45 46.5552C138.902 46.8066 139.41 47.0262 139.973 47.2142C140.535 47.4021 141.062 47.5116 141.552 47.5426C142.159 47.581 142.603 47.5153 142.883 47.3454C143.163 47.1756 143.314 46.9331 143.334 46.6178C143.345 46.431 143.304 46.2584 143.208 46.1C143.113 45.9416 142.918 45.7711 142.625 45.5884C142.333 45.3941 141.885 45.149 141.282 44.853C140.691 44.5694 140.198 44.2921 139.805 44.0211C139.424 43.7509 139.139 43.4398 138.95 43.0879C138.774 42.7251 138.702 42.281 138.735 41.7556C138.789 40.9034 139.168 40.2826 139.873 39.8935C140.578 39.4926 141.485 39.3272 142.594 39.3974C143.178 39.4343 143.723 39.5273 144.23 39.6766C144.748 39.8148 145.263 40.0232 145.772 40.3016L144.969 41.886C144.685 41.7391 144.4 41.6097 144.114 41.4979C143.841 41.3751 143.56 41.2753 143.272 41.1985C142.995 41.1224 142.711 41.0751 142.419 41.0566C141.94 41.0264 141.574 41.0794 141.319 41.2157C141.065 41.3403 140.93 41.531 140.914 41.7878C140.901 41.9863 140.948 42.1651 141.055 42.3243C141.175 42.4725 141.382 42.6321 141.676 42.8031C141.982 42.9631 142.414 43.178 142.971 43.4476C143.529 43.7056 143.999 43.9698 144.381 44.24C144.774 44.4994 145.071 44.8112 145.271 45.1755C145.471 45.5397 145.553 45.9904 145.52 46.5275Z" fill="#445266"/>
<defs>
<filter id="filter0_d_55_18" x="0.738224" y="1.83081" width="187.695" height="74.6036" filterUnits="userSpaceOnUse" color-interpolation-filters="sRGB">
<feFlood flood-opacity="0" result="BackgroundImageFix"/>
<feColorMatrix in="SourceAlpha" type="matrix" values="0 0 0 0 0 0 0 0 0 0 0 0 0 0 0 0 0 0 127 0" result="hardAlpha"/>
<feOffset dx="-1.94974" dy="0.974872"/>
<feGaussianBlur stdDeviation="0.487436"/>
<feComposite in2="hardAlpha" operator="out"/>
<feColorMatrix type="matrix" values="0 0 0 0 1 0 0 0 0 1 0 0 0 0 1 0 0 0 0.25 0"/>
<feBlend mode="normal" in2="BackgroundImageFix" result="effect1_dropShadow_55_18"/>
<feBlend mode="normal" in="SourceGraphic" in2="effect1_dropShadow_55_18" result="shape"/>
</filter>
<filter id="filter1_d_55_18" x="1.17005" y="5.3796" width="188.696" height="78.6938" filterUnits="userSpaceOnUse" color-interpolation-filters="sRGB">
<feFlood flood-opacity="0" result="BackgroundImageFix"/>
<feColorMatrix in="SourceAlpha" type="matrix" values="0 0 0 0 0 0 0 0 0 0 0 0 0 0 0 0 0 0 127 0" result="hardAlpha"/>
<feOffset dy="3.89949"/>
<feGaussianBlur stdDeviation="2.92462"/>
<feComposite in2="hardAlpha" operator="out"/>
<feColorMatrix type="matrix" values="0 0 0 0 0 0 0 0 0 0 0 0 0 0 0 0 0 0 0.1 0"/>
<feBlend mode="normal" in2="BackgroundImageFix" result="effect1_dropShadow_55_18"/>
<feBlend mode="normal" in="SourceGraphic" in2="effect1_dropShadow_55_18" result="shape"/>
</filter>
<linearGradient id="paint0_linear_55_18" x1="60.2177" y1="97.5104" x2="7.59502" y2="97.5104" gradientUnits="userSpaceOnUse">
<stop stop-color="#D3D3D3"/>
<stop offset="1" stop-color="#D9D9D9" stop-opacity="0"/>
</linearGradient>
<linearGradient id="paint1_linear_55_18" x1="187.736" y1="41.3729" x2="2.24037" y2="33.509" gradientUnits="userSpaceOnUse">
<stop stop-color="#DB8B99"/>
<stop offset="0.576389" stop-color="#4153ED"/>
<stop offset="1" stop-color="#1426B4"/>
</linearGradient>
<linearGradient id="paint2_linear_55_18" x1="61.0399" y1="45.8622" x2="7.69873" y2="45.8622" gradientUnits="userSpaceOnUse">
<stop/>
<stop offset="1" stop-color="#D9D9D9" stop-opacity="0"/>
</linearGradient>
<linearGradient id="paint3_linear_55_18" x1="54.9257" y1="103.364" x2="6.92757" y2="103.364" gradientUnits="userSpaceOnUse">
<stop/>
<stop offset="1" stop-color="#D9D9D9" stop-opacity="0"/>
</linearGradient>
<linearGradient id="paint4_linear_55_18" x1="52.9449" y1="40.0327" x2="6.67773" y2="40.0327" gradientUnits="userSpaceOnUse">
<stop/>
<stop offset="1" stop-color="#D9D9D9" stop-opacity="0"/>
</linearGradient>
<linearGradient id="paint5_linear_55_18" x1="52.9449" y1="91.6409" x2="6.67773" y2="91.6409" gradientUnits="userSpaceOnUse">
<stop/>
<stop offset="1" stop-color="#D9D9D9" stop-opacity="0"/>
</linearGradient>
</defs>
</svg>
