<svg width="155" height="77" viewBox="0 0 155 77" fill="none" xmlns="http://www.w3.org/2000/svg">
<g filter="url(#filter0_di_55_2)">
<path d="M2.08478 41.87C0.978828 24.5328 14.1369 9.58172 31.4741 8.47576L119.088 2.88679C136.425 1.78084 151.376 14.9389 152.482 32.2761L152.684 35.4334C153.79 52.7706 140.632 67.7217 123.294 68.8277L35.6805 74.4166C18.3433 75.5226 3.39215 62.3646 2.28619 45.0274L2.08478 41.87Z" fill="#27282A"/>
</g>
<mask id="mask0_55_2" style="mask-type:alpha" maskUnits="userSpaceOnUse" x="5" y="6" width="145" height="66">
<path d="M5.8843 42.9088C4.80237 26.5941 17.1551 12.5566 33.475 11.5552L117.522 6.39793C133.842 5.39652 147.949 17.8104 149.031 34.1251L149.107 35.2681C150.189 51.5828 137.836 65.6202 121.516 66.6216L37.4688 71.7789C21.1489 72.7803 7.04203 60.3664 5.9601 44.0517L5.8843 42.9088Z" fill="url(#paint0_linear_55_2)"/>
</mask>
<g mask="url(#mask0_55_2)">
<g filter="url(#filter1_i_55_2)">
<path d="M5.8843 42.9088C4.80237 26.5941 17.1551 12.5566 33.475 11.5552L117.522 6.39793C133.842 5.39652 147.949 17.8104 149.031 34.1251L149.107 35.2681C150.189 51.5828 137.836 65.6202 121.516 66.6216L37.4688 71.7789C21.1489 72.7803 7.04203 60.3664 5.9601 44.0517L5.8843 42.9088Z" fill="url(#paint1_linear_55_2)"/>
</g>
<path d="M156.205 14.6267L160.274 74.0568L10.6267 84.0342L6.55753 24.6041L156.205 14.6267Z" fill="url(#paint2_linear_55_2)"/>
</g>
<path d="M5.63878 42.861C4.54939 26.5468 16.8964 12.5153 33.2167 11.5207L109.423 6.87679C125.743 5.88224 139.856 18.3013 140.946 34.6155L141.027 35.8353C142.117 52.1495 129.769 66.181 113.449 67.1756L37.2432 71.8195C20.9229 72.8141 6.80962 60.395 5.72023 44.0808L5.63878 42.861Z" fill="#EFEFF1"/>
<mask id="mask1_55_2" style="mask-type:alpha" maskUnits="userSpaceOnUse" x="4" y="6" width="138" height="66">
<path d="M4.83299 42.9106C3.7436 26.5964 16.0907 12.5649 32.4109 11.5703L109.423 6.87723C125.743 5.88268 139.857 18.3017 140.946 34.6159L141.028 35.8357C142.117 52.1499 129.77 66.1815 113.45 67.176L36.4374 71.8691C20.1172 72.8636 6.00384 60.4446 4.91445 44.1304L4.83299 42.9106Z" fill="#EFEFF1"/>
</mask>
<g mask="url(#mask1_55_2)">
<rect opacity="0.1" width="88.464" height="151.021" transform="matrix(-0.0471225 0.998889 -0.998976 -0.0452361 154.068 -4.99414)" fill="url(#paint3_linear_55_2)"/>
<path d="M5.87412 43.4591C4.76941 26.9155 17.2901 12.6866 33.8398 11.6781L108.826 7.10851C125.375 6.09998 139.687 18.6936 140.792 35.2373C141.897 51.7809 129.376 66.0097 112.826 67.0182L37.8403 71.5878C21.2906 72.5963 6.97883 60.0027 5.87412 43.4591Z" stroke="url(#paint4_linear_55_2)" stroke-width="0.389949"/>
<path d="M5.97143 43.4531C4.8703 26.9632 17.3503 12.7806 33.8463 11.7754L108.832 7.20579C125.328 6.20053 139.593 18.7533 140.695 35.2432C141.796 51.7331 129.316 65.9157 112.82 66.9209L37.8339 71.4905C21.3378 72.4958 7.07255 59.943 5.97143 43.4531Z" stroke="url(#paint5_linear_55_2)" stroke-width="0.584924"/>
</g>
<path d="M8.46908 41.6784C7.5562 27.9128 17.9788 16.0687 31.7487 15.2238L109.958 10.4247C123.728 9.57977 135.631 20.054 136.544 33.8195L136.765 37.1649C137.678 50.9304 127.256 62.7745 113.486 63.6195L35.2764 68.4185C21.5065 69.2635 9.60381 58.7893 8.69093 45.0237L8.46908 41.6784Z" fill="#FCFCFC"/>
<mask id="mask2_55_2" style="mask-type:alpha" maskUnits="userSpaceOnUse" x="8" y="10" width="128" height="59">
<path d="M8.46908 41.6784C7.5562 27.9128 17.9788 16.0687 31.7487 15.2238L108.514 10.5134C122.283 9.66841 134.186 20.1426 135.099 33.9081L135.321 37.2535C136.234 51.019 125.811 62.8632 112.041 63.7081L35.2764 68.4185C21.5065 69.2635 9.60381 58.7893 8.69093 45.0237L8.46908 41.6784Z" fill="#EFEFF1"/>
</mask>
<g mask="url(#mask2_55_2)">
<path opacity="0.1" d="M-0.010498 48.1387L-0.844185 -5.94544L149.127 -8.1966L149.961 45.8875L-0.010498 48.1387Z" fill="url(#paint6_linear_55_2)"/>
</g>
<path d="M51.0392 34.4184L48.663 47.1413L46.1946 47.3116L43.7212 40.2706C43.6624 40.0987 43.595 39.8864 43.519 39.6337C43.4429 39.381 43.3606 39.1228 43.272 38.8592C43.1944 38.5831 43.1241 38.33 43.0613 38.0998C42.9977 37.858 42.9561 37.6791 42.9364 37.5632C42.9327 37.6807 42.916 37.8636 42.8863 38.1119C42.8557 38.3485 42.8209 38.6089 42.7819 38.893C42.742 39.1655 42.7022 39.4379 42.6624 39.7104C42.6217 39.9712 42.5787 40.1969 42.5332 40.3877L41.1004 47.6631L38.6145 47.8346L34.5309 35.5575L36.7717 35.4029L38.9789 42.4095C39.0534 42.6389 39.1295 42.8916 39.2071 43.1677C39.284 43.4321 39.3617 43.7081 39.4402 43.9959C39.5179 44.272 39.5897 44.5484 39.6557 44.8253C39.7209 45.0905 39.7724 45.3273 39.8103 45.5358C39.8183 45.3124 39.8364 45.0649 39.8646 44.7933C39.8919 44.51 39.9251 44.2263 39.9641 43.9421C40.0024 43.6463 40.0418 43.3681 40.0824 43.1073C40.1223 42.8348 40.1649 42.6032 40.2104 42.4125L41.6734 35.0647L43.8442 34.9149L46.3387 42.0072C46.4108 42.2016 46.4852 42.431 46.5621 42.6954C46.6498 42.9473 46.733 43.2171 46.8114 43.5049C46.8891 43.7809 46.9547 44.052 47.0083 44.318C47.0735 44.5832 47.1308 44.8196 47.1803 45.0273C47.1952 44.7331 47.2189 44.3973 47.2515 44.0198C47.2958 43.6415 47.3455 43.2569 47.4006 42.8662C47.4674 42.4746 47.5253 42.1247 47.5744 41.8164L48.7984 34.5731L51.0392 34.4184ZM55.8669 36.9348C56.7188 36.876 57.4603 37.0008 58.0914 37.309C58.7333 37.6048 59.2456 38.062 59.6283 38.6805C60.0102 39.2874 60.2326 40.046 60.2954 40.9563L60.3727 42.0767L54.1056 42.5091C54.1885 43.3711 54.474 44.0257 54.9622 44.4728C55.4496 44.9082 56.0959 45.0981 56.9012 45.0425C57.5197 44.9999 58.0642 44.9037 58.5347 44.7539C59.016 44.5917 59.5054 44.3762 60.0028 44.1074L60.1248 45.8755C59.6732 46.1294 59.2002 46.3263 58.7056 46.4659C58.211 46.6056 57.6136 46.6996 56.9133 46.7479C55.9913 46.8115 55.1565 46.6932 54.4087 46.393C53.6718 46.0803 53.0742 45.5763 52.6158 44.8809C52.1691 44.1847 51.9087 43.2997 51.8346 42.226C51.7597 41.1407 51.8778 40.2179 52.1888 39.4576C52.5108 38.685 52.9856 38.0893 53.6134 37.6708C54.2404 37.2405 54.9915 36.9952 55.8669 36.9348ZM55.9792 38.5629C55.3957 38.6032 54.9304 38.8287 54.5835 39.2396C54.2475 39.6381 54.0703 40.2132 54.0518 40.9649L58.1307 40.6835C58.1001 40.24 57.9973 39.8543 57.8222 39.5263C57.6588 39.1975 57.4248 38.9498 57.1201 38.7832C56.8147 38.6049 56.4343 38.5315 55.9792 38.5629ZM64.0443 35.8781C64.0701 36.2516 64.0834 36.6142 64.0842 36.9659C64.085 37.3176 64.0806 37.5935 64.071 37.7935L64.176 37.7863C64.4054 37.3717 64.7326 37.015 65.1575 36.7159C65.5817 36.4052 66.1497 36.2253 66.8616 36.1762C67.9704 36.0997 68.8917 36.4524 69.6258 37.2343C70.3599 38.0163 70.7825 39.2125 70.8936 40.8231C70.9685 41.9084 70.8738 42.8296 70.6094 43.5866C70.3567 44.3428 69.9573 44.9274 69.4112 45.3403C68.876 45.7407 68.2349 45.9667 67.4879 46.0183C66.776 46.0674 66.1953 45.9785 65.7458 45.7515C65.3079 45.5237 64.9489 45.2495 64.6688 44.9287L64.5113 44.9396L64.1847 46.0703L62.5392 46.1838L61.6212 32.8792L63.8269 32.727L64.0443 35.8781ZM66.3546 38.0053C65.8178 38.0424 65.399 38.1768 65.0984 38.4086C64.8095 38.6396 64.6099 38.9759 64.4996 39.4173C64.3894 39.8588 64.3572 40.4122 64.4031 41.0774L64.4164 41.27C64.4864 42.2853 64.6917 43.051 65.0322 43.5669C65.3843 44.082 65.9806 44.3106 66.8208 44.2526C67.4744 44.2075 67.9577 43.9044 68.2708 43.3434C68.5831 42.7707 68.7042 41.9767 68.6341 40.9614C68.5633 39.9343 68.3292 39.1766 67.932 38.688C67.5456 38.187 67.0198 37.9594 66.3546 38.0053ZM79.4175 42.2577C79.461 42.8879 79.3463 43.4352 79.0735 43.8997C78.7999 44.3524 78.3731 44.7102 77.7932 44.973C77.2249 45.235 76.5148 45.3954 75.6629 45.4542C74.9976 45.5001 74.4226 45.4929 73.9376 45.4325C73.4527 45.3722 72.9875 45.2577 72.5419 45.0891L72.4127 43.2159C72.8948 43.4055 73.4271 43.5564 74.0094 43.6686C74.5917 43.7809 75.128 43.8201 75.6182 43.7863C76.225 43.7444 76.6562 43.6209 76.9118 43.4156C77.1673 43.2104 77.2842 42.9502 77.2625 42.6351C77.2496 42.4483 77.1854 42.2827 77.0699 42.1383C76.9544 41.9938 76.7393 41.8503 76.4246 41.7079C76.1091 41.5537 75.6332 41.3696 74.9969 41.1556C74.3731 40.9524 73.8485 40.7423 73.4231 40.5254C73.0094 40.3077 72.6859 40.0369 72.4524 39.7129C72.2299 39.3765 72.1005 38.9457 72.0642 38.4205C72.0054 37.5685 72.2996 36.9033 72.9467 36.4248C73.593 35.9346 74.4705 35.6512 75.5793 35.5747C76.1628 35.5345 76.7153 35.555 77.2369 35.6362C77.7693 35.705 78.3066 35.8439 78.8487 36.0527L78.2608 37.7291C77.9601 37.6208 77.6607 37.5301 77.3625 37.4569C77.0752 37.3712 76.7836 37.3092 76.4878 37.271C76.2037 37.2319 75.9157 37.2225 75.624 37.2426C75.1455 37.2756 74.7889 37.3765 74.5543 37.5451C74.3189 37.7021 74.21 37.9089 74.2277 38.1657C74.2414 38.3641 74.3119 38.5351 74.439 38.6788C74.5771 38.81 74.8031 38.9409 75.117 39.0717C75.4417 39.19 75.8981 39.3462 76.4861 39.5401C77.0732 39.7224 77.5737 39.9224 77.9874 40.1401C78.412 40.3453 78.7472 40.6154 78.9931 40.9502C79.239 41.285 79.3805 41.7209 79.4175 42.2577ZM82.9305 35.2434L83.5852 44.7317L81.3794 44.8839L80.7247 35.3956L82.9305 35.2434ZM81.5751 31.6607C81.9019 31.6382 82.1939 31.706 82.4511 31.8641C82.7074 32.0106 82.8505 32.2997 82.8803 32.7316C82.9093 33.1517 82.8077 33.4636 82.5755 33.6672C82.3425 33.8592 82.0626 33.9665 81.7358 33.989C81.3973 34.0124 81.0995 33.945 80.8424 33.7868C80.5961 33.6162 80.4584 33.3208 80.4294 32.9007C80.3996 32.4688 80.4958 32.1632 80.718 31.9837C80.951 31.7917 81.2367 31.6841 81.5751 31.6607ZM89.6218 42.7145C89.9019 42.6952 90.1687 42.6533 90.4222 42.5889C90.675 42.5129 90.9098 42.4322 91.1267 42.3469L91.2402 43.9924C91.0141 44.1136 90.7167 44.222 90.348 44.3178C89.9802 44.4253 89.5921 44.4931 89.1836 44.5213C88.6467 44.5583 88.1505 44.5046 87.695 44.3602C87.2503 44.2032 86.8784 43.9123 86.5794 43.4873C86.292 43.0615 86.121 42.4519 86.0662 41.6582L85.7256 36.7215L84.4476 36.8097L84.3812 35.8469L85.7285 34.98L86.2899 32.9185L87.6729 32.823L87.8166 34.9063L90.5125 34.7202L90.6273 36.3833L87.9313 36.5693L88.2708 41.4885C88.3014 41.932 88.441 42.2566 88.6897 42.4622C88.9376 42.6562 89.2483 42.7403 89.6218 42.7145ZM95.9667 34.168C96.8187 34.1092 97.5602 34.234 98.1912 34.5422C98.8331 34.838 99.3454 35.2951 99.7282 35.9137C100.11 36.5205 100.332 37.2791 100.395 38.1895L100.473 39.3098L94.2054 39.7423C94.2884 40.6043 94.5739 41.2588 95.0621 41.7059C95.5495 42.1414 96.1958 42.3313 97.0011 42.2757C97.6196 42.2331 98.1641 42.1369 98.6346 41.9871C99.1159 41.8249 99.6052 41.6094 100.103 41.3406L100.225 43.1087C99.7731 43.3626 99.3 43.5594 98.8054 43.6991C98.3108 43.8388 97.7134 43.9328 97.0132 43.9811C96.0912 44.0447 95.2563 43.9264 94.5086 43.6262C93.7717 43.3135 93.1741 42.8095 92.7157 42.1141C92.2689 41.4179 92.0085 40.5329 91.9345 39.4592C91.8596 38.3738 91.9776 37.451 92.2887 36.6908C92.6106 35.9181 93.0855 35.3225 93.7133 34.904C94.3403 34.4737 95.0914 34.2284 95.9667 34.168ZM96.0791 35.7961C95.4955 35.8363 95.0303 36.0619 94.6834 36.4728C94.3474 36.8713 94.1701 37.4463 94.1517 38.1981L98.2306 37.9167C98.2 37.4732 98.0971 37.0874 97.9221 36.7595C97.7587 36.4307 97.5246 36.183 97.22 36.0164C96.9145 35.8381 96.5342 35.7647 96.0791 35.7961ZM108.909 40.2228C108.953 40.8531 108.838 41.4004 108.565 41.8648C108.291 42.3176 107.865 42.6753 107.285 42.9382C106.717 43.2002 106.006 43.3606 105.154 43.4193C104.489 43.4652 103.914 43.458 103.429 43.3977C102.944 43.3373 102.479 43.2228 102.034 43.0542L101.904 41.1811C102.386 41.3706 102.919 41.5215 103.501 41.6338C104.083 41.746 104.62 41.7852 105.11 41.7514C105.717 41.7096 106.148 41.586 106.403 41.3807C106.659 41.1755 106.776 40.9153 106.754 40.6002C106.741 40.4135 106.677 40.2479 106.561 40.1034C106.446 39.9589 106.231 39.8155 105.916 39.673C105.601 39.5189 105.125 39.3348 104.489 39.1207C103.865 38.9175 103.34 38.7074 102.915 38.4905C102.501 38.2728 102.177 38.002 101.944 37.678C101.721 37.3416 101.592 36.9108 101.556 36.3856C101.497 35.5337 101.791 34.8684 102.438 34.3899C103.085 33.8997 103.962 33.6163 105.071 33.5398C105.654 33.4996 106.207 33.5201 106.729 33.6014C107.261 33.6702 107.798 33.809 108.34 34.0178L107.752 35.6942C107.452 35.586 107.152 35.4952 106.854 35.422C106.567 35.3363 106.275 35.2743 105.979 35.2361C105.695 35.1971 105.407 35.1876 105.116 35.2078C104.637 35.2408 104.281 35.3416 104.046 35.5102C103.81 35.6672 103.702 35.874 103.719 36.1308C103.733 36.3292 103.803 36.5002 103.931 36.6439C104.069 36.7751 104.295 36.9061 104.609 37.0369C104.933 37.1552 105.39 37.3113 105.978 37.5053C106.565 37.6875 107.065 37.8875 107.479 38.1052C107.904 38.3105 108.239 38.5805 108.485 38.9153C108.731 39.2501 108.872 39.686 108.909 40.2228Z" fill="#445266"/>
<defs>
<filter id="filter0_di_55_2" x="2.0199" y="2.82178" width="151.704" height="72.6345" filterUnits="userSpaceOnUse" color-interpolation-filters="sRGB">
<feFlood flood-opacity="0" result="BackgroundImageFix"/>
<feColorMatrix in="SourceAlpha" type="matrix" values="0 0 0 0 0 0 0 0 0 0 0 0 0 0 0 0 0 0 127 0" result="hardAlpha"/>
<feOffset dy="0.974872"/>
<feComposite in2="hardAlpha" operator="out"/>
<feColorMatrix type="matrix" values="0 0 0 0 1 0 0 0 0 1 0 0 0 0 1 0 0 0 0.25 0"/>
<feBlend mode="normal" in2="BackgroundImageFix" result="effect1_dropShadow_55_2"/>
<feBlend mode="normal" in="SourceGraphic" in2="effect1_dropShadow_55_2" result="shape"/>
<feColorMatrix in="SourceAlpha" type="matrix" values="0 0 0 0 0 0 0 0 0 0 0 0 0 0 0 0 0 0 127 0" result="hardAlpha"/>
<feOffset dx="0.974872"/>
<feGaussianBlur stdDeviation="0.974872"/>
<feComposite in2="hardAlpha" operator="arithmetic" k2="-1" k3="1"/>
<feColorMatrix type="matrix" values="0 0 0 0 1 0 0 0 0 1 0 0 0 0 1 0 0 0 0.6 0"/>
<feBlend mode="normal" in2="shape" result="effect2_innerShadow_55_2"/>
</filter>
<filter id="filter1_i_55_2" x="5.81836" y="6.34131" width="145.304" height="68.4188" filterUnits="userSpaceOnUse" color-interpolation-filters="sRGB">
<feFlood flood-opacity="0" result="BackgroundImageFix"/>
<feBlend mode="normal" in="SourceGraphic" in2="BackgroundImageFix" result="shape"/>
<feColorMatrix in="SourceAlpha" type="matrix" values="0 0 0 0 0 0 0 0 0 0 0 0 0 0 0 0 0 0 127 0" result="hardAlpha"/>
<feOffset dx="1.94974" dy="2.92462"/>
<feGaussianBlur stdDeviation="1.46231"/>
<feComposite in2="hardAlpha" operator="arithmetic" k2="-1" k3="1"/>
<feColorMatrix type="matrix" values="0 0 0 0 0 0 0 0 0 0.0246667 0 0 0 0 0.616667 0 0 0 0.3 0"/>
<feBlend mode="normal" in2="shape" result="effect1_innerShadow_55_2"/>
</filter>
<linearGradient id="paint0_linear_55_2" x1="75.4986" y1="8.97656" x2="79.1951" y2="69.2185" gradientUnits="userSpaceOnUse">
<stop stop-color="#7493FF"/>
<stop offset="0.529514" stop-color="#6464D1"/>
<stop offset="0.998264" stop-color="#AB4F67"/>
</linearGradient>
<linearGradient id="paint1_linear_55_2" x1="75.4986" y1="8.97656" x2="79.1951" y2="69.2185" gradientUnits="userSpaceOnUse">
<stop stop-color="#7493FF"/>
<stop offset="0.529514" stop-color="#6464D1"/>
<stop offset="0.998264" stop-color="#AB4F67"/>
</linearGradient>
<linearGradient id="paint2_linear_55_2" x1="86.0573" y1="74.9915" x2="82.827" y2="26.5427" gradientUnits="userSpaceOnUse">
<stop stop-color="#B5697A"/>
<stop offset="0.263889" stop-color="#8F5461"/>
<stop offset="1" stop-color="#6772DF" stop-opacity="0.4"/>
</linearGradient>
<linearGradient id="paint3_linear_55_2" x1="82.5168" y1="74.6223" x2="10.4075" y2="74.6223" gradientUnits="userSpaceOnUse">
<stop/>
<stop offset="1" stop-color="#D9D9D9" stop-opacity="0"/>
</linearGradient>
<linearGradient id="paint4_linear_55_2" x1="72.6891" y1="83.223" x2="80.0591" y2="49.5384" gradientUnits="userSpaceOnUse">
<stop stop-color="#262531"/>
<stop offset="1" stop-color="white" stop-opacity="0"/>
</linearGradient>
<linearGradient id="paint5_linear_55_2" x1="68.497" y1="7.32285" x2="75.3734" y2="41.2448" gradientUnits="userSpaceOnUse">
<stop stop-color="white"/>
<stop offset="1" stop-color="white" stop-opacity="0"/>
</linearGradient>
<linearGradient id="paint6_linear_55_2" x1="73.3154" y1="-3.42187" x2="73.9772" y2="40.6638" gradientUnits="userSpaceOnUse">
<stop/>
<stop offset="1" stop-color="#D9D9D9" stop-opacity="0"/>
</linearGradient>
</defs>
</svg>
